<svg xmlns="http://www.w3.org/2000/svg" xmlns:xlink="http://www.w3.org/1999/xlink" version="1.1" id="Layer_1" x="0px" y="0px" viewBox="0 0 282 28" style="enable-background:new 0 0 282 28;" xml:space="preserve" width="282"  height="28" >
<style type="text/css">
	.st0{fill:#FFFFFF;}
</style>
<g>
	<path class="st0" d="M4.33,12.25h1.83c3.16,0,5.82-0.33,5.82-3.66c0-2.66-2.33-3.33-4.16-3.33H4.49v6.99H4.33z M4.33,22.73h2.33   c2.83,0,5.49-0.67,5.49-3.66c0-3.49-2.99-3.99-5.82-3.99h-2V22.73z M1,2.61h5.99c4.66,0,7.82,1.5,7.82,5.66   c0.17,3.16-1.66,4.82-4.49,5.49l0,0c2.99,0.33,5.16,2.33,5.16,5.49c0,4.82-3.99,5.99-8.48,5.99H1V2.61z"/>
	<path class="st0" d="M30.11,5.6l-4.49,11.31h8.98L30.11,5.6z M28.61,2.61h3.33l9.48,22.79h-3.49l-2.33-5.66H24.62l-2.33,5.66h-3.33   L28.61,2.61z"/>
	<path class="st0" d="M46.25,2.61h4.49l9.81,18.3l0,0V2.61h3.16v22.79h-4.16L49.57,6.6l0,0v18.63h-3.16L46.25,2.61z"/>
	<path class="st0" d="M88.17,6.6c-1.5-1-3.33-1.5-6.15-1.5c-5.16,0-8.65,3.83-8.65,8.82c0,5.32,3.83,8.82,8.48,8.82   c2.16,0,2.83-0.17,3.66-0.33v-6.82h-4.82v-2.66h7.98v11.81c-1.16,0.5-3.33,1-6.82,1c-7.15,0-11.81-4.66-11.81-11.81   c0-6.99,4.99-11.64,11.81-11.64c3.33,0,4.66,0.5,6.65,1.16L88.17,6.6z"/>
	<path class="st0" d="M144.73,22.9c5.16,0,7.32-4.33,7.32-8.82c0-4.66-2.5-8.98-7.32-8.82c-4.99,0-7.32,4.33-7.32,8.82   S139.57,22.9,144.73,22.9 M144.73,2.27c6.82,0,10.81,4.99,10.81,11.81c0,6.99-3.99,11.81-10.81,11.81s-10.81-4.99-10.81-11.98   C133.91,7.26,137.9,2.27,144.73,2.27"/>
	<path class="st0" d="M161.86,2.61h3.16v19.8h9.32v2.83h-12.64V2.61H161.86z"/>
	<path class="st0" d="M196.13,15.91c0,6.32-3.16,9.81-8.65,9.81c-5.49,0-8.65-3.49-8.65-9.81V2.61h3.16v12.98   c0,4.33,1.33,7.32,5.49,7.32c4.16,0,5.49-2.99,5.49-7.32V2.61h3.16L196.13,15.91L196.13,15.91z"/>
	<path class="st0" d="M203.95,2.61h11.98v2.83h-8.82v6.65h8.32v2.83h-8.32v10.31h-3.16V2.61z"/>
	<path class="st0" d="M233.72,6.1c-1.66-0.67-2.5-1-4.16-1c-1.83,0-3.99,0.67-3.99,2.99c0,4.33,9.65,3.33,9.65,10.81   c0,4.82-3.66,6.82-8.15,6.82c-1.5,0-3.16-0.5-4.66-1l0.33-2.99c1.16,0.5,2.99,1.16,4.66,1.16c1.83,0,4.33-1,4.33-3.66   c0-5.16-9.65-3.66-9.65-10.81c0-3.99,3.16-6.15,7.15-6.15c1.5,0,3.33,0.33,4.82,0.83L233.72,6.1z"/>
	<path class="st0" d="M242.54,2.61h12.64v2.83h-9.32v6.65h8.48v2.83h-8.48v7.49h9.32v2.83h-12.64V2.61z"/>
	<path class="st0" d="M262.5,2.61h4.33l9.81,18.3l0,0V2.61h3.16v22.79h-4.16L265.49,6.76l0,0v18.63h-3.16V2.61H262.5z"/>
	<path class="st0" d="M119.77,19.57l2.33-2.33l-2.33-2.33l-2.33,2.33c0,0-6.32-6.49-7.49-7.65c0-0.17-0.67-0.67-0.67-1.66   c0-1.5,1.33-2.5,2.33-2.5c0.83,0,1.5,0.5,1.66,0.67c0.33-0.33,2.16-2.16,2.33-2.33c-0.17-0.17-1.5-1.66-3.99-1.66   c-3.33,0-5.66,2.83-5.66,5.66s2,4.33,2.33,4.66c-0.33,0.67-1.16,1.5-1.83,2.33c-1.83,1.83-2.99,6.15,0,9.15   c2.99,2.99,7.15,2,8.98,0c1-1,1.5-1.5,2-2l3.16,3.16l2.16-2.33L119.77,19.57z M113.12,21.57c-1.16,1.16-3.16,1.5-4.49,0   s-1.16-3.49,0-4.66l2-2l4.49,4.49C115.28,19.57,114.28,20.57,113.12,21.57z"/>
</g>
</svg>