<svg xmlns="http://www.w3.org/2000/svg" xmlns:xlink="http://www.w3.org/1999/xlink" version="1.1" id="Layer_1" x="0px" y="0px" viewBox="0 0 253.8 57.8" style="enable-background:new 0 0 253.8 57.8;" xml:space="preserve" width="253.8"  height="57.8" >
<style type="text/css">
	.st0{fill:#FFFFFF;}
	.st1{fill:#31B44C;}
</style>
<g>
	<g>
		<path class="st0" d="M89.2,24.3V3.1H97c1.5,0,2.7,0.1,3.8,0.4c1,0.3,1.9,0.7,2.5,1.2c0.7,0.5,1.1,1.1,1.4,1.8S105,8,105,8.9    c0,0.5-0.1,0.9-0.2,1.4c-0.1,0.4-0.4,0.9-0.6,1.3c-0.3,0.4-0.7,0.7-1.1,1.1c-0.5,0.3-1,0.6-1.7,0.8c1.4,0.3,2.4,0.9,3.1,1.7    s1,1.8,1,3c0,0.9-0.2,1.8-0.5,2.5c-0.4,0.8-0.9,1.5-1.5,2c-0.6,0.5-1.5,1-2.5,1.4c-1,0.3-2.1,0.5-3.4,0.5h-8.5L89.2,24.3    L89.2,24.3z M94,12.1h2.6c0.5,0,1,0,1.5-0.1c0.4-0.1,0.8-0.2,1.1-0.4s0.5-0.5,0.7-0.8S100,10,100,9.5s-0.1-0.9-0.2-1.3    c-0.1-0.3-0.3-0.6-0.6-0.8c-0.3-0.2-0.6-0.4-1-0.4c-0.4-0.1-0.9-0.1-1.4-0.1H94L94,12.1L94,12.1z M94,15.3v5.3h3.5    c0.7,0,1.2-0.1,1.6-0.2c0.4-0.2,0.7-0.4,1-0.6c0.2-0.3,0.4-0.6,0.5-0.9c0.1-0.3,0.1-0.7,0.1-1c0-0.4-0.1-0.7-0.2-1.1    c-0.1-0.4-0.3-0.6-0.5-0.8c-0.2-0.2-0.6-0.4-1-0.5c-0.4-0.1-0.9-0.2-1.6-0.2L94,15.3z"/>
		<path class="st0" d="M111.8,9.3v9.5c0,0.8,0.2,1.3,0.5,1.7c0.3,0.4,0.8,0.6,1.5,0.6c0.5,0,1-0.1,1.4-0.3s0.9-0.5,1.3-0.9V9.3h4.5    v15h-2.8c-0.6,0-0.9-0.3-1.1-0.8l-0.3-0.9c-0.3,0.3-0.6,0.5-0.9,0.8c-0.3,0.3-0.6,0.4-1,0.6c-0.4,0.2-0.7,0.3-1.2,0.4    c-0.4,0.1-0.9,0.1-1.3,0.1c-0.8,0-1.6-0.1-2.2-0.4s-1.2-0.7-1.6-1.2s-0.8-1.1-1-1.8c-0.2-0.7-0.3-1.5-0.3-2.3V9.3L111.8,9.3    L111.8,9.3z"/>
		<path class="st0" d="M133.1,12.6c-0.1,0.2-0.2,0.3-0.4,0.4c-0.2,0.1-0.3,0.1-0.5,0.1c-0.2,0-0.4,0-0.6-0.1s-0.4-0.2-0.7-0.3    c-0.2-0.1-0.5-0.2-0.8-0.3s-0.7-0.1-1.1-0.1c-0.6,0-1,0.1-1.3,0.3c-0.3,0.2-0.5,0.5-0.5,0.9c0,0.3,0.1,0.5,0.3,0.7    c0.2,0.2,0.5,0.3,0.8,0.5c0.3,0.1,0.7,0.3,1.1,0.4s0.8,0.3,1.3,0.4c0.4,0.2,0.9,0.3,1.3,0.5c0.4,0.2,0.8,0.5,1.1,0.8    s0.6,0.7,0.8,1.1s0.3,1,0.3,1.6c0,0.8-0.1,1.4-0.4,2.1c-0.3,0.6-0.7,1.2-1.2,1.6c-0.5,0.5-1.2,0.8-2,1.1c-0.8,0.3-1.7,0.4-2.7,0.4    c-0.5,0-1,0-1.6-0.1c-0.5-0.1-1-0.2-1.5-0.4c-0.5-0.2-0.9-0.4-1.3-0.6c-0.4-0.2-0.8-0.5-1.1-0.7l1.1-1.7c0.1-0.2,0.3-0.3,0.5-0.5    c0.2-0.2,0.4-0.2,0.7-0.2c0.3,0,0.5,0.1,0.7,0.2s0.4,0.2,0.7,0.4c0.3,0.2,0.5,0.3,0.9,0.4c0.3,0.1,0.7,0.2,1.2,0.2    c0.4,0,0.6,0,0.9-0.1c0.3-0.1,0.4-0.2,0.6-0.3c0.2-0.1,0.3-0.3,0.3-0.4c0.1-0.2,0.1-0.3,0.1-0.5c0-0.3-0.1-0.6-0.3-0.7    c-0.2-0.2-0.5-0.4-0.8-0.5s-0.7-0.3-1.1-0.4s-0.9-0.3-1.3-0.4s-0.9-0.3-1.3-0.6c-0.4-0.2-0.8-0.5-1.1-0.8s-0.6-0.8-0.8-1.2    c-0.2-0.5-0.3-1.1-0.3-1.8c0-0.6,0.1-1.3,0.4-1.8s0.6-1.1,1.1-1.5c0.5-0.4,1.1-0.8,1.9-1c0.8-0.3,1.6-0.4,2.6-0.4    c0.5,0,1.1,0,1.6,0.1s1,0.2,1.4,0.4c0.4,0.2,0.9,0.4,1.2,0.6c0.4,0.2,0.7,0.5,1,0.8L133.1,12.6z"/>
		<path class="st0" d="M141.2,5.1c0,0.4-0.1,0.7-0.2,1s-0.3,0.6-0.6,0.8c-0.3,0.2-0.5,0.4-0.9,0.6c-0.4,0.2-0.7,0.2-1.1,0.2    s-0.7-0.1-1-0.2s-0.6-0.3-0.9-0.6c-0.2-0.2-0.4-0.5-0.6-0.8c-0.1-0.3-0.2-0.7-0.2-1c0-0.4,0.1-0.7,0.2-1s0.3-0.6,0.6-0.9    c0.2-0.2,0.5-0.4,0.9-0.6c0.3-0.1,0.7-0.2,1-0.2c0.4,0,0.7,0.1,1.1,0.2c0.3,0.1,0.6,0.3,0.9,0.6c0.3,0.3,0.5,0.5,0.6,0.9    C141.2,4.4,141.2,4.7,141.2,5.1z M140.7,9.3v15h-4.5v-15H140.7z"/>
		<path class="st0" d="M143.8,24.3v-15h2.8c0.3,0,0.5,0.1,0.7,0.2s0.3,0.3,0.4,0.6L148,11c0.3-0.3,0.6-0.5,0.9-0.8    c0.3-0.2,0.6-0.4,1-0.6c0.4-0.2,0.7-0.3,1.2-0.4c0.4-0.1,0.9-0.1,1.4-0.1c0.8,0,1.6,0.1,2.2,0.4c0.6,0.3,1.2,0.7,1.6,1.2    c0.4,0.5,0.8,1.1,1,1.8c0.2,0.7,0.3,1.5,0.3,2.3v9.6H153v-9.6c0-0.7-0.2-1.3-0.5-1.7c-0.3-0.4-0.8-0.6-1.5-0.6    c-0.5,0-1,0.1-1.4,0.3s-0.9,0.5-1.3,0.9v10.7L143.8,24.3L143.8,24.3z"/>
		<path class="st0" d="M166.6,9c1,0,1.9,0.2,2.8,0.5c0.8,0.3,1.6,0.8,2.2,1.4c0.6,0.6,1.1,1.3,1.4,2.2c0.3,0.9,0.5,1.8,0.5,2.9    c0,0.3,0,0.6,0,0.8s-0.1,0.4-0.2,0.5s-0.2,0.2-0.3,0.3c-0.1,0-0.3,0.1-0.5,0.1h-8.7c0.1,1.3,0.5,2.2,1.2,2.8    c0.6,0.6,1.4,0.9,2.4,0.9c0.5,0,1-0.1,1.4-0.2c0.4-0.1,0.7-0.3,1-0.4c0.3-0.2,0.6-0.3,0.8-0.4s0.5-0.2,0.8-0.2    c0.4,0,0.6,0.1,0.8,0.4l1.3,1.6c-0.5,0.5-1,1-1.5,1.3c-0.5,0.3-1.1,0.6-1.7,0.8c-0.6,0.2-1.1,0.3-1.7,0.4s-1.1,0.1-1.6,0.1    c-1.1,0-2.1-0.2-3-0.5c-0.9-0.3-1.8-0.9-2.4-1.5c-0.7-0.7-1.3-1.5-1.7-2.6c-0.4-1-0.6-2.2-0.6-3.5c0-1,0.2-2,0.5-2.9    c0.3-0.9,0.8-1.7,1.5-2.4c0.6-0.7,1.4-1.2,2.4-1.6C164.4,9.2,165.4,9,166.6,9z M166.7,12.2c-0.9,0-1.5,0.2-2,0.7    c-0.5,0.5-0.8,1.2-1,2.1h5.6c0-0.4,0-0.7-0.1-1.1c-0.1-0.3-0.2-0.6-0.5-0.9c-0.2-0.3-0.5-0.5-0.8-0.7    C167.6,12.2,167.2,12.2,166.7,12.2z"/>
		<path class="st0" d="M184.6,12.6c-0.1,0.2-0.2,0.3-0.4,0.4c-0.2,0.1-0.3,0.1-0.5,0.1c-0.2,0-0.4,0-0.6-0.1s-0.4-0.2-0.7-0.3    c-0.2-0.1-0.5-0.2-0.8-0.3s-0.7-0.1-1.1-0.1c-0.6,0-1,0.1-1.3,0.3c-0.3,0.2-0.5,0.5-0.5,0.9c0,0.3,0.1,0.5,0.3,0.7    c0.2,0.2,0.5,0.3,0.8,0.5c0.3,0.1,0.7,0.3,1.1,0.4s0.9,0.3,1.3,0.4s0.9,0.3,1.3,0.5c0.4,0.2,0.8,0.5,1.1,0.8s0.6,0.7,0.8,1.1    s0.3,1,0.3,1.6c0,0.8-0.1,1.4-0.4,2.1c-0.3,0.6-0.7,1.2-1.2,1.6c-0.5,0.4-1.2,0.8-2,1.1c-0.8,0.3-1.7,0.4-2.7,0.4    c-0.5,0-1,0-1.6-0.1c-0.5-0.1-1-0.2-1.5-0.4c-0.5-0.2-0.9-0.4-1.3-0.6c-0.4-0.2-0.8-0.5-1.1-0.7l1.1-1.7c0.1-0.2,0.3-0.3,0.5-0.5    c0.2-0.1,0.4-0.2,0.7-0.2s0.5,0.1,0.7,0.2s0.4,0.2,0.7,0.4c0.3,0.2,0.5,0.3,0.9,0.4c0.3,0.1,0.7,0.2,1.2,0.2c0.4,0,0.6,0,0.9-0.1    c0.2-0.1,0.4-0.2,0.6-0.3s0.3-0.3,0.3-0.4c0.1-0.2,0.1-0.3,0.1-0.5c0-0.3-0.1-0.6-0.3-0.7c-0.2-0.2-0.5-0.4-0.8-0.5    s-0.7-0.3-1.1-0.4s-0.9-0.3-1.3-0.4c-0.4-0.2-0.9-0.3-1.3-0.6c-0.4-0.2-0.8-0.5-1.1-0.8s-0.6-0.8-0.8-1.2    c-0.2-0.4-0.3-1.1-0.3-1.8c0-0.6,0.1-1.3,0.4-1.8c0.2-0.6,0.6-1.1,1.1-1.5c0.5-0.4,1.1-0.8,1.9-1c0.8-0.3,1.6-0.4,2.6-0.4    c0.5,0,1.1,0,1.6,0.1s1,0.2,1.4,0.4c0.4,0.2,0.9,0.4,1.2,0.6c0.4,0.2,0.7,0.5,1,0.8L184.6,12.6z"/>
		<path class="st0" d="M196.8,12.6c-0.1,0.2-0.2,0.3-0.4,0.4c-0.2,0.1-0.3,0.1-0.5,0.1c-0.2,0-0.4,0-0.6-0.1    c-0.2-0.1-0.4-0.2-0.7-0.3c-0.2-0.1-0.5-0.2-0.8-0.3s-0.7-0.1-1.1-0.1c-0.6,0-1,0.1-1.3,0.3c-0.3,0.2-0.5,0.5-0.5,0.9    c0,0.3,0.1,0.5,0.3,0.7c0.2,0.2,0.5,0.3,0.8,0.5c0.3,0.1,0.7,0.3,1.1,0.4s0.9,0.3,1.3,0.4s0.9,0.3,1.3,0.5    c0.4,0.2,0.8,0.5,1.1,0.8s0.6,0.7,0.8,1.1s0.3,1,0.3,1.6c0,0.8-0.1,1.4-0.4,2.1c-0.3,0.6-0.7,1.2-1.2,1.6c-0.5,0.4-1.2,0.8-2,1.1    c-0.8,0.3-1.7,0.4-2.7,0.4c-0.5,0-1,0-1.6-0.1c-0.5-0.1-1-0.2-1.5-0.4c-0.5-0.2-0.9-0.4-1.3-0.6c-0.4-0.2-0.8-0.5-1.1-0.7l1.1-1.7    c0.1-0.2,0.3-0.3,0.5-0.5c0.2-0.1,0.4-0.2,0.7-0.2s0.5,0.1,0.7,0.2s0.4,0.2,0.7,0.4c0.3,0.2,0.5,0.3,0.9,0.4    c0.3,0.1,0.7,0.2,1.2,0.2c0.4,0,0.6,0,0.9-0.1c0.2-0.1,0.4-0.2,0.6-0.3s0.3-0.3,0.3-0.4c0.1-0.2,0.1-0.3,0.1-0.5    c0-0.3-0.1-0.6-0.3-0.7c-0.2-0.2-0.5-0.4-0.8-0.5s-0.7-0.3-1.1-0.4s-0.9-0.3-1.3-0.4c-0.4-0.2-0.9-0.3-1.3-0.6    c-0.4-0.2-0.8-0.5-1.1-0.8s-0.6-0.8-0.8-1.2c-0.2-0.4-0.3-1.1-0.3-1.8c0-0.6,0.1-1.3,0.4-1.8c0.2-0.6,0.6-1.1,1.1-1.5    c0.5-0.4,1.1-0.8,1.9-1c0.8-0.3,1.6-0.4,2.6-0.4c0.5,0,1.1,0,1.6,0.1s1,0.2,1.4,0.4c0.4,0.2,0.9,0.4,1.2,0.6    c0.4,0.2,0.7,0.5,1,0.8L196.8,12.6z"/>
		<path class="st0" d="M209.7,20.4h7.8v4h-12.8V3.1h5L209.7,20.4L209.7,20.4z"/>
		<path class="st0" d="M224.5,5.1c0,0.4-0.1,0.7-0.2,1s-0.3,0.6-0.6,0.8c-0.3,0.2-0.5,0.4-0.9,0.6c-0.3,0.1-0.7,0.2-1.1,0.2    s-0.7-0.1-1-0.2s-0.6-0.3-0.9-0.6c-0.2-0.2-0.4-0.5-0.6-0.8c-0.1-0.3-0.2-0.7-0.2-1c0-0.4,0.1-0.7,0.2-1s0.3-0.6,0.6-0.9    c0.2-0.2,0.5-0.4,0.9-0.6c0.3-0.1,0.7-0.2,1-0.2c0.4,0,0.7,0.1,1.1,0.2c0.3,0.1,0.6,0.3,0.9,0.6c0.3,0.3,0.5,0.5,0.6,0.9    C224.5,4.4,224.5,4.7,224.5,5.1z M224,9.3v15h-4.5v-15H224z"/>
		<path class="st0" d="M227.7,24.3v-12l-1-0.2c-0.3-0.1-0.6-0.2-0.8-0.4c-0.2-0.2-0.3-0.4-0.3-0.7V9.3h2.1V8.4    c0-0.9,0.1-1.7,0.4-2.4c0.3-0.7,0.7-1.3,1.2-1.8c0.5-0.5,1.2-0.9,1.9-1.2c0.8-0.3,1.6-0.4,2.6-0.4c0.4,0,0.7,0,1,0.1    s0.6,0.1,1,0.2l-0.1,2.2c0,0.2-0.1,0.3-0.1,0.4c-0.1,0.1-0.2,0.2-0.3,0.2c-0.1,0.1-0.2,0.1-0.4,0.1c-0.2,0-0.3,0-0.4,0    c-0.4,0-0.8,0-1.1,0.1s-0.6,0.2-0.8,0.4c-0.2,0.2-0.4,0.5-0.5,0.8c-0.1,0.3-0.2,0.7-0.2,1.2V9h3.6V12h-3.4v12h-4.4L227.7,24.3    L227.7,24.3z"/>
		<path class="st0" d="M243.4,9c1,0,1.9,0.2,2.8,0.5c0.8,0.3,1.6,0.8,2.2,1.4c0.6,0.6,1.1,1.3,1.4,2.2c0.3,0.9,0.5,1.8,0.5,2.9    c0,0.3,0,0.6,0,0.8s-0.1,0.4-0.2,0.5s-0.2,0.2-0.3,0.3c-0.1,0-0.3,0.1-0.5,0.1h-8.7c0.1,1.3,0.5,2.2,1.2,2.8    c0.6,0.6,1.4,0.9,2.4,0.9c0.5,0,1-0.1,1.4-0.2c0.4-0.1,0.7-0.3,1-0.4c0.3-0.2,0.6-0.3,0.8-0.4s0.5-0.2,0.8-0.2    c0.4,0,0.6,0.1,0.8,0.4l1.3,1.6c-0.5,0.5-1,1-1.5,1.3c-0.5,0.3-1.1,0.6-1.7,0.8c-0.6,0.2-1.1,0.3-1.7,0.4s-1.1,0.1-1.6,0.1    c-1.1,0-2.1-0.2-3-0.5c-0.9-0.3-1.8-0.9-2.4-1.5c-0.7-0.7-1.3-1.5-1.7-2.6c-0.4-1-0.6-2.2-0.6-3.5c0-1,0.2-2,0.5-2.9    c0.3-0.9,0.8-1.7,1.5-2.4c0.6-0.7,1.4-1.2,2.4-1.6C241.2,9.2,242.3,9,243.4,9z M243.5,12.2c-0.9,0-1.5,0.2-2,0.7    c-0.5,0.5-0.8,1.2-1,2.1h5.6c0-0.4,0-0.7-0.1-1.1c-0.1-0.3-0.2-0.6-0.5-0.9c-0.2-0.3-0.5-0.5-0.8-0.7    C244.4,12.2,244,12.2,243.5,12.2z"/>
	</g>
	<g>
		<path class="st0" d="M100.9,33.9c-0.1,0.2-0.3,0.4-0.5,0.5s-0.4,0.2-0.6,0.2s-0.5-0.1-0.7-0.2c-0.3-0.1-0.6-0.3-0.9-0.5    c-0.3-0.2-0.7-0.3-1.1-0.5c-0.5-0.1-1-0.1-1.5-0.1c-0.9,0-1.6,0.2-2.1,0.6c-0.5,0.4-0.7,0.9-0.7,1.6c0,0.4,0.1,0.8,0.4,1.1    s0.6,0.5,1.1,0.7c0.5,0.2,1,0.4,1.5,0.6c0.5,0.2,1.2,0.4,1.8,0.6c0.6,0.2,1.2,0.5,1.8,0.7c0.6,0.3,1.1,0.6,1.5,1.1    c0.4,0.4,0.8,1,1.1,1.6s0.4,1.4,0.4,2.3c0,1-0.2,1.9-0.5,2.8c-0.3,0.9-0.8,1.6-1.5,2.2c-0.6,0.6-1.5,1.1-2.4,1.5    c-1,0.4-2,0.5-3.2,0.5c-0.7,0-1.3-0.1-2-0.2s-1.4-0.3-2-0.6c-0.6-0.3-1.3-0.5-1.8-0.9c-0.6-0.3-1.1-0.7-1.5-1.1l1.5-2.3    c0.1-0.2,0.3-0.3,0.5-0.4s0.4-0.2,0.6-0.2c0.3,0,0.6,0.1,0.9,0.3s0.6,0.4,1,0.6c0.4,0.2,0.8,0.4,1.3,0.6c0.5,0.2,1.1,0.3,1.7,0.3    c0.9,0,1.6-0.2,2.1-0.6c0.5-0.4,0.7-1,0.7-1.9c0-0.5-0.1-0.9-0.4-1.2c-0.3-0.3-0.6-0.6-1.1-0.8c-0.4-0.2-1-0.4-1.5-0.5    s-1.1-0.3-1.7-0.5c-0.6-0.2-1.2-0.4-1.7-0.7c-0.6-0.3-1.1-0.6-1.5-1.1c-0.4-0.5-0.8-1-1.1-1.7s-0.4-1.5-0.4-2.5    c0-0.8,0.2-1.6,0.5-2.3c0.3-0.8,0.8-1.4,1.4-2c0.6-0.6,1.4-1.1,2.3-1.4c0.9-0.4,2-0.5,3.1-0.5c0.7,0,1.3,0.1,1.9,0.2    c0.6,0.1,1.2,0.3,1.8,0.5s1.1,0.4,1.6,0.7c0.5,0.3,0.9,0.6,1.3,0.9L100.9,33.9z"/>
		<path class="st0" d="M109.5,31.7c0,0.4-0.1,0.7-0.2,1s-0.3,0.6-0.6,0.8c-0.3,0.2-0.5,0.4-0.9,0.6c-0.3,0.1-0.7,0.2-1.1,0.2    s-0.7-0.1-1-0.2s-0.6-0.3-0.9-0.6c-0.2-0.2-0.4-0.5-0.6-0.8c-0.1-0.3-0.2-0.7-0.2-1c0-0.4,0.1-0.7,0.2-1c0.1-0.3,0.3-0.6,0.6-0.9    c0.2-0.2,0.5-0.4,0.9-0.6c0.3-0.1,0.7-0.2,1-0.2c0.4,0,0.7,0.1,1.1,0.2c0.3,0.1,0.6,0.3,0.9,0.6c0.3,0.2,0.5,0.5,0.6,0.9    C109.4,31,109.5,31.3,109.5,31.7z M109,35.8v15h-4.4v-15H109z"/>
		<path class="st0" d="M112,50.8v-15h2.8c0.3,0,0.5,0.1,0.7,0.2s0.3,0.3,0.4,0.6l0.2,0.8c0.3-0.3,0.5-0.5,0.8-0.7    c0.3-0.2,0.6-0.4,0.9-0.6s0.7-0.3,1-0.4c0.4-0.1,0.8-0.1,1.2-0.1c0.9,0,1.7,0.2,2.3,0.7c0.6,0.5,1.1,1.1,1.4,1.9    c0.3-0.5,0.6-0.9,0.9-1.2c0.4-0.3,0.8-0.6,1.2-0.8c0.4-0.2,0.9-0.4,1.3-0.5c0.4-0.1,0.9-0.1,1.4-0.1c0.9,0,1.6,0.1,2.3,0.4    c0.7,0.3,1.2,0.6,1.7,1.1c0.5,0.5,0.8,1.1,1,1.8c0.2,0.7,0.4,1.5,0.4,2.4v9.6h-4.5v-9.6c0-1.6-0.7-2.4-2-2.4    c-0.6,0-1.1,0.2-1.5,0.6s-0.6,1-0.6,1.8v9.6h-4.5v-9.6c0-0.9-0.2-1.5-0.5-1.8c-0.3-0.4-0.8-0.5-1.5-0.5c-0.4,0-0.8,0.1-1.2,0.3    c-0.4,0.2-0.7,0.4-1,0.7v10.9L112,50.8L112,50.8z"/>
		<path class="st0" d="M136.4,55.6V35.8h2.8c0.3,0,0.5,0.1,0.7,0.2s0.3,0.3,0.4,0.6l0.3,1.1c0.3-0.3,0.6-0.6,0.9-0.9    c0.3-0.3,0.7-0.5,1.1-0.7s0.8-0.3,1.2-0.4s0.9-0.2,1.5-0.2c0.8,0,1.5,0.2,2.2,0.5c0.7,0.4,1.3,0.9,1.7,1.5    c0.5,0.7,0.9,1.5,1.2,2.4c0.3,1,0.4,2.1,0.4,3.3c0,1.1-0.2,2.2-0.5,3.2s-0.8,1.8-1.3,2.5c-0.6,0.7-1.3,1.3-2.1,1.7    c-0.8,0.4-1.7,0.6-2.6,0.6c-0.8,0-1.5-0.1-2-0.3c-0.5-0.2-1-0.5-1.5-0.9v5.7L136.4,55.6L136.4,55.6z M143.8,38.9    c-0.3,0-0.6,0-0.9,0.1c-0.3,0.1-0.5,0.2-0.7,0.3c-0.2,0.1-0.4,0.3-0.6,0.4c-0.2,0.2-0.4,0.4-0.6,0.6v6.4c0.3,0.4,0.7,0.6,1.1,0.8    c0.4,0.2,0.8,0.2,1.3,0.2c0.4,0,0.8-0.1,1.2-0.2c0.4-0.2,0.7-0.4,0.9-0.8c0.2-0.4,0.5-0.8,0.6-1.4c0.1-0.6,0.2-1.3,0.2-2.1    c0-0.8-0.1-1.5-0.2-2c-0.1-0.5-0.3-1-0.5-1.3c-0.2-0.3-0.5-0.6-0.8-0.7C144.5,39,144.1,38.9,143.8,38.9z"/>
		<path class="st0" d="M157.3,29.1v21.7h-4.5V29.1H157.3z"/>
		<path class="st0" d="M165.6,31.7c0,0.4-0.1,0.7-0.2,1s-0.3,0.6-0.6,0.8c-0.3,0.2-0.5,0.4-0.9,0.6c-0.3,0.1-0.7,0.2-1.1,0.2    s-0.7-0.1-1-0.2s-0.6-0.3-0.9-0.6c-0.2-0.2-0.4-0.5-0.6-0.8s-0.2-0.7-0.2-1c0-0.4,0.1-0.7,0.2-1s0.3-0.6,0.6-0.9    c0.2-0.2,0.5-0.4,0.9-0.6c0.3-0.1,0.7-0.2,1-0.2c0.4,0,0.7,0.1,1.1,0.2c0.3,0.1,0.6,0.3,0.9,0.6c0.3,0.3,0.5,0.5,0.6,0.9    C165.5,31,165.6,31.3,165.6,31.7z M165,35.8v15h-4.5v-15H165z"/>
		<path class="st0" d="M168.7,50.8v-12l-1-0.2c-0.3-0.1-0.6-0.2-0.8-0.4c-0.2-0.2-0.3-0.4-0.3-0.7v-1.8h2.1v-0.2    c0-0.9,0.2-1.8,0.5-2.6c0.3-0.8,0.8-1.5,1.5-2.1s1.5-1.1,2.5-1.4c1-0.4,2.3-0.5,3.7-0.5c0.4,0,0.9,0,1.4,0.1    c0.5,0,0.9,0.1,1.2,0.2l-0.1,2.3c0,0.2-0.1,0.4-0.4,0.5c-0.3,0.1-0.5,0.1-0.7,0.1c-1,0-1.9,0.1-2.5,0.2c-0.7,0.2-1.2,0.4-1.6,0.7    c-0.4,0.3-0.7,0.7-0.8,1.2c-0.2,0.5-0.2,1-0.2,1.6V36h9.5v15h-4.5V38.9h-5v12L168.7,50.8L168.7,50.8z"/>
		<path class="st0" d="M192.2,35.5c1,0,1.9,0.2,2.8,0.5c0.8,0.3,1.6,0.8,2.2,1.4s1.1,1.3,1.4,2.2c0.3,0.9,0.5,1.8,0.5,2.9    c0,0.3,0,0.6,0,0.8c0,0.2-0.1,0.4-0.2,0.5c-0.1,0.1-0.2,0.2-0.3,0.3c-0.1,0.1-0.3,0.1-0.5,0.1h-8.8c0.1,1.3,0.5,2.2,1.2,2.8    c0.6,0.6,1.4,0.9,2.4,0.9c0.5,0,1-0.1,1.4-0.2s0.7-0.3,1-0.4c0.3-0.2,0.6-0.3,0.8-0.4s0.5-0.2,0.8-0.2c0.4,0,0.6,0.1,0.8,0.4    l1.3,1.6c-0.5,0.5-1,1-1.5,1.3c-0.5,0.3-1.1,0.6-1.7,0.8c-0.6,0.2-1.1,0.3-1.7,0.4s-1.1,0.1-1.6,0.1c-1.1,0-2.1-0.2-3-0.5    c-0.9-0.3-1.8-0.9-2.4-1.5c-0.7-0.7-1.3-1.5-1.7-2.6c-0.4-1-0.6-2.2-0.6-3.5c0-1,0.2-2,0.5-2.9c0.3-0.9,0.8-1.7,1.5-2.4    c0.6-0.7,1.4-1.2,2.4-1.6C190,35.7,191,35.5,192.2,35.5z M192.3,38.7c-0.9,0-1.5,0.2-2,0.7c-0.5,0.5-0.8,1.2-1,2.1h5.6    c0-0.4,0-0.7-0.1-1.1c-0.1-0.3-0.2-0.6-0.5-0.9c-0.2-0.3-0.5-0.5-0.8-0.7C193.2,38.7,192.8,38.7,192.3,38.7z"/>
		<path class="st0" d="M211.6,50.8c-0.3,0-0.5-0.1-0.7-0.2s-0.3-0.3-0.4-0.6l-0.4-1.2c-0.3,0.3-0.6,0.6-1,0.9s-0.7,0.5-1.1,0.7    s-0.8,0.3-1.2,0.4s-0.9,0.2-1.4,0.2c-0.8,0-1.5-0.2-2.2-0.5c-0.7-0.4-1.3-0.9-1.7-1.5c-0.5-0.7-0.9-1.5-1.2-2.4    c-0.3-1-0.4-2.1-0.4-3.3c0-1.1,0.2-2.2,0.5-3.2c0.3-1,0.8-1.8,1.3-2.5c0.6-0.7,1.3-1.3,2.1-1.7c0.8-0.4,1.7-0.6,2.7-0.6    c0.8,0,1.4,0.1,2,0.3c0.5,0.2,1,0.5,1.5,0.9v-7.6h4.5v21.7L211.6,50.8L211.6,50.8z M206.9,47.6c0.3,0,0.6,0,0.9-0.1    s0.5-0.2,0.7-0.3c0.2-0.1,0.4-0.3,0.6-0.4c0.2-0.2,0.4-0.4,0.6-0.6v-6.4c-0.4-0.4-0.7-0.6-1.1-0.8c-0.4-0.2-0.8-0.2-1.3-0.2    c-0.4,0-0.8,0.1-1.2,0.2c-0.4,0.2-0.7,0.4-0.9,0.8c-0.3,0.4-0.5,0.8-0.6,1.4c-0.1,0.6-0.2,1.3-0.2,2.1c0,0.8,0.1,1.5,0.2,2    c0.1,0.5,0.3,1,0.5,1.3c0.2,0.3,0.5,0.6,0.8,0.7C206.3,47.5,206.7,47.6,206.9,47.6z"/>
	</g>
	<path class="st0" d="M3.6,13.9L16,2.9h4.8c5.7,0,10.2,1.7,13.4,4.9c3.2,3.3,4.9,7.3,4.9,12.3v14.8c0,2-0.2,3.8-0.7,5.3   s-1.1,3-1.9,4.1c-0.8,1.1-1.8,2.1-2.9,3s-2.3,1.5-3.6,2s-2.7,0.8-4,1.1c-1.4,0.2-2.7,0.3-4.2,0.3H3.6V13.9z M16,13.9v25.9h5.8   c1.9,0,3.1-0.3,3.8-1c0.6-0.6,1-2,1-3.9V20.2c0-1.1-0.1-2-0.3-2.8s-0.6-1.5-1.1-2s-1.1-0.9-1.8-1.2c-0.7-0.3-1.6-0.4-2.6-0.4   L16,13.9L16,13.9z"/>
	<path class="st0" d="M58.4,2.2c5.3,0,9.5,1.4,12.4,4.1s4.4,6.4,4.4,11.4H63.2c0-1.2-0.2-2.1-0.6-2.8c-0.4-0.7-0.9-1.2-1.6-1.4   c-0.7-0.3-1.6-0.4-2.8-0.4c-1.5,0-2.6,0.3-3.3,0.9s-1,1.3-1,2.2c0,0.8,0.1,1.5,0.4,1.9c0.3,0.4,1,0.9,2.1,1.5   c1.2,0.6,3,1.1,5.3,1.7c2.5,0.6,4.6,1.2,6.3,2s3.2,1.7,4.3,2.6c1.1,0.9,2,2,2.6,3.3c0.6,1.3,1.1,2.5,1.3,3.8s0.3,2.8,0.3,4.4   c0,1.5-0.2,2.9-0.6,4.3c-0.4,1.4-1,2.7-1.8,4c-0.9,1.3-1.9,2.4-3.2,3.3s-2.9,1.7-4.8,2.3c-1.9,0.6-4.1,0.9-6.4,0.9   c-5.6,0-10.2-1.4-13.6-4.1s-5.1-6.5-5.1-11.5h11.7c0,1.6,0.4,2.7,1.3,3.4c0.8,0.7,2.5,1,5.1,1c1.7,0,3-0.3,3.9-0.9   c1-0.6,1.4-1.4,1.4-2.5c0-0.4,0-0.8-0.1-1c-0.1-0.3-0.2-0.5-0.4-0.8c-0.2-0.2-0.4-0.4-0.6-0.6c-0.2-0.2-0.5-0.3-1.1-0.5   c-0.5-0.2-1-0.3-1.3-0.4c-0.3-0.1-0.9-0.2-1.7-0.4c-0.8-0.2-1.5-0.4-2-0.6c-2.6-0.7-4.8-1.5-6.4-2.2c-1.7-0.8-3.3-1.7-4.8-2.9   c-1.4-1.2-2.5-2.6-3.3-4.2c-0.7-1.7-1.1-3.6-1.2-5.8c-0.1-4.8,1.2-8.6,4-11.3C48.8,3.5,52.9,2.2,58.4,2.2"/>
	<polygon class="st1" points="16,13.9 3.6,13.9 16,2.9  "/>
</g>
</svg>