<svg xmlns:xlink="http://www.w3.org/1999/xlink" xmlns="http://www.w3.org/2000/svg" width="121" height="138" viewBox="0 0 121 138" fill="none">
  <path d="M81.4017 82.4008C84.7017 81.4008 88.2017 80.0008 88.2017 80.0008C88.2017 80.0008 88.9017 77.5008 89.7017 73.5008C90.5017 68.5008 91.0017 63.5008 91.1017 58.5008C91.4017 52.1008 91.3017 46.1008 91.3017 46.1008C91.3017 46.1008 85.0017 48.6008 81.8017 50.0008C79.0017 51.2008 76.4017 52.8008 73.9017 54.6008C71.1017 56.6008 68.4017 58.7008 65.9017 61.0008C64.3017 62.5008 62.7017 64.1008 61.3017 65.8008V73.0008C61.3017 73.0008 63.8017 72.7008 66.2017 72.4008C67.8017 72.1008 69.3017 71.6008 70.8017 71.0008V68.1008L73.3017 66.3008C74.4017 65.5008 76.2017 64.3008 76.2017 64.3008C76.2017 64.3008 77.4017 62.8008 77.7017 62.3008C78.0017 61.8008 79.7017 58.9008 80.3017 57.6008L82.7017 52.8008C82.7017 52.8008 81.3017 57.0008 80.9017 58.5008C80.5017 60.0008 79.6017 62.2008 79.6017 62.2008C79.6017 62.2008 80.5017 61.6008 81.3017 61.2008C82.1017 60.8008 83.2017 60.3008 83.2017 60.3008C83.2017 61.7008 83.0017 63.2008 82.7017 64.6008C82.3017 66.1008 81.6017 67.5008 80.8017 68.7008C80.1017 69.6008 79.3017 70.3008 78.3017 70.9008C77.3017 71.6008 76.2017 72.1008 75.0017 72.7008C75.0017 72.7008 72.1017 77.9008 71.2017 79.4008C70.3017 80.8008 68.4017 83.2008 68.4017 83.2008C68.4017 83.2008 69.6017 80.4008 70.4017 78.5008C71.1017 76.7008 72.4017 73.7008 72.4017 73.7008C72.4017 73.7008 69.2017 74.5008 66.2017 75.0008C64.6017 75.3008 63.0017 75.4008 61.3017 75.5008V113.901C64.4017 112.001 67.4017 109.901 70.1017 107.601C73.7017 104.401 76.8017 100.801 79.5017 96.8008C82.4017 92.6008 84.8017 88.0008 86.8017 83.3008C85.1017 84.1008 83.4017 84.7008 81.6017 85.2008C79.5017 85.8008 76.2017 86.7008 76.2017 86.7008C75.3017 88.4008 74.4017 90.0008 73.3017 91.6008C72.2017 93.0008 69.8017 95.6008 69.8017 95.6008L70.1017 84.9008C70.1017 84.9008 77.6017 83.6008 81.4017 82.4008ZM49.8017 68.0008L50.1017 71.0008C51.5017 71.5008 52.9017 72.0008 54.4017 72.3008C56.0017 72.6008 57.7017 72.9008 59.3017 73.0008L59.2017 65.8008C57.5017 63.3008 55.4017 61.1008 53.0017 59.2008C49.0017 55.8008 44.6017 52.9008 39.9017 50.6008C34.5017 47.9008 29.9017 46.3008 29.9017 46.3008C29.9017 46.3008 29.8017 53.7008 30.2017 60.7008C30.2017 65.7008 30.7017 70.7008 31.5017 75.6008C32.7017 81.4008 35.0017 86.9008 38.1017 91.9008C41.2017 97.1008 45.0017 101.901 49.4017 106.201C52.5017 109.001 55.8017 111.601 59.3017 113.901V75.5008C56.8017 75.2008 54.4017 74.7008 51.9017 74.1008C48.2017 73.1008 44.7017 71.7008 41.3017 70.0008C41.3017 70.0008 41.8017 73.4008 42.3017 75.9008C42.8017 78.1008 43.4017 80.3008 44.3017 82.4008C45.4017 82.9008 46.6017 83.4008 47.7017 83.8008C49.1017 84.3008 50.4017 84.8008 50.4017 84.8008L50.6017 95.6008C49.1017 93.7008 47.6017 91.8008 46.3017 89.8008C44.1017 86.6008 42.5017 83.1008 41.4017 79.5008C40.3017 75.3008 39.6017 71.0008 39.4017 66.7008C39.1017 63.1008 38.8017 59.7008 38.8017 59.7008C38.8017 59.7008 41.7017 61.4008 44.4017 63.4008C46.3017 64.8008 48.1017 66.4008 49.8017 68.0008Z" fill="white"/>
  <path d="M35.6 45.5002C39.4 47.0002 43 48.9002 46.4 51.0002C49.8 53.1002 52.9 55.5002 55.9 58.2002C57.5 59.8002 58.9001 61.5002 60.2001 63.3002C61.5 61.5002 63 59.8002 64.5 58.2002C67.4 55.5002 70.6 53.1002 74 51.0002C77.4 48.8002 81.1001 47.0002 84.8 45.5002C89.2001 43.7002 98.9 40.1002 102.3 38.4002C104.5 37.3002 106.5 36.0002 108.4 34.4002C104.3 34.1002 100.2 33.5002 96.2001 32.5002C93.4 31.7002 90.7001 30.4002 88.3 28.9002C86 32.4002 83.4 35.8002 80.5 38.8002C78 41.2002 75.4 43.3002 72.5 45.1002C72.5 45.1002 79.4 37.3002 81.4 34.2002C83.1 31.6002 84.4 28.9002 85.5 26.1002C86.5 23.6002 87.2 21.0002 87.5 18.4002C87.7 16.1002 87.5 13.8002 87 11.5002C86.4 8.60024 85.3 5.80024 83.7001 3.30024C82.9 2.00024 81.9 0.800244 80.6 0.000244141C79.8 1.40024 78.9 2.70024 77.9 4.00024C76.7001 5.40024 75.4 6.70024 73.9 8.00024C74.8 9.20024 75.6001 10.4002 76.2001 11.8002C77.1001 14.0002 77.4 16.5002 77.1 18.9002C76.9 20.8002 76.4 22.6002 75.8 24.4002C74.3 23.8002 72.9 23.1002 71.6 22.3002C69.6 21.1002 67.7 19.7002 65.9 18.2002C62.8 15.7002 60.1 13.3002 60.1 13.3002C60.1 13.3002 57.3 15.7002 54.3 18.2002C52.5 19.7002 50.6001 21.1002 48.6001 22.3002C47.3001 23.1002 45.8 23.8002 44.4 24.4002C43.8 22.6002 43.3001 20.8002 43.1 18.9002C42.8001 16.5002 43.1 14.1002 44 11.8002C44.6 10.5002 45.4 9.20024 46.3 8.00024C44.9 6.80024 43.6 5.50024 42.3001 4.00024C41.3001 2.80024 40.4 1.40024 39.6 0.000244141C38.3001 0.800244 37.3 2.00024 36.5 3.30024C34.9 5.80024 33.8 8.60024 33.2 11.5002C32.7 13.7002 32.5 16.0002 32.7 18.3002C33 21.0002 33.7 23.5002 34.7 26.0002C35.8 28.9002 37.2001 31.6002 38.8001 34.1002C40.8001 37.2002 47.7001 45.0002 47.7001 45.0002C44.8 43.2002 42.1 41.0002 39.7 38.7002C36.8 35.7002 34.2 32.3002 31.9 28.8002C29.4 30.4002 26.8 31.6002 24 32.4002C20 33.3002 15.9 34.0002 11.8 34.3002C13.7 35.8002 15.8 37.1002 17.9 38.2002C21.5 40.1002 31.2001 43.7002 35.6 45.5002Z" fill="white"/>
  <path d="M101.8 54.5002C100.6 50.8002 100 46.9002 100 43.0002C100 43.0002 98.4 43.6002 96.4 44.2002C94.4 44.9002 93.5 45.3002 93.5 45.3002C93.5 45.3002 93.7 48.9002 93.5 53.2002C93.4 57.5002 93.3 65.8002 92.6 71.9002C92.1 77.0002 90.7 82.0002 88.5 86.6002C84.7 94.4002 79.7 101.5 73.6 107.7C69.8 111.7 65.2 115 60.2 117.3C55.2 114.9 50.7 111.7 47 107.7C40.9 101.5 35.9 94.4002 32.1 86.6002C29.9 82.0002 28.5 77.0002 28 71.9002C27.3 65.8002 27.3 57.5002 27.1 53.2002C27 48.9002 27.1 45.3002 27.1 45.3002C27.1 45.3002 26.1 44.9002 24.2 44.2002C22.3 43.5002 20.6 43.0002 20.6 43.0002C20.5 46.9002 19.9 50.7002 18.8 54.5002C17.5 59.4002 15.1 63.9002 11.8 67.8002C8.2 71.5002 4.2 74.8002 0 77.8002C0 77.8002 5.8 86.5002 9.7 91.8002C13.6 97.1002 17.1 101.3 20.7 105.4C24.2 109.4 29.1 114.2 29.1 114.2C29.1 114.2 31.4 110.8 32.8 108.9C34.2 107 37.5 103.3 37.5 103.3C37 104.5 36.6 105.8 36.3 107.1C35.7 109.2 35.1 111.4 35.1 111.4C35.1 111.4 40.6 116.8 43.5 119.4C46.4 122 50.4 125.5 50.4 125.5C50.4 125.5 49.3 126.3 47.7 127.6C46.1 128.9 45.2 129.4 45.2 129.4C45.2 129.4 47.6 131.5 49.5 133.1C51.5 134.7 56.1 137.8 56.1 137.8L60.3 135L64.5 137.8C64.5 137.8 69.1 134.7 71.1 133.1C73.1 131.5 75.4 129.4 75.4 129.4C75.4 129.4 74.6 128.8 72.9 127.6C71.2 126.4 70.2 125.5 70.2 125.5C70.2 125.5 74.3 122 77.1 119.4C80 116.8 85.5 111.4 85.5 111.4C85.5 111.4 84.9 109.2 84.3 107.1C83.7 105 83.1 103.3 83.1 103.3C83.1 103.3 86.4 106.9 87.8 108.9C89.3 110.9 91.5 114.2 91.5 114.2C91.5 114.2 96.3 109.3 99.9 105.4C103.5 101.3 107 97.0002 110.9 91.8002C114.8 86.6002 120.6 77.8002 120.6 77.8002C116.3 74.9002 112.4 71.5002 108.8 67.8002C105.5 63.9002 103.1 59.4002 101.8 54.5002Z" fill="white"/>
  <path fill-rule="evenodd" clip-rule="evenodd" d="M77.8016 64.6006C78.0016 64.7006 78.2016 66.5006 77.3016 67.1006C76.5016 67.7006 75.4016 67.6006 74.8016 66.9006L74.7016 66.8006C73.5016 67.7006 72.6016 68.3006 72.6016 68.3006V71.7006C74.4016 71.2006 76.2016 70.4006 77.7016 69.3006C79.4016 67.6006 80.5016 65.3006 80.8016 62.9006C79.8016 63.3006 78.8016 63.9006 77.8016 64.6006Z" fill="#DD1C21"/>
  </svg>