<svg version="1.1" id="Layer_1" xmlns="http://www.w3.org/2000/svg" x="0" y="0" viewBox="0 0 135.3 135.3" xml:space="preserve"><style>.st0{fill:#fff}</style><path class="st0" d="M64.6.1c-1.3 3.2-13.7 37.4-13.7 38h11.5c1.1 0 2.1.1 3.2.3 4.4 1 6.9 4.5 6.5 9-.1 1.1-.4 2.2-.8 3.3-5.6 15.3-11.2 30.6-16.8 46-.1.2-.2.4-.2.5-1.3.1-13.8.1-14.3-.1C46.1 80.5 52.2 63.8 58.3 47H47.5c-6.1 16.7-12.2 33.5-18.3 50.3H15v-.1-.1c11.4-31.3 22.8-62.7 34.2-94 0-.1 0-.1.1-.2v-.1-.1C19.7 10.8-3.6 40.3.5 75.7 4.2 107.6 29 128.6 52 133.5 63.6 101.7 75.1 70 86.7 38.2h26.2c1.3 0 2.6.1 3.8.5 3.5 1.2 5.6 4.1 5.6 7.8 0 1.4-.3 2.8-.8 4.1-5 13.6-9.9 27.2-14.9 40.8-.3.9-.7 1.7-1.3 2.4-1.9 2.3-4.4 3.6-7.4 3.6H79.5c-.1.1-.1.2-.1.2-4.6 12.5-9.1 25.1-13.7 37.6v.1c21.5.8 46-9.5 60.1-33.1 13.3-22.3 12.6-50.6-2-72.2C108.2 6.7 83.4-1 64.6.1zM97.8 47c-5 13.8-10 27.5-15.1 41.3h10.8c5-13.7 10-27.5 15.1-41.3H97.8z"/><path class="st0" d="M64.6.1c18.8-1.1 43.6 6.6 59.2 29.8 14.6 21.6 15.4 49.9 2 72.2-14.1 23.5-38.6 33.9-60.1 33.1v-.1c4.6-12.5 9.1-25.1 13.7-37.6 0-.1.1-.1.1-.2h18.4c3 0 5.5-1.3 7.4-3.6.6-.7 1-1.5 1.3-2.4 5-13.6 9.9-27.2 14.9-40.8.5-1.3.8-2.7.8-4.1 0-3.7-2.1-6.6-5.6-7.8-1.2-.4-2.5-.5-3.8-.5H86.7C75.1 69.9 63.5 101.6 52 133.4 29 128.6 4.2 107.5.5 75.6c-4.1-35.5 19.2-64.9 48.8-73v.2c0 .1 0 .1-.1.2C37.8 34.3 26.4 65.6 15 97v.2H29.2C35.3 80.5 41.4 63.8 47.5 47h10.8C52.2 63.8 46.1 80.5 40 97.2c.5.1 13 .2 14.3.1.1-.2.2-.3.2-.5C60.1 81.3 65.7 66 71.3 50.6c.4-1.1.7-2.1.8-3.3.4-4.5-2.1-8-6.5-9-1-.2-2.1-.3-3.2-.3H50.9c0-.5 12.4-34.7 13.7-37.9z"/><path class="st0" d="M97.8 47h10.8c-5 13.8-10.1 27.6-15.1 41.3H82.7C87.8 74.5 92.8 60.7 97.8 47z"/></svg>