<svg xmlns:xlink="http://www.w3.org/1999/xlink" xmlns="http://www.w3.org/2000/svg" id="Layer_1" data-name="Layer 1" viewBox="0 0 47.68 47.67" width="55"  height="55" ><defs><style>.cls-1{fill:#575757}</style></defs><path class="cls-1" d="M23.09.45c-.46 1.12-4.82 13.17-4.83 13.38h4.06a5 5 0 011.12.11 2.83 2.83 0 012.29 3.16 4.61 4.61 0 01-.28 1.16l-5.9 16.23-.08.19h-5L20.87 17h-3.8l-6.45 17.69h-5L17.67 1.45v-.12a23.82 23.82 0 001 46.1l12.19-33.58h9.25a4.29 4.29 0 011.35.19 2.78 2.78 0 012 2.75 4.17 4.17 0 01-.28 1.44l-5.25 14.38a2.67 2.67 0 01-.47.83 3.28 3.28 0 01-2.61 1.25h-6.5a.63.63 0 00-.05.09L23.48 48A23.83 23.83 0 0044 11 23.65 23.65 0 0023.09.45zM34.79 17l-5.31 14.53h3.8L38.59 17h-3.8z" transform="translate(-.33 -.41)"/><path class="cls-1" d="M23.09.45a23.82 23.82 0 0121.58 36A23.76 23.76 0 0123.5 48.07l4.8-13.29a.63.63 0 01.05-.09h6.51a3.28 3.28 0 002.61-1.25 2.67 2.67 0 00.47-.83l5.24-14.39a4.17 4.17 0 00.28-1.44 2.78 2.78 0 00-2-2.75 4.29 4.29 0 00-1.35-.19h-9.25L18.64 47.41a23.82 23.82 0 01-1-46.1v.14L5.61 34.58h5L17.07 17h3.8l-6.43 17.65c.17.05 4.59.07 5 0l.08-.19 5.91-16.23a4.61 4.61 0 00.28-1.16 2.83 2.83 0 00-2.29-3.16 5 5 0 00-1.12-.11h-4.04c.02-.18 4.37-12.23 4.83-13.35z" transform="translate(-.33 -.41)"/><path class="cls-1" d="M34.79 17h3.8l-5.31 14.53h-3.8z" transform="translate(-.33 -.41)"/></svg>