<svg xmlns="http://www.w3.org/2000/svg" xmlns:xlink="http://www.w3.org/1999/xlink" version="1.1" id="Layer_1" x="0px" y="0px" viewBox="0 0 131.26 51.6" style="enable-background:new 0 0 131.26 51.6;" xml:space="preserve" width="131.26"  height="51.6" >
<style type="text/css">
	.st0{fill:#575858;}
	.st1{fill:none;stroke:#575858;stroke-width:0.7458;stroke-miterlimit:10;}
	.st2{fill:#575858;stroke:#FFFFFF;stroke-width:0.5778;stroke-miterlimit:10;}
	.st3{opacity:0.3;fill:#575858;}
</style>
<g>
	<g>
		<path class="st0" d="M528.65,6.99h-24.73c-4.92,0-8.93,4.45-8.93,9.91v16.37c0,5.46,4.01,9.91,8.93,9.91h24.73    c4.92,0,8.93-4.45,8.93-9.91V16.9C537.58,11.44,533.57,6.99,528.65,6.99L528.65,6.99z M536.58,33.26c0,4.84-3.56,8.8-7.93,8.8    h-24.73c-4.37,0-7.93-3.95-7.93-8.8V16.9c0-4.84,3.56-8.8,7.93-8.8h24.73c4.37,0,7.93,3.95,7.93,8.8L536.58,33.26L536.58,33.26z"/>
		<path class="st0" d="M528.9,25.86V23.8H527l6.22-9.18h-9.18l-6.62,9.07h-1.91l6.27-8.96H513l-8.48,9.41h-5.22v1.84h5.32l7.98,8.8    h9.28l-6.32-8.85h1.96l6.72,8.85h9.13l-6.37-8.91H528.9L528.9,25.86z M549.77,14.95c0.5,0,0.9-0.11,1.3-0.33    c0.5,0.45,0.75,0.67,0.8,0.72c0.15,0.11,0.35,0.22,0.5,0.28l0.4-1.11c-0.35-0.17-0.67-0.4-0.95-0.67    c0.25-0.39,0.45-0.83,0.55-1.28c0.1-0.44,0.15-1,0.15-1.61c0-1.28-0.25-2.28-0.75-3.01c-0.5-0.67-1.2-1.06-2.01-1.06    c-0.85,0-1.51,0.33-2.01,1s-0.75,1.67-0.75,3.01c0,1.28,0.25,2.28,0.75,3.01C548.27,14.62,548.92,14.95,549.77,14.95L549.77,14.95    z M548.62,8.94c0.3-0.45,0.7-0.67,1.15-0.67c0.45,0,0.85,0.22,1.15,0.67c0.3,0.45,0.45,1.11,0.45,2c0,0.89-0.15,1.56-0.45,2    c-0.35-0.33-0.7-0.61-1.1-0.78l-0.3,0.89c0.25,0.11,0.45,0.28,0.7,0.5c-0.15,0.06-0.3,0.11-0.45,0.11c-0.45,0-0.8-0.22-1.1-0.67    c-0.3-0.45-0.45-1.11-0.45-2.06C548.17,10.05,548.32,9.38,548.62,8.94L548.62,8.94z M554.44,14.62c0.35,0.22,0.8,0.33,1.4,0.33    c0.55,0,1.05-0.17,1.41-0.45c0.35-0.28,0.6-0.67,0.7-1.11c0.1-0.45,0.15-1.22,0.15-2.28V7.05h-1.15v4.34c0,0.78-0.05,1.28-0.1,1.5    s-0.2,0.45-0.35,0.56c-0.19,0.14-0.42,0.22-0.65,0.22c-0.28,0-0.54-0.1-0.75-0.28c-0.2-0.17-0.3-0.45-0.35-0.78    c-0.05-0.22-0.05-0.61-0.05-1.28V7.05h-1.15v4.12c0,1.17,0.1,1.95,0.25,2.39C553.84,14.06,554.09,14.4,554.44,14.62L554.44,14.62z     M560.36,13.06h2.31l0.5,1.78h1.25l-2.31-7.79h-1.25l-2.26,7.79h1.25L560.36,13.06L560.36,13.06z M561.51,8.88l0.8,2.89h-1.61    L561.51,8.88L561.51,8.88z M569.09,13.5h-2.86V7.16h-1.15v7.68h4.01L569.09,13.5L569.09,13.5z"/>
		<path class="st0" d="M571.04,7.05h-1.16v7.79h1.15L571.04,7.05L571.04,7.05z"/>
		<path class="st0" d="M573.45,14.84h1.15V8.38h1.71V7.05h-4.57v1.34h1.71V14.84z M578.57,14.84h1.15v-3.29l2.11-4.51h-1.35    l-1.3,3.06l-1.35-3.06h-1.35l2.11,4.51L578.57,14.84L578.57,14.84z M585.39,13.06h2.31l0.5,1.78h1.25l-2.31-7.79h-1.25l-2.26,7.79    h1.25L585.39,13.06z M586.55,8.88l0.8,2.89h-1.56L586.55,8.88L586.55,8.88z"/>
		<path class="st0" d="M591.41,7.05h-1.15v7.79h1.15V7.05z"/>
		<path class="st0" d="M594.42,11.61h0.25c0.25,0,0.45,0.06,0.6,0.11c0.1,0.06,0.25,0.17,0.35,0.33c0.1,0.17,0.3,0.56,0.6,1.17    l0.85,1.67h1.4l-0.7-1.5c-0.21-0.43-0.43-0.86-0.65-1.28c-0.17-0.25-0.37-0.47-0.6-0.67c0.5-0.11,0.85-0.33,1.1-0.72    c0.25-0.39,0.4-0.83,0.4-1.45c0-0.5-0.1-0.89-0.25-1.22c-0.15-0.33-0.4-0.61-0.65-0.72c-0.25-0.11-0.7-0.22-1.35-0.22h-2.46v7.79    h1.15v-3.28H594.42z M594.42,8.38h0.9c0.5,0,0.85,0,0.95,0.06c0.15,0.06,0.25,0.17,0.35,0.33c0.1,0.17,0.15,0.33,0.15,0.61    s-0.05,0.45-0.15,0.61c-0.1,0.17-0.2,0.28-0.35,0.33c-0.15,0.06-0.5,0.06-1,0.06h-0.85V8.38z M602.75,12    c-0.1,0.56-0.25,1-0.5,1.28c-0.2,0.28-0.5,0.39-0.8,0.39c-0.4,0-0.75-0.22-1-0.61c-0.25-0.39-0.4-1.11-0.4-2.06s0.15-1.61,0.4-2    c0.25-0.39,0.6-0.61,1.05-0.61c0.3,0,0.55,0.11,0.75,0.33c0.2,0.22,0.35,0.56,0.45,0.95l1.15-0.39c-0.15-0.67-0.35-1.22-0.7-1.56    c-0.45-0.5-0.95-0.72-1.61-0.72c-0.8,0-1.41,0.33-1.91,1c-0.55,0.72-0.8,1.78-0.8,3.12c0,1.28,0.25,2.23,0.8,3.01    c0.45,0.61,1.05,0.95,1.81,0.95c0.6,0,1.1-0.22,1.51-0.61c0.4-0.39,0.7-1.06,0.85-1.89L602.75,12L602.75,12z M606.01,11.61h0.25    c0.25,0,0.45,0.06,0.6,0.11c0.1,0.06,0.25,0.17,0.35,0.33c0.1,0.17,0.3,0.56,0.6,1.17l0.85,1.67h1.41l-0.7-1.5    c-0.21-0.43-0.43-0.86-0.65-1.28c-0.17-0.25-0.37-0.47-0.6-0.67c0.5-0.11,0.85-0.33,1.1-0.72c0.25-0.39,0.4-0.83,0.4-1.45    c0-0.5-0.1-0.89-0.25-1.22c-0.15-0.33-0.4-0.61-0.65-0.72c-0.25-0.11-0.7-0.22-1.35-0.22h-2.51v7.79h1.15V11.61L606.01,11.61z     M606.01,8.38h0.9c0.5,0,0.85,0,0.95,0.06c0.15,0.06,0.25,0.17,0.35,0.33c0.1,0.17,0.15,0.33,0.15,0.61s-0.05,0.45-0.15,0.61    c-0.1,0.17-0.2,0.28-0.35,0.33c-0.15,0.06-0.5,0.06-1,0.06h-0.85V8.38L606.01,8.38z"/>
		<path class="st0" d="M611.78,13.06h2.31l0.5,1.78h1.25l-2.31-7.79h-1.25l-2.26,7.79h1.25L611.78,13.06L611.78,13.06z M612.88,8.88    l0.8,2.89h-1.56L612.88,8.88L612.88,8.88z M617.6,11.56h2.41v-1.34h-2.41V8.38h2.76V7.05h-3.91v7.79h1.15V11.56L617.6,11.56z     M622.62,14.84h1.15V8.38h1.71V7.05h-4.57v1.34h1.71V14.84z M630.54,13.67c-0.7,0-1.1-0.5-1.25-1.5l-1.1,0.17    c0.15,1.78,0.95,2.67,2.36,2.67c0.8,0,1.4-0.22,1.76-0.67c0.35-0.44,0.55-1,0.55-1.73c0-0.45-0.05-0.89-0.2-1.17    c-0.15-0.33-0.35-0.61-0.6-0.78c-0.25-0.22-0.7-0.39-1.25-0.61c-0.55-0.17-0.9-0.33-1.05-0.5c-0.15-0.17-0.25-0.33-0.25-0.56    s0.1-0.39,0.25-0.56c0.15-0.17,0.4-0.22,0.7-0.22s0.55,0.05,0.7,0.22c0.15,0.17,0.3,0.45,0.35,0.89l1.15-0.06    c0-0.78-0.2-1.34-0.6-1.73c-0.4-0.39-0.9-0.61-1.61-0.61c-0.45,0-0.85,0.11-1.15,0.28c-0.3,0.17-0.55,0.44-0.7,0.78    c-0.17,0.37-0.25,0.77-0.25,1.17c0,0.39,0.05,0.72,0.2,1c0.15,0.33,0.3,0.56,0.55,0.78c0.34,0.24,0.71,0.42,1.1,0.56    c0.55,0.17,0.9,0.33,1.05,0.39c0.07,0.02,0.13,0.06,0.18,0.11s0.09,0.11,0.12,0.17c0.05,0.11,0.1,0.28,0.1,0.45    c0,0.28-0.1,0.56-0.3,0.78C631.12,13.58,630.84,13.68,630.54,13.67L630.54,13.67z"/>
		<path class="st0" d="M634.91,7.05h-1.15v7.79h1.15V7.05z"/>
		<path class="st0" d="M637.12,9.77l2.36,5.07h1.15V7.05h-1.1v5.23l-2.36-5.23h-1.1v7.79h1.05V9.77L637.12,9.77z M644.99,13.23    c-0.2,0.28-0.5,0.39-0.8,0.39c-0.4,0-0.75-0.22-1-0.61c-0.25-0.39-0.4-1.11-0.4-2.06c0-0.95,0.15-1.61,0.4-2    c0.25-0.39,0.6-0.61,1.05-0.61c0.3,0,0.55,0.11,0.75,0.33c0.2,0.22,0.35,0.56,0.45,0.95l1.15-0.39c-0.15-0.67-0.35-1.22-0.7-1.56    c-0.4-0.5-0.95-0.72-1.61-0.72c-0.8,0-1.41,0.33-1.91,1c-0.55,0.72-0.8,1.78-0.8,3.12c0,1.28,0.25,2.23,0.8,3.01    c0.45,0.61,1.05,0.95,1.81,0.95c0.6,0,1.1-0.22,1.51-0.61c0.4-0.39,0.7-1.06,0.85-1.89l-1.05-0.5    C645.39,12.56,645.24,12.95,644.99,13.23L644.99,13.23z M651.97,13.5h-3.21v-2.12h2.91v-1.28h-2.91V8.38h3.11V7.05h-4.26v7.79    h4.36V13.5z M656.68,9.22v5.62h1.1V7.05h-0.9c-0.15,0.45-0.35,0.89-0.7,1.22c-0.35,0.33-0.65,0.61-0.95,0.72v1.34    C655.78,10.11,656.23,9.72,656.68,9.22L656.68,9.22z M661,12.22c0.2,0,0.4-0.06,0.55-0.17c0.15-0.11,0.35-0.28,0.45-0.5    c-0.05,0.89-0.15,1.45-0.3,1.73c-0.15,0.28-0.35,0.45-0.6,0.45c-0.35,0-0.55-0.28-0.6-0.89L659.44,13    c0.1,0.67,0.25,1.17,0.55,1.45c0.3,0.33,0.65,0.5,1.05,0.5c0.6,0,1.15-0.33,1.51-0.95c0.4-0.61,0.6-1.67,0.6-3.06    c0-1.39-0.2-2.39-0.55-3.01s-0.85-0.89-1.46-0.89c-0.5,0-0.95,0.22-1.3,0.72c-0.35,0.45-0.55,1.11-0.55,1.95    c0,0.78,0.15,1.39,0.5,1.84C660.14,12,660.55,12.22,661,12.22L661,12.22z M660.6,8.61c0.15-0.22,0.3-0.33,0.5-0.33    c0.2,0,0.4,0.11,0.55,0.39c0.15,0.28,0.25,0.61,0.25,1.11c0,0.45-0.05,0.78-0.2,1c-0.15,0.22-0.35,0.33-0.55,0.33    c-0.2,0-0.4-0.11-0.55-0.33c-0.15-0.22-0.2-0.61-0.2-1.11C660.39,9.16,660.45,8.83,660.6,8.61z M666.36,14.84h1.05v-1.56h0.7    v-1.34h-0.7v-4.9h-0.9l-2.51,4.9v1.34h2.36V14.84z M665.06,11.95l1.3-2.67v2.67L665.06,11.95L665.06,11.95z M672.18,11.39    c-0.15-0.33-0.4-0.56-0.75-0.72c0.25-0.17,0.45-0.33,0.6-0.61c0.15-0.28,0.2-0.61,0.2-1c0-0.56-0.15-1-0.45-1.39    s-0.7-0.56-1.25-0.56c-0.55,0-0.95,0.17-1.25,0.56c-0.3,0.33-0.45,0.83-0.45,1.45c0,0.39,0.05,0.72,0.2,0.95    c0.15,0.28,0.35,0.5,0.6,0.61c-0.3,0.17-0.55,0.39-0.7,0.72c-0.17,0.39-0.26,0.8-0.25,1.22c0,0.72,0.2,1.28,0.55,1.73    c0.35,0.45,0.8,0.61,1.35,0.61c0.35,0,0.65-0.11,0.95-0.28c0.3-0.17,0.5-0.5,0.65-0.83c0.15-0.39,0.25-0.78,0.25-1.28    C672.43,12.11,672.38,11.72,672.18,11.39L672.18,11.39z M670.08,8.49c0.06-0.07,0.14-0.13,0.22-0.17    c0.09-0.04,0.18-0.06,0.28-0.05c0.2,0,0.35,0.05,0.5,0.22c0.15,0.17,0.2,0.39,0.2,0.67c0,0.28-0.05,0.56-0.2,0.67    c-0.06,0.07-0.14,0.13-0.22,0.17c-0.09,0.04-0.18,0.06-0.28,0.05c-0.1,0-0.19-0.01-0.28-0.05c-0.09-0.04-0.16-0.1-0.22-0.17    c-0.15-0.17-0.2-0.39-0.2-0.67C669.88,8.88,669.93,8.66,670.08,8.49L670.08,8.49z M671.13,13.45c-0.15,0.22-0.35,0.33-0.55,0.33    s-0.4-0.11-0.55-0.33c-0.15-0.22-0.25-0.56-0.25-0.95c0-0.33,0.1-0.67,0.25-0.89c0.15-0.22,0.35-0.33,0.55-0.33    s0.4,0.11,0.55,0.33c0.15,0.22,0.25,0.5,0.25,0.89C671.33,12.89,671.28,13.23,671.13,13.45L671.13,13.45z M563.92,42.51h15.55    l0.85-4.62h-9.83l0.75-4.01h8.83l0.75-4.18H572l0.55-3.28h9.53l0.8-4.34h-15.25L563.92,42.51z M600.19,22.46    c-1.15-1.06-2.86-1.56-5.22-1.56c-2.96,0-5.42,0.89-7.37,2.73c-1.96,1.84-3.21,5.51-3.86,8.91c-0.45,2.56-0.35,4.62,0.25,6.23    c0.65,1.61,1.51,2.78,2.66,3.4c1.15,0.67,2.76,0.95,4.77,0.95c1.66,0,3.01,0,4.16-0.5c1.15-0.56,2.71-1.22,3.51-2.34    c2.56-3.45,2.26-3.95,2.86-5.51c0.15-0.17-5.32-0.22-5.32-0.22c-0.5,1.28-1.25,2.39-1.96,3.06c-0.7,0.67-1.66,0.78-2.76,0.78    s-1.91-0.45-2.41-1.28c-0.45-0.84-0.5-2.39-0.1-4.68c0.35-1.84,0.85-4.29,1.51-5.12c0.9-1.17,2.01-1.73,3.31-1.73    c0.55,0,1.05,0.11,1.51,0.39c0.4,0.28,0.75,0.61,0.95,1.11c0.15,0.28,0.25,1.39,0.3,2l5.52,0.06    C602.85,26.08,601.35,23.52,600.19,22.46L600.19,22.46z M619.66,22.08l-2.01,11.3l-4.92-11.3h-5.32l-3.66,20.43h5.37l2.01-11.24    l4.87,11.24h5.37l3.71-20.43H619.66z M634.46,21.91l-10.64,20.48h5.82l1.56-3.4h6.47l0.3,3.4h5.97l-3.21-20.48H634.46    L634.46,21.91z M633.15,34.6l3.36-7.35l0.7,7.35H633.15L633.15,34.6z M658.69,34.66l-0.6-12.47h-7.52l-3.71,20.48h4.67l2.81-15.64    l0.8,15.64h4.22l6.42-15.64l-2.81,15.64h4.67l3.66-20.49h-7.48L658.69,34.66L658.69,34.66z M546.91,22.19l-0.9,5.07h5.82    l-2.81,15.42h5.72l2.76-15.42h5.82l0.9-5.07H546.91L546.91,22.19z"/>
		<path class="st1" d="M678.35,31.94c2.51,0,4.55-2.04,4.55-4.55s-2.04-4.55-4.55-4.55c-2.51,0-4.55,2.04-4.55,4.55    S675.84,31.94,678.35,31.94z"/>
		<path class="st0" d="M676.98,29.66v-4.55h1.72c0.43,0,0.75,0.04,0.94,0.12c0.2,0.08,0.35,0.23,0.47,0.43    c0.12,0.21,0.18,0.45,0.18,0.72c0,0.34-0.09,0.62-0.27,0.85c-0.18,0.22-0.45,0.36-0.8,0.42c0.18,0.12,0.32,0.24,0.44,0.38    c0.12,0.14,0.27,0.38,0.47,0.74l0.49,0.89h-0.98l-0.59-0.99c-0.21-0.35-0.35-0.58-0.43-0.67c-0.06-0.08-0.15-0.15-0.25-0.19    c-0.09-0.04-0.22-0.05-0.41-0.05h-0.17v1.9H676.98z M677.8,27.04h0.61c0.39,0,0.64-0.02,0.73-0.06c0.1-0.04,0.18-0.1,0.23-0.19    c0.06-0.1,0.09-0.22,0.08-0.34c0.01-0.13-0.03-0.26-0.11-0.37c-0.08-0.1-0.18-0.16-0.31-0.18c-0.2-0.01-0.4-0.02-0.6-0.02h-0.64    V27.04z"/>
	</g>
</g>
<g id="temp_5_">
	<polyline class="st2" points="1.26,10.48 11.23,20.13 1.26,29.54 1.26,10.48  "/>
	<g>
		<polyline class="st2" points="1.26,10.48 17.78,0.94 11.23,20.13 1.26,10.48   "/>
		<polyline class="st2" points="1.26,29.54 11.23,20.13 17.78,39.08 1.26,29.54   "/>
		<polyline class="st2" points="34.3,29.54 23.53,27.84 17.78,39.08 34.3,29.54   "/>
		<polyline class="st2" points="11.23,20.13 17.78,39.08 23.53,27.84 11.23,20.13   "/>
		<polyline class="st2" points="17.78,0.94 11.23,20.13 28.97,15.16 17.78,0.94   "/>
		<polyline class="st2" points="11.23,20.13 23.53,27.84 28.97,15.16 11.23,20.13   "/>
		<polyline class="st2" points="28.97,15.16 23.53,27.84 34.3,29.54 28.97,15.16   "/>
		<polyline class="st2" points="28.97,15.16 17.78,0.94 34.3,10.48 28.97,15.16   "/>
		<polyline class="st2" points="34.3,29.54 28.97,15.16 34.3,10.48 34.3,29.54   "/>
		<path class="st0" d="M61.37,10.54h-7.37l-5.99,7.2v-7.2H42v19.03h6.04v-4.51l2.81-3.09l4.18,7.6h6.81l-7.09-11.82L61.37,10.54z     M72.58,15.26c-3.09,0-4.13,1.57-4.59,2.21v-1.86h-5.26v13.96h5.57v-7.43c0-0.76,0.06-2.3,2.02-2.3c1.86,0,1.86,1.4,1.86,2.1v7.62    h5.57v-8.81c0-1.05-0.08-2.92-1.4-4.21C75.32,15.64,73.96,15.17,72.58,15.26L72.58,15.26z M87.86,15.01    c-5.16,0-8.26,3.09-8.26,7.69c0,3.75,2.32,7.43,7.97,7.43c5.29,0,8.34-3.09,8.34-7.5c0.03-2.07-0.75-4.07-2.18-5.57    c-1.08-1.05-3.02-2.02-5.87-2.05L87.86,15.01z M87.72,26.24c-2.27,0-2.59-2.35-2.59-3.71c0-1.57,0.46-3.56,2.57-3.61    c2.53-0.08,2.59,2.72,2.59,3.56C90.32,24.62,89.7,26.24,87.72,26.24L87.72,26.24z M106.75,15.23c-2.4,0-3.32,1.03-3.71,1.46v-1.08    h-5.43v19.06h5.48v-6.02c0.46,0.43,1.35,1.3,3.62,1.3c4.21,0,6.15-3.19,6.15-7.26C112.85,19.01,111.26,15.23,106.75,15.23    L106.75,15.23z M106.59,25.43c-0.78,0.79-2.04,0.79-2.83,0.02c-0.25-0.24-0.43-0.55-0.52-0.89c-0.19-0.62-0.27-1.27-0.24-1.92    c0-0.78,0-2.05,0.81-2.8c0.4-0.38,0.93-0.59,1.49-0.57c1.97,0.06,2.08,2.38,2.08,3.48C107.46,23.72,107.18,24.68,106.59,25.43    L106.59,25.43z M123.89,15.23c-2.4,0-3.32,1.03-3.71,1.46v-1.08h-5.43v19.06h5.48v-6.02c0.46,0.43,1.35,1.3,3.62,1.3    c4.21,0,6.15-3.19,6.15-7.26C129.99,19.01,128.39,15.23,123.89,15.23L123.89,15.23z M123.74,25.43c-0.78,0.79-2.04,0.79-2.83,0.02    c-0.25-0.24-0.43-0.55-0.52-0.89c-0.19-0.62-0.27-1.27-0.24-1.92c0-0.78,0-2.05,0.81-2.8c0.4-0.38,0.93-0.59,1.49-0.57    c1.97,0.06,2.08,2.38,2.08,3.48C124.61,23.72,124.33,24.68,123.74,25.43z"/>
		<path class="st0" d="M50.14,43.69c1.19-0.37,1.99-1.5,1.94-2.75c0-1.97-1.53-2.91-2.8-3.16c-0.56-0.08-1.13-0.11-1.7-0.09h-5.21    v12.68h4.95c1.87,0,2.74,0,3.74-0.67c0.94-0.63,1.48-1.71,1.42-2.84C52.58,45.38,51.59,44.04,50.14,43.69z M43.95,39.19h3.93    c0.68,0,2.42,0.04,2.42,1.85c0.01,0.4-0.1,0.8-0.32,1.13c-0.57,0.86-1.47,0.86-3.39,0.86h-2.64V39.19z M49.27,48.77    c-0.52,0.1-1.04,0.14-1.56,0.11h-3.75v-4.41h3.1c1.56,0,1.96,0.03,2.46,0.25c0.78,0.37,1.26,1.17,1.22,2.03    C50.74,47.73,50.34,48.51,49.27,48.77L49.27,48.77z M53.7,39.35h1.38V37.7H53.7V39.35z M53.7,50.37h1.38v-8.46H53.7V50.37z     M60.57,41.65c-3.29,0-4.22,2.67-4.22,4.56c0,2.23,1.24,4.42,4.16,4.42c2.59,0,4.11-1.92,4.13-4.49    C64.66,43.82,63.37,41.65,60.57,41.65L60.57,41.65z M63.08,46.13c0,0.86-0.2,3.32-2.59,3.32c-1.85,0-2.58-1.47-2.58-3.25    c0-1.94,0.77-3.43,2.69-3.43c0.97,0,2.07,0.47,2.37,2.16C63.06,45.33,63.1,45.73,63.08,46.13L63.08,46.13z M70.48,45.52l-0.81-0.2    c-1.11-0.27-2.03-0.52-2.03-1.33c0-0.57,0.56-1.24,1.67-1.24c0.58-0.02,1.16,0.16,1.63,0.5c0.43,0.31,0.66,0.83,0.61,1.37    l1.55-0.2c-0.29-1.99-2.01-2.76-3.63-2.76c-1.96,0-3.27,0.95-3.27,2.51c0,1.76,1.67,2.14,3.03,2.46l0.81,0.16    c1.02,0.2,1.76,0.38,1.76,1.35s-0.73,1.4-1.99,1.4c-0.61,0.06-1.22-0.11-1.71-0.47c-0.46-0.42-0.7-1.03-0.63-1.65l-1.62,0.25    c0.07,0.91,0.53,1.74,1.26,2.29c0.78,0.48,1.7,0.72,2.62,0.68c2.34,0,3.56-1.29,3.56-2.67C73.3,46.19,71.49,45.76,70.48,45.52    L70.48,45.52z M78.76,49.53c-0.85,0.03-1.65-0.4-2.1-1.13c-0.4-0.69-0.59-1.48-0.55-2.28c0-0.75,0.1-3.43,2.56-3.43    c1.16-0.06,2.16,0.79,2.28,1.94l1.58-0.15c-0.55-2.37-2.55-2.84-3.91-2.84c-2.82,0-4.1,2.17-4.1,4.58c0,2.08,1.11,4.4,4.22,4.4    c1.56,0,2.77-0.58,3.47-1.87c0.24-0.44,0.4-0.92,0.47-1.42l-1.55-0.14C81.06,47.84,80.83,49.53,78.76,49.53L78.76,49.53z     M83.92,50.37h1.38v-8.46h-1.38V50.37z M83.92,39.35h1.38V37.7h-1.38V39.35z M94.35,44.64c-0.34-1.77-1.91-3.04-3.72-3    c-1.8,0-4.1,1.22-4.1,4.42c0,2.84,1.64,4.56,4.15,4.56c1.78,0.06,3.37-1.12,3.83-2.84l-1.46-0.19c-0.25,1.13-0.97,1.97-2.24,1.97    c-2.01,0-2.77-1.76-2.73-3.18h6.43c0.01-0.58-0.05-1.17-0.18-1.74H94.35z M88.11,45.34c0.17-1.71,1.19-2.6,2.41-2.6    c0.7,0,2.3,0.37,2.42,2.6H88.11z M99.83,41.65c-1.09-0.02-2.1,0.56-2.64,1.51v-1.24h-1.42v8.46h1.42v-4.83    c-0.08-0.69,0.15-1.39,0.63-1.9c0.43-0.43,1.01-0.66,1.62-0.64c0.8-0.06,1.53,0.42,1.81,1.17c0.1,0.47,0.13,0.95,0.09,1.42v4.81    h1.42v-5.08c0.03-0.58-0.02-1.17-0.15-1.74c-0.38-1.21-1.53-2-2.8-1.94H99.83z M108.21,49.53c-0.85,0.03-1.65-0.4-2.1-1.13    c-0.4-0.69-0.59-1.48-0.55-2.28c0-0.75,0.11-3.43,2.56-3.43c1.16-0.07,2.16,0.79,2.28,1.94l1.58-0.15    c-0.56-2.37-2.55-2.84-3.92-2.84c-2.82,0-4.09,2.17-4.09,4.58c0,2.08,1.11,4.4,4.22,4.4c1.56,0,2.76-0.58,3.47-1.87    c0.24-0.44,0.4-0.92,0.47-1.42l-1.55-0.14c-0.09,0.66-0.33,2.35-2.39,2.35H108.21z M121.18,44.64c-0.34-1.77-1.91-3.04-3.72-3    c-1.79,0-4.09,1.22-4.09,4.42c0,2.84,1.63,4.56,4.15,4.56c1.78,0.06,3.36-1.12,3.82-2.84l-1.45-0.19    c-0.25,1.13-0.97,1.97-2.25,1.97c-2.01,0-2.76-1.76-2.73-3.18h6.43c0.01-0.58-0.05-1.17-0.18-1.74H121.18z M114.95,45.34    c0.16-1.71,1.19-2.6,2.41-2.6c0.7,0,2.29,0.37,2.42,2.6H114.95z M127.18,45.52l-0.81-0.2c-1.11-0.27-2.03-0.52-2.03-1.33    c0-0.57,0.56-1.24,1.67-1.24c0.59-0.02,1.16,0.16,1.64,0.5c0.43,0.31,0.66,0.83,0.61,1.37l1.55-0.2    c-0.29-1.99-2.01-2.76-3.63-2.76c-1.95,0-3.27,0.95-3.27,2.51c0,1.76,1.67,2.14,3.03,2.46l0.81,0.16c1.02,0.2,1.76,0.38,1.76,1.35    s-0.73,1.4-1.99,1.4c-0.61,0.06-1.22-0.11-1.71-0.47c-0.47-0.41-0.7-1.03-0.63-1.65l-1.62,0.25c0.08,0.91,0.53,1.74,1.26,2.29    c0.79,0.48,1.7,0.72,2.62,0.68c2.34,0,3.56-1.29,3.56-2.67c-0.01-1.79-1.82-2.22-2.83-2.45H127.18z"/>
	</g>
</g>
<g>
	<path class="st3" d="M875.91,46.36c0,0-6.56-6.66-7.24-13.69c-0.68-7.03,4.6-12.21,10.73-16.15c6.12-3.95,11.87-9.76,12.51-13.37   c0,0,6.24,16.88-2.15,24.66C881.6,35.37,875.57,40.81,875.91,46.36z"/>
	<g>
		<g>
			<path class="st0" d="M904.24,35.94l0.51,3.03c-0.99,0.2-1.87,0.31-2.65,0.31c-1.27,0-2.26-0.2-2.96-0.59     c-0.7-0.39-1.19-0.91-1.48-1.55c-0.29-0.64-0.43-1.99-0.43-4.05V21.42h-2.57v-2.67h2.57v-5.02l3.48-2.06v7.08h3.52v2.67h-3.52     v11.85c0,0.98,0.06,1.61,0.18,1.89c0.12,0.28,0.32,0.5,0.6,0.67c0.28,0.17,0.68,0.25,1.2,0.25     C903.09,36.07,903.6,36.03,904.24,35.94z"/>
			<path class="st0" d="M920.89,32.49l3.62,0.44c-0.57,2.07-1.63,3.68-3.17,4.83c-1.54,1.14-3.52,1.72-5.92,1.72     c-3.02,0-5.42-0.91-7.19-2.74s-2.66-4.38-2.66-7.68c0-3.41,0.9-6.05,2.69-7.94s4.11-2.82,6.97-2.82c2.76,0,5.02,0.92,6.78,2.77     c1.75,1.84,2.63,4.44,2.63,7.78c0,0.2-0.01,0.51-0.02,0.92h-15.42c0.13,2.23,0.77,3.93,1.93,5.11c1.15,1.18,2.6,1.77,4.32,1.77     c1.28,0,2.38-0.33,3.29-0.99C919.64,34.99,920.36,33.94,920.89,32.49z M909.39,26.94h11.55c-0.16-1.7-0.6-2.98-1.32-3.83     c-1.12-1.32-2.56-1.98-4.34-1.98c-1.61,0-2.96,0.53-4.06,1.58C910.11,23.76,909.5,25.17,909.39,26.94z"/>
			<path class="st0" d="M927.95,39.01V18.75h3.15v3.07c0.8-1.44,1.55-2.38,2.23-2.84c0.68-0.46,1.43-0.69,2.25-0.69     c1.18,0,2.38,0.37,3.6,1.11l-1.21,3.19c-0.86-0.5-1.71-0.74-2.57-0.74c-0.77,0-1.45,0.23-2.06,0.68     c-0.61,0.45-1.04,1.08-1.3,1.88c-0.39,1.22-0.58,2.56-0.58,4.01v10.61H927.95z"/>
			<g>
				<path class="st0" d="M888.88,36.51c-1.3,1.08-2.55,1.85-3.76,2.29c-1.2,0.45-2.49,0.67-3.87,0.67c-2.28,0-4.03-0.55-5.25-1.63      c-1.22-1.09-1.83-2.48-1.83-4.18c0-0.99,0.23-1.9,0.69-2.72c0.46-0.82,1.07-1.48,1.81-1.98c0.75-0.5,1.59-0.87,2.53-1.13      c0.69-0.18,1.73-0.35,3.12-0.52c2.84-0.33,4.92-0.73,6.26-1.19c0.01-0.47,0.02-0.77,0.02-0.9c0-1.4-0.33-2.39-0.99-2.96      c-0.9-0.78-2.23-1.17-4-1.17c-1.65,0-2.87,0.28-3.66,0.85c-0.79,0.57-1.37,1.57-1.75,3.01l-3.43-0.46      c0.31-1.44,0.83-2.6,1.54-3.49c0.72-0.89,1.75-1.57,3.1-2.05s2.92-0.72,4.7-0.72c1.77,0,3.21,0.2,4.31,0.61      c1.11,0.41,1.92,0.92,2.44,1.54c0.52,0.62,0.88,1.4,1.09,2.34c0.12,0.59,0.18,1.64,0.18,3.17v4.59c0,3.2,0.07,5.22,0.22,6.07      c0.15,0.85,0.45,1.66,0.89,2.44h-3.67C889.22,38.3,888.98,37.46,888.88,36.51z M888.58,28.82c-1.27,0.51-3.19,0.94-5.74,1.3      c-1.44,0.2-2.47,0.43-3.06,0.69c-0.6,0.26-1.06,0.63-1.39,1.12c-0.33,0.49-0.49,1.04-0.49,1.63c0,0.92,0.35,1.68,1.06,2.29      c0.71,0.61,1.75,0.92,3.11,0.92c1.35,0,2.56-0.29,3.61-0.87c1.05-0.58,1.83-1.37,2.32-2.38c0.38-0.78,0.57-1.92,0.57-3.44V28.82      z"/>
			</g>
		</g>
	</g>
	<g>
		<g>
			<path class="st0" d="M790.49,18.66h7.38v3.3c1.1-1.35,2.22-2.31,3.35-2.89c1.13-0.58,2.51-0.87,4.13-0.87     c2.19,0,3.91,0.64,5.15,1.92c1.24,1.28,1.86,3.25,1.86,5.92v12.88h-7.96V27.77c0-1.27-0.24-2.17-0.72-2.7     c-0.48-0.53-1.16-0.79-2.02-0.79c-0.96,0-1.74,0.36-2.34,1.07c-0.6,0.71-0.9,1.99-0.9,3.83v9.73h-7.92V18.66z"/>
			<path class="st0" d="M837.29,30.71H821.4c0.14,1.25,0.49,2.17,1.03,2.79c0.77,0.88,1.76,1.32,3,1.32c0.78,0,1.52-0.19,2.22-0.57     c0.43-0.24,0.89-0.67,1.38-1.28l7.81,0.71c-1.19,2.03-2.63,3.49-4.32,4.38c-1.69,0.88-4.11,1.33-7.26,1.33     c-2.74,0-4.89-0.38-6.46-1.14c-1.57-0.76-2.87-1.96-3.9-3.61c-1.03-1.65-1.55-3.58-1.55-5.81c0-3.17,1.03-5.73,3.11-7.69     c2.07-1.96,4.93-2.94,8.58-2.94c2.96,0,5.3,0.44,7.01,1.32c1.71,0.88,3.02,2.15,3.91,3.81c0.9,1.67,1.34,3.83,1.34,6.5V30.71z      M829.23,26.99c-0.16-1.5-0.57-2.58-1.24-3.22c-0.67-0.65-1.55-0.97-2.64-0.97c-1.26,0-2.27,0.49-3.02,1.47     c-0.48,0.61-0.79,1.52-0.92,2.73H829.23z"/>
			<path class="st0" d="M835.86,18.66h7.66l3.31,12.75l4.19-12.75h7.16l4.37,12.79l3.33-12.79h7.61l-7.62,20.26h-7.05l-4.19-12.19     l-4.05,12.19h-7.08L835.86,18.66z"/>
		</g>
	</g>
</g>
<g>
	<path class="st0" d="M261.04,15.51c0-0.38,0-0.65,0-0.93c0-4.4,0-8.79,0-13.19c0-1.06,0.85-1.98,1.85-2.01   c1.02-0.03,1.95,0.87,1.95,1.97c0.01,7.01,0,14.02,0,21.04c0,0.04-0.02,0.08-0.05,0.25c-0.2-0.18-0.37-0.31-0.52-0.46   c-2.49-2.45-5.48-3.68-8.97-3.64c-5.77,0.07-10.84,4.76-11.46,10.45c-0.41,3.83,0.63,7.14,3.27,9.9c1.98,2.06,4.47,3.24,7.33,3.5   c3.14,0.29,6.06-0.4,8.6-2.35c2.55-1.96,4.04-4.56,4.43-7.76c0.11-0.93,0.12-1.88,0.12-2.82c0.01-9.28,0-18.57,0.01-27.85   c0-1.25,0.78-2.07,1.96-2.05c0.93,0.01,1.72,0.72,1.84,1.65c0.01,0.11,0.01,0.21,0.01,0.32c0,9.84,0.04,19.69-0.03,29.53   c-0.03,3.92-1.5,7.34-4.16,10.24c-2.42,2.64-5.4,4.27-8.91,4.82c-4.59,0.73-8.77-0.31-12.44-3.21c-3.41-2.69-5.4-6.23-5.88-10.53   c-0.51-4.62,0.82-8.72,3.9-12.23c2.57-2.93,5.79-4.68,9.63-5.34c2.29-0.39,4.52-0.05,6.74,0.52   C260.47,15.39,260.67,15.43,261.04,15.51z"/>
	<path class="st0" d="M304.56,30.4c0.02,4.88-1.83,8.95-5.46,12.19c-5.4,4.82-13.67,5.03-19.42,0.54   c-5.75-4.49-7.8-12.39-4.88-19.08c2.38-5.46,6.56-8.71,12.46-9.49c4.49-0.59,8.51,0.76,11.94,3.76c3.14,2.75,4.87,6.24,5.36,10.35   C304.62,29.24,304.56,29.82,304.56,30.4z M289.41,42.48c0.47-0.06,1.29-0.1,2.08-0.28c5-1.11,8.69-5.3,9.2-10.46   c0.45-4.46-1.08-8.14-4.54-10.95c-4.86-3.94-11.95-3.09-16.01,1.75c-4.12,4.92-3.67,12.76,1.34,17.08   C283.67,41.52,286.19,42.44,289.41,42.48z"/>
	<path class="st0" d="M246.5,30.6c-0.09-4.88,3.96-9.19,9.15-9.26c4.97-0.08,9.21,4.25,9.2,9.31c-0.01,5.05-4.19,9.27-9.18,9.25   C250.51,39.87,246.4,35.57,246.5,30.6z M261.01,30.53c-0.01-3.01-2.34-5.35-5.33-5.35c-3.04,0-5.37,2.33-5.37,5.37   c0,3.03,2.36,5.37,5.38,5.36C258.67,35.9,261.02,33.53,261.01,30.53z"/>
	<path class="st0" d="M355.06,27.08c0.16-0.13,0.47-0.34,0.75-0.58c1.63-1.38,4.04-1.33,5.33,0.16c0.31,0.36,0.52,0.82,0.85,1.36   c0.37-0.36,0.69-0.68,1.02-1c1.26-1.19,2.75-1.7,4.48-1.45c1.9,0.28,3.32,2.13,2.91,4.02c-0.55,2.57-1.25,5.11-1.91,7.66   c-0.08,0.3-0.28,0.58-0.49,0.82c-0.44,0.49-1.09,0.58-1.64,0.26c-0.56-0.32-0.62-0.84-0.48-1.39c0.45-1.74,0.94-3.47,1.36-5.22   c0.16-0.68,0.22-1.39,0.2-2.09c-0.02-0.84-0.55-1.37-1.37-1.55c-1.45-0.33-2.98,0.34-3.61,1.81c-0.53,1.23-0.85,2.55-1.22,3.84   c-0.32,1.11-0.55,2.25-0.92,3.34c-0.16,0.47-0.49,0.99-0.9,1.24c-0.32,0.2-0.91,0.12-1.31-0.03c-0.47-0.17-0.55-0.69-0.45-1.16   c0.23-1.02,0.51-2.03,0.76-3.05c0.28-1.12,0.6-2.24,0.81-3.37c0.16-0.85,0.17-1.76-0.68-2.31c-0.93-0.6-1.94-0.52-2.87-0.01   c-0.87,0.48-1.5,1.24-1.78,2.2c-0.59,2.01-1.12,4.05-1.68,6.06c-0.11,0.41-0.27,0.82-0.47,1.19c-0.3,0.57-1.03,0.82-1.6,0.62   c-0.55-0.2-0.87-0.73-0.71-1.41c0.32-1.4,0.7-2.78,1.07-4.17c0.5-1.9,0.99-3.81,1.54-5.71c0.12-0.43,0.37-0.89,0.69-1.19   c0.4-0.39,1.03-0.51,1.49-0.17C354.56,26.05,354.73,26.56,355.06,27.08z"/>
	<path class="st0" d="M291.78,0.97c5.64,0.13,10.67,1.92,15.13,5.39c2.69,2.09,4.71,4.7,6.25,7.7c0.38,0.74,0.05,1.73-0.72,2.15   c-0.75,0.41-1.73,0.08-2.18-0.78c-0.91-1.74-2.03-3.3-3.39-4.72c-2.95-3.08-6.52-5.02-10.66-5.92c-3.46-0.75-6.88-0.67-10.26,0.47   c-1.01,0.34-1.85-0.13-2.17-1.12c-0.27-0.84,0.18-1.66,1.13-2.01C287.13,1.33,289.42,0.97,291.78,0.97z"/>
	<path class="st0" d="M326.51,38.67c-4.05,0.01-6.62-3.26-5.72-7.27c0.84-3.74,4.33-6.25,8.13-5.84c2.72,0.29,4.78,2.6,4.9,5.33   C334.01,35.04,330.45,38.68,326.51,38.67z M331.11,31.09c-0.02-1.01-0.35-2.13-1.51-2.76c-1.28-0.7-2.63-0.66-3.85,0.13   c-1.65,1.07-2.43,2.63-2.39,4.62c0.05,2.13,1.62,3.5,3.74,3.2C329.33,35.96,331.11,33.76,331.11,31.09z"/>
	<path class="st0" d="M291.79,7.78c3.85,0.12,7.76,1.61,11.19,4.42c1.74,1.42,3.05,3.16,4,5.18c0.4,0.84,0.17,1.67-0.51,2.09   c-0.76,0.46-1.6,0.2-2.14-0.61c-0.69-1.03-1.36-2.07-2.13-3.03c-1.43-1.76-3.29-2.98-5.38-3.81c-2.88-1.15-5.86-1.34-8.89-0.73   c-0.37,0.07-0.79,0.11-1.13,0.01c-0.59-0.17-0.97-0.62-1.02-1.26c-0.05-0.64,0.23-1.14,0.81-1.41   C288.03,7.93,289.61,7.8,291.79,7.78z"/>
	<path class="st0" d="M378.62,38.67c-1.73-0.04-3.26-0.62-4.65-1.64c-0.57-0.42-0.68-1.08-0.31-1.64c0.36-0.55,0.89-0.64,1.56-0.24   c0.42,0.25,0.81,0.55,1.24,0.79c0.99,0.56,2.08,0.64,3.18,0.54c0.68-0.06,1.32-0.6,1.43-1.12c0.16-0.74-0.02-1.16-0.83-1.61   c-0.82-0.45-1.71-0.78-2.54-1.22c-2.18-1.14-2.72-2.93-1.4-5c0.41-0.64,1.12-1.22,1.82-1.53c2.29-1,4.49-0.46,6.55,0.77   c0.58,0.35,0.67,1.07,0.28,1.64c-0.36,0.54-0.97,0.68-1.56,0.26c-0.86-0.61-1.79-1.01-2.85-1.04c-0.42-0.01-0.85,0.05-1.26,0.16   c-0.6,0.16-0.93,0.6-1.01,1.2c-0.08,0.61,0.27,1.03,0.77,1.29c0.78,0.4,1.61,0.72,2.36,1.16c0.64,0.37,1.31,0.78,1.77,1.34   c1.07,1.29,0.61,3.63-0.78,4.71C381.27,38.35,380.01,38.7,378.62,38.67z"/>
	<path class="st0" d="M315.34,25.77c0.65,0,1.31-0.03,1.97,0.01c1.01,0.05,1.53,1.01,0.94,1.82c-0.18,0.25-0.59,0.43-0.91,0.46   c-0.68,0.07-1.37,0.06-2.05,0.01c-0.55-0.04-0.74,0.19-0.86,0.68c-0.68,2.65-1.39,5.3-2.11,7.94c-0.11,0.41-0.28,0.81-0.51,1.16   c-0.4,0.62-1.06,0.8-1.67,0.54c-0.54-0.24-0.76-0.7-0.59-1.46c0.25-1.1,0.56-2.2,0.86-3.29c0.44-1.63,0.88-3.27,1.31-4.9   c0.05-0.18,0.06-0.37,0.1-0.59c-0.17-0.03-0.29-0.05-0.41-0.08c-0.61-0.12-1-0.58-0.98-1.16c0.01-0.57,0.46-1.16,1.04-1.11   c0.99,0.1,1.15-0.44,1.34-1.23c0.74-2.92,3.1-4.36,5.91-3.7c0.82,0.19,1.19,0.69,1.05,1.41c-0.15,0.73-0.65,1.02-1.51,0.83   C316.46,22.73,315.33,23.96,315.34,25.77z"/>
	<path class="st0" d="M342.7,28.17c0.53-0.58,0.88-1.12,1.36-1.47c0.61-0.44,1.3-0.8,2.01-1.06c0.65-0.23,1.23,0.14,1.44,0.74   c0.21,0.59-0.04,1.31-0.58,1.62c-0.2,0.12-0.42,0.24-0.64,0.3c-2.94,0.68-4.44,2.69-5.16,5.46c-0.28,1.1-0.55,2.2-0.9,3.28   c-0.14,0.43-0.42,0.85-0.75,1.16c-0.42,0.41-0.97,0.42-1.48,0.1c-0.46-0.28-0.59-0.72-0.47-1.22c0.56-2.16,1.12-4.31,1.7-6.46   c0.33-1.24,0.65-2.48,1.02-3.72c0.27-0.9,0.75-1.27,1.48-1.26c0.77,0.01,1.26,0.6,1.14,1.37C342.84,27.34,342.78,27.67,342.7,28.17   z"/>
	<path class="st0" d="M298.04,30.42c0.04,4.98-3.99,9.32-9.07,9.33c-4.88,0.01-8.89-4.28-8.89-9.38c0.01-5.15,4.07-9.32,9.07-9.31   C294,21.07,298.05,25.33,298.04,30.42z M289.08,24.97c-2.76-0.16-5.14,2.32-5.18,5.33c-0.04,2.98,2.33,5.54,5.09,5.55   c2.82,0.01,5.22-2.51,5.24-5.5C294.25,27.41,291.93,24.98,289.08,24.97z"/>
</g>
<path class="st0" d="M1069.9,33.12l8.82-1.8v3.23c-2.54,2.89-6.15,4.53-10.01,4.53c-7.38,0-13.38-6.01-13.38-13.36  c0-7.38,6.01-13.38,13.38-13.38c4.02,0,7.72,1.75,10.28,4.83v2.38h7.59V4.8h-7.59v2.24c-3.14-1.73-6.67-2.65-10.28-2.65  c-11.76,0-21.32,9.56-21.32,21.32s9.56,21.32,21.32,21.32c3.52,0,6.94-0.87,10.01-2.51v2.04h8.17V29.64l3.48-0.7v-8.4l-20.47,4.18  V33.12L1069.9,33.12z M1104.27,11.31c0.56,0,1.09,0.07,1.54,0.26c0.45,0.19,0.82,0.41,1.16,0.67c0.34,0.3,0.6,0.6,0.79,0.97  c0.19,0.37,0.34,0.75,0.41,1.16l-2.43,0.75c-0.04-0.11-0.07-0.26-0.11-0.41c-0.04-0.15-0.15-0.3-0.26-0.45  c-0.11-0.11-0.26-0.26-0.45-0.34c-0.19-0.11-0.37-0.15-0.64-0.15s-0.49,0.04-0.67,0.15c-0.19,0.07-0.34,0.19-0.41,0.34  c-0.11,0.15-0.19,0.3-0.22,0.45c-0.04,0.15-0.07,0.3-0.07,0.45v4.61c0,0.45,0.11,0.86,0.3,1.16c0.22,0.34,0.56,0.49,1.05,0.49  c0.56,0,0.94-0.15,1.16-0.41s0.34-0.6,0.34-0.97v-0.97h-1.69v-2.14h4.23v2.7c0,0.64-0.07,1.24-0.26,1.76  c-0.15,0.52-0.41,0.97-0.75,1.35c-0.34,0.37-0.75,0.67-1.27,0.9s-1.09,0.3-1.76,0.3c-0.71,0-1.31-0.11-1.84-0.34  s-0.9-0.52-1.24-0.94c-0.3-0.37-0.56-0.82-0.71-1.35c-0.15-0.52-0.22-1.05-0.22-1.61v-4.42c0-0.45,0.07-0.94,0.22-1.39  c0.15-0.49,0.37-0.9,0.67-1.27c0.3-0.37,0.71-0.71,1.24-0.94C1102.92,11.46,1103.52,11.31,1104.27,11.31 M1117.09,23.82l-1.69-4.91  h-1.09v4.91h-2.58V11.39h4.12c0.52,0,1.01,0.07,1.5,0.22c0.49,0.15,0.9,0.37,1.24,0.67c0.34,0.3,0.64,0.67,0.82,1.12  s0.3,1.01,0.3,1.65c0,0.79-0.15,1.5-0.45,2.06s-0.75,1.01-1.35,1.35l2.02,5.39h-2.85V23.82z M1117.2,15.1  c0-0.49-0.15-0.82-0.41-1.01c-0.26-0.19-0.6-0.3-1.01-0.3h-1.46v2.81h1.39c0.41,0,0.79-0.11,1.05-0.34  C1117.09,16.03,1117.2,15.62,1117.2,15.1 M1123.23,23.82v-12.4h7.23v2.4h-4.61v2.55h3.97v2.4h-3.97v2.62h4.61v2.43 M1140.09,23.82  l-2.32-4.12l-1.35-2.62h-0.04v6.74h-2.58v-12.4h2.29l2.02,3.71l1.61,3l0.07-0.04v-6.67h2.55v12.4 M1153.76,20.86  c-0.19,0.97-0.64,1.72-1.31,2.29c-0.71,0.56-1.57,0.82-2.58,0.82c-0.71,0-1.31-0.11-1.84-0.34s-0.9-0.52-1.24-0.94  c-0.3-0.37-0.56-0.82-0.71-1.35c-0.15-0.52-0.22-1.05-0.22-1.61v-4.42c0-0.45,0.07-0.94,0.22-1.39c0.15-0.49,0.37-0.9,0.67-1.27  s0.71-0.71,1.24-0.94c0.52-0.26,1.12-0.37,1.84-0.37c0.56,0,1.09,0.07,1.54,0.26c0.45,0.19,0.82,0.41,1.16,0.67  c0.34,0.3,0.6,0.6,0.79,0.97c0.19,0.37,0.34,0.75,0.41,1.16l-2.43,0.75c-0.04-0.11-0.07-0.26-0.11-0.41  c-0.04-0.15-0.15-0.3-0.26-0.45c-0.11-0.11-0.26-0.22-0.45-0.34c-0.19-0.11-0.41-0.15-0.64-0.15c-0.26,0-0.49,0.04-0.67,0.15  c-0.19,0.07-0.34,0.19-0.41,0.34c-0.11,0.15-0.19,0.3-0.22,0.45c-0.04,0.15-0.07,0.3-0.07,0.45v4.61c0,0.49,0.11,0.86,0.3,1.16  c0.22,0.3,0.56,0.45,1.09,0.45c0.37,0,0.67-0.11,0.94-0.34s0.45-0.56,0.49-0.94L1153.76,20.86L1153.76,20.86z M1164.88,19.93  c0,0.64-0.11,1.16-0.3,1.69c-0.19,0.49-0.49,0.9-0.82,1.27c-0.34,0.34-0.75,0.64-1.24,0.79c-0.49,0.19-1.01,0.26-1.61,0.26  c-0.71,0-1.31-0.11-1.84-0.34s-0.94-0.52-1.24-0.94c-0.34-0.37-0.56-0.82-0.71-1.35c-0.15-0.52-0.22-1.05-0.22-1.61v-4.42  c0-0.45,0.07-0.94,0.22-1.39c0.15-0.49,0.37-0.9,0.71-1.27c0.34-0.37,0.75-0.71,1.24-0.94c0.52-0.26,1.12-0.37,1.84-0.37  c0.67,0,1.27,0.11,1.76,0.34c0.49,0.22,0.9,0.52,1.24,0.9s0.56,0.79,0.71,1.27c0.15,0.49,0.22,0.97,0.22,1.46v4.65H1164.88z   M1162.26,15.21c0-0.11-0.04-0.26-0.07-0.41s-0.11-0.3-0.22-0.45c-0.11-0.15-0.26-0.26-0.41-0.37c-0.19-0.11-0.37-0.15-0.64-0.15  s-0.49,0.04-0.67,0.15c-0.19,0.07-0.34,0.19-0.45,0.34c-0.11,0.15-0.19,0.3-0.26,0.45c-0.04,0.15-0.07,0.3-0.07,0.45v4.61  c0,0.49,0.11,0.86,0.34,1.16c0.22,0.3,0.6,0.45,1.09,0.45c0.37,0,0.67-0.11,0.94-0.37c0.26-0.22,0.41-0.56,0.41-0.97v-4.87H1162.26z   M1107.95,36.41c0,1.06-0.31,1.94-1,2.51c-0.69,0.63-1.63,0.88-2.82,0.88c-0.5,0-0.94-0.06-1.32-0.13  c-0.38-0.13-0.75-0.25-1.06-0.38c-0.31-0.19-0.56-0.38-0.81-0.63c-0.25-0.25-0.5-0.5-0.69-0.75l1.88-1.5  c0.31,0.44,0.63,0.69,0.94,0.94c0.31,0.19,0.69,0.31,1.13,0.31c0.5,0,0.81-0.13,1-0.31c0.19-0.19,0.31-0.5,0.31-0.81  c0-0.19-0.06-0.38-0.13-0.56c-0.13-0.19-0.25-0.31-0.44-0.44c-0.19-0.13-0.38-0.25-0.63-0.31c-0.25-0.06-0.5-0.19-0.75-0.25  c-0.5-0.19-0.94-0.38-1.32-0.56c-0.38-0.19-0.69-0.44-0.88-0.69c-0.25-0.25-0.38-0.56-0.5-0.88s-0.19-0.69-0.19-1.13  c0-0.5,0.06-0.94,0.25-1.32c0.19-0.44,0.44-0.75,0.75-1.06c0.31-0.31,0.69-0.5,1.13-0.69c0.44-0.19,0.94-0.25,1.44-0.25  c0.88,0,1.57,0.13,2.13,0.38c0.56,0.25,1,0.69,1.38,1.19l-1.69,1.57c-0.56-0.63-1.13-0.94-1.82-0.94c-0.38,0-0.63,0.06-0.88,0.25  c-0.25,0.19-0.31,0.44-0.31,0.75c0,0.19,0.06,0.31,0.19,0.44c0.13,0.13,0.25,0.25,0.44,0.38s0.38,0.19,0.63,0.31s0.5,0.19,0.81,0.25  c0.56,0.19,1.06,0.38,1.44,0.56c0.38,0.25,0.69,0.5,0.94,0.75c0.25,0.31,0.38,0.63,0.5,0.94  C1107.89,35.59,1107.95,36.03,1107.95,36.41 M1118.1,37.03c-0.19,0.88-0.56,1.57-1.19,2.07c-0.63,0.5-1.44,0.75-2.32,0.75  c-0.63,0-1.19-0.13-1.69-0.31c-0.44-0.19-0.81-0.5-1.13-0.81c-0.31-0.38-0.5-0.75-0.63-1.25c-0.13-0.44-0.19-0.94-0.19-1.44v-4.07  c0-0.44,0.06-0.88,0.19-1.25c0.13-0.44,0.31-0.81,0.63-1.19s0.69-0.63,1.13-0.88c0.44-0.25,1-0.31,1.69-0.31c0.5,0,1,0.06,1.38,0.25  c0.44,0.19,0.75,0.38,1.06,0.63c0.31,0.25,0.5,0.56,0.69,0.88c0.19,0.31,0.31,0.69,0.38,1.06l-2.25,0.69c0-0.13-0.06-0.25-0.13-0.38  s-0.13-0.25-0.25-0.38s-0.25-0.25-0.38-0.31c-0.19-0.06-0.38-0.13-0.56-0.13c-0.25,0-0.44,0.06-0.63,0.13  c-0.19,0.06-0.31,0.19-0.38,0.31c-0.13,0.13-0.19,0.25-0.19,0.38c-0.06,0.13-0.06,0.31-0.06,0.44v4.2c0,0.44,0.13,0.81,0.31,1.06  c0.19,0.31,0.5,0.44,1,0.44c0.31,0,0.63-0.13,0.88-0.31c0.25-0.19,0.38-0.5,0.44-0.88L1118.1,37.03L1118.1,37.03z M1121.29,28.45  h2.38v11.34h-2.38V28.45z M1127.12,39.79V28.45h6.64v2.19h-4.26v2.32h3.63v2.19h-3.63v2.38h4.26v2.25 M1142.59,39.79l-2.07-3.82  l-1.25-2.38h-0.06v6.2h-2.38V28.45h2.13l1.82,3.38l1.5,2.69h0.06v-6.08h2.32v11.34 M1155.18,37.03c-0.19,0.88-0.56,1.57-1.19,2.07  c-0.63,0.5-1.44,0.75-2.32,0.75c-0.63,0-1.19-0.13-1.69-0.31c-0.44-0.19-0.81-0.5-1.13-0.81c-0.31-0.38-0.5-0.75-0.63-1.25  c-0.13-0.44-0.19-0.94-0.19-1.44v-4.07c0-0.44,0.06-0.88,0.19-1.25c0.13-0.44,0.31-0.81,0.63-1.19s0.69-0.63,1.13-0.88  c0.44-0.25,1-0.31,1.69-0.31c0.5,0,1,0.06,1.38,0.25c0.44,0.19,0.75,0.38,1.06,0.63c0.31,0.25,0.5,0.56,0.69,0.88  c0.19,0.31,0.31,0.69,0.38,1.06l-2.25,0.69c0-0.13-0.06-0.25-0.13-0.38s-0.13-0.25-0.25-0.38s-0.25-0.25-0.38-0.31  c-0.19-0.06-0.38-0.13-0.56-0.13c-0.25,0-0.44,0.06-0.63,0.13c-0.19,0.06-0.31,0.19-0.38,0.31c-0.13,0.13-0.19,0.25-0.19,0.38  c-0.06,0.13-0.06,0.31-0.06,0.44v4.2c0,0.44,0.13,0.81,0.31,1.06c0.19,0.31,0.5,0.44,1,0.44c0.31,0,0.63-0.13,0.88-0.31  c0.25-0.19,0.38-0.5,0.44-0.88L1155.18,37.03L1155.18,37.03z M1158.31,39.79V28.45h6.58v2.19h-4.26v2.32h3.7v2.19h-3.7v2.38h4.26  v2.25"/>
</svg>