<svg xmlns="http://www.w3.org/2000/svg" xmlns:xlink="http://www.w3.org/1999/xlink" version="1.1" id="Layer_1" x="0px" y="0px" viewBox="0 0 150.02 44.21" style="enable-background:new 0 0 150.02 44.21;" xml:space="preserve" width="150.02"  height="44.21" >
<style type="text/css">
	.st0{fill:#575858;}
	.st1{fill:none;stroke:#575858;stroke-width:0.7458;stroke-miterlimit:10;}
	.st2{fill:#575858;stroke:#FFFFFF;stroke-width:0.5778;stroke-miterlimit:10;}
	.st3{opacity:0.3;fill:#575858;}
</style>
<g>
	<g>
		<path class="st0" d="M-261.17,4.36h-24.73c-4.92,0-8.93,4.45-8.93,9.91v16.37c0,5.46,4.01,9.91,8.93,9.91h24.73    c4.92,0,8.93-4.45,8.93-9.91V14.27C-252.24,8.82-256.26,4.36-261.17,4.36L-261.17,4.36z M-253.25,30.64c0,4.84-3.56,8.8-7.93,8.8    h-24.73c-4.37,0-7.93-3.95-7.93-8.8V14.27c0-4.84,3.56-8.8,7.93-8.8h24.73c4.37,0,7.93,3.95,7.93,8.8L-253.25,30.64L-253.25,30.64    z"/>
		<path class="st0" d="M-260.92,23.23v-2.06h-1.91l6.22-9.18h-9.18l-6.62,9.07h-1.91l6.27-8.96h-8.78l-8.48,9.41h-5.22v1.84h5.32    l7.98,8.8h9.28l-6.32-8.85h1.96l6.72,8.85h9.13l-6.37-8.91H-260.92L-260.92,23.23z M-240.05,12.32c0.5,0,0.9-0.11,1.3-0.33    c0.5,0.45,0.75,0.67,0.8,0.72c0.15,0.11,0.35,0.22,0.5,0.28l0.4-1.11c-0.35-0.17-0.67-0.4-0.95-0.67    c0.25-0.39,0.45-0.83,0.55-1.28c0.1-0.44,0.15-1,0.15-1.61c0-1.28-0.25-2.28-0.75-3.01c-0.5-0.67-1.2-1.06-2.01-1.06    c-0.85,0-1.51,0.33-2.01,1s-0.75,1.67-0.75,3.01c0,1.28,0.25,2.28,0.75,3.01C-241.56,11.99-240.91,12.32-240.05,12.32    L-240.05,12.32z M-241.21,6.31c0.3-0.45,0.7-0.67,1.15-0.67c0.45,0,0.85,0.22,1.15,0.67c0.3,0.45,0.45,1.11,0.45,2    c0,0.89-0.15,1.56-0.45,2c-0.35-0.33-0.7-0.61-1.1-0.78l-0.3,0.89c0.25,0.11,0.45,0.28,0.7,0.5c-0.15,0.06-0.3,0.11-0.45,0.11    c-0.45,0-0.8-0.22-1.1-0.67c-0.3-0.45-0.45-1.11-0.45-2.06C-241.66,7.42-241.51,6.76-241.21,6.31L-241.21,6.31z M-235.39,11.99    c0.35,0.22,0.8,0.33,1.41,0.33c0.55,0,1.05-0.17,1.41-0.45c0.35-0.28,0.6-0.67,0.7-1.11c0.1-0.45,0.15-1.22,0.15-2.28V4.42h-1.15    v4.34c0,0.78-0.05,1.28-0.1,1.5s-0.2,0.45-0.35,0.56c-0.19,0.14-0.42,0.22-0.65,0.22c-0.28,0-0.54-0.1-0.75-0.28    c-0.2-0.17-0.3-0.45-0.35-0.78c-0.05-0.22-0.05-0.61-0.05-1.28V4.42h-1.15v4.12c0,1.17,0.1,1.95,0.25,2.39    C-235.99,11.43-235.74,11.77-235.39,11.99L-235.39,11.99z M-229.47,10.43h2.31l0.5,1.78h1.25l-2.31-7.79h-1.25l-2.26,7.79h1.25    L-229.47,10.43L-229.47,10.43z M-228.31,6.26l0.8,2.89h-1.61L-228.31,6.26L-228.31,6.26z M-220.74,10.88h-2.86V4.53h-1.15v7.68    h4.01L-220.74,10.88L-220.74,10.88z"/>
		<path class="st0" d="M-218.78,4.42h-1.16v7.79h1.15L-218.78,4.42L-218.78,4.42z"/>
		<path class="st0" d="M-216.37,12.21h1.15V5.75h1.71V4.42h-4.57v1.34h1.71V12.21z M-211.26,12.21h1.15V8.93l2.11-4.51h-1.35    l-1.3,3.06l-1.35-3.06h-1.35l2.11,4.51L-211.26,12.21L-211.26,12.21z M-204.43,10.43h2.31l0.5,1.78h1.25l-2.31-7.79h-1.25    l-2.26,7.79h1.25L-204.43,10.43z M-203.28,6.26l0.8,2.89h-1.56L-203.28,6.26L-203.28,6.26z"/>
		<path class="st0" d="M-198.41,4.42h-1.15v7.79h1.15V4.42z"/>
		<path class="st0" d="M-195.4,8.98h0.25c0.25,0,0.45,0.06,0.6,0.11c0.1,0.06,0.25,0.17,0.35,0.33c0.1,0.17,0.3,0.56,0.6,1.17    l0.85,1.67h1.41l-0.7-1.5c-0.21-0.43-0.43-0.86-0.65-1.28c-0.17-0.25-0.37-0.47-0.6-0.67c0.5-0.11,0.85-0.33,1.1-0.72    c0.25-0.39,0.4-0.83,0.4-1.45c0-0.5-0.1-0.89-0.25-1.22c-0.15-0.33-0.4-0.61-0.65-0.72c-0.25-0.11-0.7-0.22-1.35-0.22h-2.46v7.79    h1.15V8.98H-195.4z M-195.4,5.75h0.9c0.5,0,0.85,0,0.95,0.06c0.15,0.06,0.25,0.17,0.35,0.33c0.1,0.17,0.15,0.33,0.15,0.61    c0,0.28-0.05,0.45-0.15,0.61c-0.1,0.17-0.2,0.28-0.35,0.33c-0.15,0.06-0.5,0.06-1,0.06h-0.85V5.75z M-187.08,9.37    c-0.1,0.56-0.25,1-0.5,1.28c-0.2,0.28-0.5,0.39-0.8,0.39c-0.4,0-0.75-0.22-1-0.61c-0.25-0.39-0.4-1.11-0.4-2.06s0.15-1.61,0.4-2    c0.25-0.39,0.6-0.61,1.05-0.61c0.3,0,0.55,0.11,0.75,0.33c0.2,0.22,0.35,0.56,0.45,0.95l1.15-0.39c-0.15-0.67-0.35-1.22-0.7-1.56    c-0.45-0.5-0.95-0.72-1.61-0.72c-0.8,0-1.41,0.33-1.91,1c-0.55,0.72-0.8,1.78-0.8,3.12c0,1.28,0.25,2.23,0.8,3.01    c0.45,0.61,1.05,0.95,1.81,0.95c0.6,0,1.1-0.22,1.51-0.61c0.4-0.39,0.7-1.06,0.85-1.89L-187.08,9.37L-187.08,9.37z M-183.81,8.98    h0.25c0.25,0,0.45,0.06,0.6,0.11c0.1,0.06,0.25,0.17,0.35,0.33c0.1,0.17,0.3,0.56,0.6,1.17l0.85,1.67h1.41l-0.7-1.5    c-0.21-0.43-0.43-0.86-0.65-1.28c-0.17-0.25-0.37-0.47-0.6-0.67c0.5-0.11,0.85-0.33,1.1-0.72c0.25-0.39,0.4-0.83,0.4-1.45    c0-0.5-0.1-0.89-0.25-1.22c-0.15-0.33-0.4-0.61-0.65-0.72c-0.25-0.11-0.7-0.22-1.35-0.22h-2.51v7.79h1.15V8.98L-183.81,8.98z     M-183.81,5.75h0.9c0.5,0,0.85,0,0.95,0.06c0.15,0.06,0.25,0.17,0.35,0.33c0.1,0.17,0.15,0.33,0.15,0.61    c0,0.28-0.05,0.45-0.15,0.61c-0.1,0.17-0.2,0.28-0.35,0.33c-0.15,0.06-0.5,0.06-1,0.06h-0.85V5.75L-183.81,5.75z"/>
		<path class="st0" d="M-178.05,10.43h2.31l0.5,1.78h1.25l-2.31-7.79h-1.25l-2.26,7.79h1.25L-178.05,10.43L-178.05,10.43z     M-176.94,6.26l0.8,2.89h-1.56L-176.94,6.26L-176.94,6.26z M-172.23,8.93h2.41V7.59h-2.41V5.75h2.76V4.42h-3.91v7.79h1.15V8.93    L-172.23,8.93z M-167.21,12.21h1.15V5.75h1.71V4.42h-4.57v1.34h1.71V12.21z M-159.28,11.04c-0.7,0-1.1-0.5-1.25-1.5l-1.1,0.17    c0.15,1.78,0.95,2.67,2.36,2.67c0.8,0,1.41-0.22,1.76-0.67c0.35-0.44,0.55-1,0.55-1.73c0-0.45-0.05-0.89-0.2-1.17    c-0.15-0.33-0.35-0.61-0.6-0.78c-0.25-0.22-0.7-0.39-1.25-0.61c-0.55-0.17-0.9-0.33-1.05-0.5c-0.15-0.17-0.25-0.33-0.25-0.56    c0-0.22,0.1-0.39,0.25-0.56c0.15-0.17,0.4-0.22,0.7-0.22s0.55,0.05,0.7,0.22c0.15,0.17,0.3,0.45,0.35,0.89l1.15-0.06    c0-0.78-0.2-1.34-0.6-1.73c-0.4-0.39-0.9-0.61-1.61-0.61c-0.45,0-0.85,0.11-1.15,0.28c-0.3,0.17-0.55,0.44-0.7,0.78    c-0.17,0.37-0.25,0.77-0.25,1.17c0,0.39,0.05,0.72,0.2,1c0.15,0.33,0.3,0.56,0.55,0.78c0.34,0.24,0.71,0.42,1.1,0.56    c0.55,0.17,0.9,0.33,1.05,0.39c0.07,0.02,0.13,0.06,0.18,0.11c0.05,0.05,0.09,0.11,0.12,0.17c0.05,0.11,0.1,0.28,0.1,0.45    c0,0.28-0.1,0.56-0.3,0.78C-158.7,10.95-158.99,11.05-159.28,11.04L-159.28,11.04z"/>
		<path class="st0" d="M-154.92,4.42h-1.15v7.79h1.15V4.42z"/>
		<path class="st0" d="M-152.71,7.15l2.36,5.07h1.15V4.42h-1.1v5.23l-2.36-5.23h-1.1v7.79h1.05V7.15L-152.71,7.15z M-144.83,10.6    c-0.2,0.28-0.5,0.39-0.8,0.39c-0.4,0-0.75-0.22-1-0.61c-0.25-0.39-0.4-1.11-0.4-2.06s0.15-1.61,0.4-2    c0.25-0.39,0.6-0.61,1.05-0.61c0.3,0,0.55,0.11,0.75,0.33c0.2,0.22,0.35,0.56,0.45,0.95l1.15-0.39c-0.15-0.67-0.35-1.22-0.7-1.56    c-0.4-0.5-0.95-0.72-1.61-0.72c-0.8,0-1.41,0.33-1.91,1c-0.55,0.72-0.8,1.78-0.8,3.12c0,1.28,0.25,2.23,0.8,3.01    c0.45,0.61,1.05,0.95,1.81,0.95c0.6,0,1.1-0.22,1.51-0.61c0.4-0.39,0.7-1.06,0.85-1.89l-1.05-0.5    C-144.43,9.93-144.58,10.32-144.83,10.6L-144.83,10.6z M-137.86,10.88h-3.21V8.76h2.91V7.48h-2.91V5.75h3.11V4.42h-4.26v7.79h4.36    V10.88z M-133.14,6.59v5.62h1.1V4.42h-0.9c-0.15,0.45-0.35,0.89-0.7,1.22c-0.35,0.33-0.65,0.61-0.95,0.72V7.7    C-134.05,7.48-133.59,7.09-133.14,6.59L-133.14,6.59z M-128.83,9.6c0.2,0,0.4-0.06,0.55-0.17c0.15-0.11,0.35-0.28,0.45-0.5    c-0.05,0.89-0.15,1.45-0.3,1.73c-0.15,0.28-0.35,0.45-0.6,0.45c-0.35,0-0.55-0.28-0.6-0.89l-1.05,0.17    c0.1,0.67,0.25,1.17,0.55,1.45c0.3,0.33,0.65,0.5,1.05,0.5c0.6,0,1.15-0.33,1.51-0.95c0.4-0.61,0.6-1.67,0.6-3.06    c0-1.39-0.2-2.39-0.55-3.01s-0.85-0.89-1.46-0.89c-0.5,0-0.95,0.22-1.3,0.72c-0.35,0.45-0.55,1.11-0.55,1.95    c0,0.78,0.15,1.39,0.5,1.84C-129.68,9.37-129.28,9.6-128.83,9.6L-128.83,9.6z M-129.23,5.98c0.15-0.22,0.3-0.33,0.5-0.33    c0.2,0,0.4,0.11,0.55,0.39c0.15,0.28,0.25,0.61,0.25,1.11c0,0.45-0.05,0.78-0.2,1c-0.15,0.22-0.35,0.33-0.55,0.33    c-0.2,0-0.4-0.11-0.55-0.33c-0.15-0.22-0.2-0.61-0.2-1.11C-129.43,6.53-129.38,6.2-129.23,5.98z M-123.46,12.21h1.05v-1.56h0.7    V9.32h-0.7v-4.9h-0.9l-2.51,4.9v1.34h2.36V12.21z M-124.77,9.32l1.3-2.67v2.67L-124.77,9.32L-124.77,9.32z M-117.64,8.76    c-0.15-0.33-0.4-0.56-0.75-0.72c0.25-0.17,0.45-0.33,0.6-0.61c0.15-0.28,0.2-0.61,0.2-1c0-0.56-0.15-1-0.45-1.39    c-0.3-0.39-0.7-0.56-1.25-0.56c-0.55,0-0.95,0.17-1.25,0.56c-0.3,0.33-0.45,0.83-0.45,1.45c0,0.39,0.05,0.72,0.2,0.95    c0.15,0.28,0.35,0.5,0.6,0.61c-0.3,0.17-0.55,0.39-0.7,0.72c-0.17,0.39-0.26,0.8-0.25,1.22c0,0.72,0.2,1.28,0.55,1.73    c0.35,0.45,0.8,0.61,1.35,0.61c0.35,0,0.65-0.11,0.95-0.28c0.3-0.17,0.5-0.5,0.65-0.83c0.15-0.39,0.25-0.78,0.25-1.28    C-117.39,9.48-117.44,9.09-117.64,8.76L-117.64,8.76z M-119.75,5.87c0.06-0.07,0.14-0.13,0.22-0.17c0.09-0.04,0.18-0.06,0.28-0.05    c0.2,0,0.35,0.05,0.5,0.22c0.15,0.17,0.2,0.39,0.2,0.67c0,0.28-0.05,0.56-0.2,0.67c-0.06,0.07-0.14,0.13-0.22,0.17    c-0.09,0.04-0.18,0.06-0.28,0.05c-0.1,0-0.19-0.01-0.28-0.05c-0.09-0.04-0.16-0.1-0.22-0.17c-0.15-0.17-0.2-0.39-0.2-0.67    C-119.95,6.26-119.9,6.03-119.75,5.87L-119.75,5.87z M-118.7,10.82c-0.15,0.22-0.35,0.33-0.55,0.33c-0.2,0-0.4-0.11-0.55-0.33    c-0.15-0.22-0.25-0.56-0.25-0.95c0-0.33,0.1-0.67,0.25-0.89c0.15-0.22,0.35-0.33,0.55-0.33c0.2,0,0.4,0.11,0.55,0.33    c0.15,0.22,0.25,0.5,0.25,0.89C-118.49,10.26-118.54,10.6-118.7,10.82L-118.7,10.82z M-225.91,39.88h15.55l0.85-4.62h-9.83    l0.75-4.01h8.83l0.75-4.18h-8.83l0.55-3.28h9.53l0.8-4.34h-15.25L-225.91,39.88z M-189.63,19.84c-1.15-1.06-2.86-1.56-5.22-1.56    c-2.96,0-5.42,0.89-7.37,2.73c-1.96,1.84-3.21,5.51-3.86,8.91c-0.45,2.56-0.35,4.62,0.25,6.23c0.65,1.61,1.51,2.78,2.66,3.4    c1.15,0.67,2.76,0.95,4.77,0.95c1.66,0,3.01,0,4.16-0.5c1.15-0.56,2.71-1.22,3.51-2.34c2.56-3.45,2.26-3.95,2.86-5.51    c0.15-0.17-5.32-0.22-5.32-0.22c-0.5,1.28-1.25,2.39-1.96,3.06c-0.7,0.67-1.66,0.78-2.76,0.78c-1.1,0-1.91-0.45-2.41-1.28    c-0.45-0.84-0.5-2.39-0.1-4.68c0.35-1.84,0.85-4.29,1.51-5.12c0.9-1.17,2.01-1.73,3.31-1.73c0.55,0,1.05,0.11,1.51,0.39    c0.4,0.28,0.75,0.61,0.95,1.11c0.15,0.28,0.25,1.39,0.3,2l5.52,0.06C-186.97,23.46-188.48,20.89-189.63,19.84L-189.63,19.84z     M-170.17,19.45l-2.01,11.3l-4.92-11.3h-5.32l-3.66,20.43h5.37l2.01-11.24l4.87,11.24h5.37l3.71-20.43H-170.17z M-155.37,19.28    L-166,39.76h5.82l1.56-3.4h6.47l0.3,3.4h5.97l-3.21-20.48H-155.37L-155.37,19.28z M-156.67,31.97l3.36-7.35l0.7,7.35H-156.67    L-156.67,31.97z M-131.14,32.03l-0.6-12.47h-7.52l-3.71,20.48h4.67l2.81-15.64l0.8,15.64h4.22l6.42-15.64l-2.81,15.64h4.67    l3.66-20.49h-7.48L-131.14,32.03L-131.14,32.03z M-242.91,19.56l-0.9,5.07h5.82l-2.81,15.42h5.72l2.76-15.42h5.82l0.9-5.07    H-242.91L-242.91,19.56z"/>
		<path class="st1" d="M-111.48,29.31c2.51,0,4.55-2.04,4.55-4.55s-2.04-4.55-4.55-4.55s-4.55,2.04-4.55,4.55    S-113.99,29.31-111.48,29.31z"/>
		<path class="st0" d="M-112.84,27.03v-4.55h1.72c0.43,0,0.75,0.04,0.94,0.12c0.2,0.08,0.35,0.23,0.47,0.43    c0.12,0.21,0.18,0.45,0.18,0.72c0,0.34-0.09,0.62-0.27,0.85c-0.18,0.22-0.44,0.36-0.8,0.42c0.18,0.12,0.32,0.24,0.44,0.38    c0.12,0.14,0.27,0.38,0.47,0.74l0.49,0.89h-0.98l-0.59-0.99c-0.21-0.35-0.35-0.58-0.43-0.67c-0.06-0.08-0.15-0.15-0.25-0.19    c-0.09-0.04-0.22-0.05-0.41-0.05h-0.17v1.9H-112.84z M-112.02,24.41h0.61c0.39,0,0.64-0.02,0.73-0.06c0.1-0.04,0.18-0.1,0.23-0.19    c0.06-0.1,0.09-0.22,0.08-0.34c0.01-0.13-0.03-0.26-0.11-0.37c-0.08-0.1-0.18-0.16-0.31-0.18c-0.2-0.01-0.4-0.02-0.6-0.02h-0.64    V24.41z"/>
	</g>
</g>
<g id="temp_5_">
	<polyline class="st2" points="-788.56,7.82 -778.59,17.48 -788.56,26.89 -788.56,7.82  "/>
	<g>
		<polyline class="st2" points="-788.56,7.82 -772.05,-1.71 -778.59,17.48 -788.56,7.82   "/>
		<polyline class="st2" points="-788.56,26.89 -778.59,17.48 -772.05,36.43 -788.56,26.89   "/>
		<polyline class="st2" points="-755.53,26.89 -766.3,25.19 -772.05,36.43 -755.53,26.89   "/>
		<polyline class="st2" points="-778.59,17.48 -772.05,36.43 -766.3,25.19 -778.59,17.48   "/>
		<polyline class="st2" points="-772.05,-1.71 -778.59,17.48 -760.86,12.51 -772.05,-1.71   "/>
		<polyline class="st2" points="-778.59,17.48 -766.3,25.19 -760.86,12.51 -778.59,17.48   "/>
		<polyline class="st2" points="-760.86,12.51 -766.3,25.19 -755.53,26.89 -760.86,12.51   "/>
		<polyline class="st2" points="-760.86,12.51 -772.05,-1.71 -755.53,7.82 -760.86,12.51   "/>
		<polyline class="st2" points="-755.53,26.89 -760.86,12.51 -755.53,7.82 -755.53,26.89   "/>
		<path class="st0" d="M-728.45,7.89h-7.37l-5.99,7.2v-7.2h-6.02v19.03h6.04v-4.51l2.81-3.09l4.18,7.6h6.81l-7.09-11.82    L-728.45,7.89z M-717.25,12.61c-3.09,0-4.13,1.57-4.59,2.21v-1.86h-5.26v13.96h5.57v-7.43c0-0.76,0.06-2.3,2.02-2.3    c1.86,0,1.86,1.4,1.86,2.1v7.62h5.57v-8.81c0-1.05-0.08-2.92-1.4-4.21C-714.51,12.99-715.87,12.52-717.25,12.61L-717.25,12.61z     M-701.97,12.36c-5.16,0-8.26,3.09-8.26,7.69c0,3.75,2.32,7.43,7.97,7.43c5.29,0,8.34-3.09,8.34-7.5    c0.03-2.07-0.75-4.07-2.18-5.57c-1.08-1.05-3.02-2.02-5.87-2.05L-701.97,12.36z M-702.1,23.59c-2.27,0-2.59-2.35-2.59-3.71    c0-1.57,0.46-3.56,2.57-3.61c2.53-0.08,2.59,2.72,2.59,3.56C-699.51,21.97-700.13,23.59-702.1,23.59L-702.1,23.59z M-683.08,12.58    c-2.4,0-3.32,1.03-3.71,1.46v-1.08h-5.43v19.06h5.48v-6.02c0.46,0.43,1.35,1.3,3.62,1.3c4.21,0,6.15-3.19,6.15-7.26    C-676.97,16.36-678.57,12.58-683.08,12.58L-683.08,12.58z M-683.24,22.78c-0.78,0.79-2.04,0.79-2.83,0.02    c-0.25-0.24-0.43-0.55-0.52-0.89c-0.19-0.62-0.27-1.27-0.24-1.92c0-0.78,0-2.05,0.81-2.8c0.4-0.38,0.93-0.59,1.49-0.57    c1.97,0.06,2.08,2.38,2.08,3.48C-682.37,21.07-682.65,22.02-683.24,22.78L-683.24,22.78z M-665.94,12.58    c-2.4,0-3.32,1.03-3.71,1.46v-1.08h-5.43v19.06h5.48v-6.02c0.46,0.43,1.35,1.3,3.62,1.3c4.21,0,6.15-3.19,6.15-7.26    C-659.84,16.36-661.43,12.58-665.94,12.58L-665.94,12.58z M-666.09,22.78c-0.78,0.79-2.04,0.79-2.83,0.02    c-0.25-0.24-0.43-0.55-0.52-0.89c-0.19-0.62-0.27-1.27-0.24-1.92c0-0.78,0-2.05,0.81-2.8c0.4-0.38,0.93-0.59,1.49-0.57    c1.97,0.06,2.08,2.38,2.08,3.48C-665.21,21.07-665.5,22.02-666.09,22.78z"/>
		<path class="st0" d="M-739.68,41.04c1.19-0.37,1.99-1.5,1.94-2.75c0-1.97-1.53-2.91-2.8-3.16c-0.56-0.08-1.13-0.11-1.7-0.09h-5.21    v12.68h4.95c1.87,0,2.74,0,3.74-0.67c0.94-0.63,1.48-1.71,1.42-2.84C-737.25,42.72-738.23,41.38-739.68,41.04z M-745.87,36.53    h3.93c0.68,0,2.42,0.04,2.42,1.85c0.01,0.4-0.1,0.8-0.32,1.13c-0.57,0.86-1.47,0.86-3.39,0.86h-2.64V36.53z M-740.56,46.12    c-0.52,0.1-1.04,0.14-1.56,0.11h-3.75v-4.41h3.1c1.56,0,1.96,0.03,2.46,0.25c0.78,0.37,1.26,1.17,1.22,2.03    C-739.09,45.08-739.48,45.85-740.56,46.12L-740.56,46.12z M-736.12,36.7h1.38v-1.65h-1.38V36.7z M-736.12,47.72h1.38v-8.46h-1.38    V47.72z M-729.25,38.99c-3.29,0-4.22,2.67-4.22,4.56c0,2.23,1.24,4.42,4.16,4.42c2.59,0,4.11-1.92,4.13-4.49    C-725.16,41.17-726.46,38.99-729.25,38.99L-729.25,38.99z M-726.74,43.48c0,0.86-0.2,3.32-2.59,3.32c-1.85,0-2.58-1.47-2.58-3.25    c0-1.94,0.77-3.43,2.69-3.43c0.97,0,2.07,0.47,2.37,2.16C-726.77,42.67-726.73,43.08-726.74,43.48L-726.74,43.48z M-719.34,42.87    l-0.81-0.2c-1.11-0.27-2.03-0.52-2.03-1.33c0-0.57,0.56-1.24,1.67-1.24c0.58-0.02,1.16,0.16,1.63,0.5    c0.43,0.31,0.66,0.83,0.61,1.37l1.55-0.2c-0.29-1.99-2.01-2.76-3.63-2.76c-1.96,0-3.27,0.95-3.27,2.51c0,1.76,1.67,2.14,3.03,2.46    l0.81,0.16c1.02,0.2,1.76,0.38,1.76,1.35s-0.73,1.4-1.99,1.4c-0.61,0.06-1.22-0.11-1.71-0.47c-0.46-0.42-0.7-1.03-0.63-1.65    l-1.62,0.25c0.07,0.91,0.53,1.74,1.26,2.29c0.78,0.48,1.7,0.72,2.62,0.68c2.34,0,3.56-1.29,3.56-2.67    C-716.53,43.54-718.34,43.1-719.34,42.87L-719.34,42.87z M-711.07,46.88c-0.85,0.03-1.65-0.4-2.1-1.13    c-0.4-0.69-0.59-1.48-0.55-2.28c0-0.75,0.1-3.43,2.56-3.43c1.16-0.06,2.16,0.79,2.28,1.94l1.58-0.15    c-0.55-2.37-2.55-2.84-3.91-2.84c-2.82,0-4.1,2.17-4.1,4.58c0,2.08,1.11,4.4,4.22,4.4c1.56,0,2.77-0.58,3.47-1.87    c0.24-0.44,0.4-0.92,0.47-1.42l-1.55-0.14C-708.77,45.19-709,46.88-711.07,46.88L-711.07,46.88z M-705.91,47.72h1.38v-8.46h-1.38    V47.72z M-705.91,36.7h1.38v-1.65h-1.38V36.7z M-695.48,41.99c-0.34-1.77-1.91-3.04-3.72-3c-1.8,0-4.1,1.22-4.1,4.42    c0,2.84,1.64,4.56,4.15,4.56c1.78,0.06,3.37-1.12,3.83-2.84l-1.46-0.19c-0.25,1.13-0.97,1.97-2.24,1.97    c-2.01,0-2.77-1.76-2.73-3.18h6.43c0.01-0.58-0.05-1.17-0.18-1.74H-695.48z M-701.71,42.69c0.17-1.71,1.19-2.6,2.41-2.6    c0.7,0,2.3,0.37,2.42,2.6H-701.71z M-690,38.99c-1.09-0.02-2.1,0.56-2.64,1.51v-1.24h-1.42v8.46h1.42v-4.83    c-0.08-0.69,0.15-1.39,0.63-1.9c0.43-0.43,1.01-0.66,1.62-0.64c0.8-0.06,1.53,0.42,1.81,1.17c0.1,0.47,0.13,0.95,0.09,1.42v4.81    h1.42v-5.08c0.03-0.58-0.02-1.17-0.15-1.74c-0.38-1.21-1.53-2-2.8-1.94H-690z M-681.61,46.88c-0.85,0.03-1.65-0.4-2.1-1.13    c-0.4-0.69-0.59-1.48-0.55-2.28c0-0.75,0.11-3.43,2.56-3.43c1.16-0.07,2.16,0.79,2.28,1.94l1.58-0.15    c-0.56-2.37-2.55-2.84-3.92-2.84c-2.82,0-4.09,2.17-4.09,4.58c0,2.08,1.11,4.4,4.22,4.4c1.56,0,2.76-0.58,3.47-1.87    c0.24-0.44,0.4-0.92,0.47-1.42l-1.55-0.14c-0.09,0.66-0.33,2.35-2.39,2.35H-681.61z M-668.65,41.99c-0.34-1.77-1.91-3.04-3.72-3    c-1.79,0-4.09,1.22-4.09,4.42c0,2.84,1.63,4.56,4.15,4.56c1.78,0.06,3.36-1.12,3.82-2.84l-1.45-0.19    c-0.25,1.13-0.97,1.97-2.25,1.97c-2.01,0-2.76-1.76-2.73-3.18h6.43c0.01-0.58-0.05-1.17-0.18-1.74H-668.65z M-674.88,42.69    c0.16-1.71,1.19-2.6,2.41-2.6c0.7,0,2.29,0.37,2.42,2.6H-674.88z M-662.65,42.87l-0.81-0.2c-1.11-0.27-2.03-0.52-2.03-1.33    c0-0.57,0.56-1.24,1.67-1.24c0.59-0.02,1.16,0.16,1.64,0.5c0.43,0.31,0.66,0.83,0.61,1.37l1.55-0.2    c-0.29-1.99-2.01-2.76-3.63-2.76c-1.95,0-3.27,0.95-3.27,2.51c0,1.76,1.67,2.14,3.03,2.46l0.81,0.16c1.02,0.2,1.76,0.38,1.76,1.35    s-0.73,1.4-1.99,1.4c-0.61,0.06-1.22-0.11-1.71-0.47c-0.47-0.41-0.7-1.03-0.63-1.65l-1.62,0.25c0.08,0.91,0.53,1.74,1.26,2.29    c0.79,0.48,1.7,0.72,2.62,0.68c2.34,0,3.56-1.29,3.56-2.67c-0.01-1.79-1.82-2.22-2.83-2.45H-662.65z"/>
	</g>
</g>
<g>
	<path class="st3" d="M86.08,43.71c0,0-6.56-6.66-7.24-13.69s4.6-12.21,10.73-16.15c6.12-3.95,11.87-9.76,12.51-13.37   c0,0,6.24,16.88-2.15,24.66C91.78,32.72,85.74,38.16,86.08,43.71z"/>
	<g>
		<g>
			<path class="st0" d="M114.41,33.29l0.51,3.03c-0.99,0.2-1.87,0.31-2.65,0.31c-1.27,0-2.26-0.2-2.96-0.59     c-0.7-0.39-1.19-0.91-1.48-1.55c-0.29-0.64-0.43-1.99-0.43-4.05V18.77h-2.57V16.1h2.57v-5.02l3.48-2.06v7.08h3.52v2.67h-3.52     v11.85c0,0.98,0.06,1.61,0.18,1.89c0.12,0.28,0.32,0.5,0.6,0.67c0.28,0.17,0.68,0.25,1.2,0.25     C113.27,33.42,113.78,33.38,114.41,33.29z"/>
			<path class="st0" d="M131.07,29.84l3.62,0.44c-0.57,2.07-1.63,3.68-3.17,4.83c-1.54,1.14-3.52,1.72-5.92,1.72     c-3.02,0-5.42-0.91-7.19-2.74c-1.77-1.82-2.66-4.38-2.66-7.68c0-3.41,0.9-6.05,2.69-7.94s4.11-2.82,6.97-2.82     c2.76,0,5.02,0.92,6.78,2.77c1.75,1.84,2.63,4.44,2.63,7.78c0,0.2-0.01,0.51-0.02,0.92h-15.42c0.13,2.23,0.77,3.93,1.93,5.11     c1.15,1.18,2.6,1.77,4.32,1.77c1.28,0,2.38-0.33,3.29-0.99C129.81,32.34,130.53,31.29,131.07,29.84z M119.56,24.28h11.55     c-0.16-1.7-0.6-2.98-1.32-3.83c-1.12-1.32-2.56-1.98-4.34-1.98c-1.61,0-2.96,0.53-4.06,1.58     C120.28,21.11,119.68,22.52,119.56,24.28z"/>
			<path class="st0" d="M138.12,36.36V16.1h3.15v3.07c0.8-1.44,1.55-2.38,2.23-2.84c0.68-0.46,1.43-0.69,2.25-0.69     c1.18,0,2.38,0.37,3.6,1.11l-1.21,3.19c-0.86-0.5-1.71-0.74-2.57-0.74c-0.77,0-1.45,0.23-2.06,0.68     c-0.61,0.45-1.04,1.08-1.3,1.88c-0.39,1.22-0.58,2.56-0.58,4.01v10.61H138.12z"/>
			<g>
				<path class="st0" d="M99.05,33.86c-1.3,1.08-2.55,1.85-3.76,2.29c-1.2,0.45-2.49,0.67-3.87,0.67c-2.28,0-4.03-0.55-5.25-1.63      c-1.22-1.09-1.83-2.48-1.83-4.18c0-0.99,0.23-1.9,0.69-2.72c0.46-0.82,1.07-1.48,1.81-1.98c0.75-0.5,1.59-0.87,2.53-1.13      c0.69-0.18,1.73-0.35,3.12-0.52c2.84-0.33,4.92-0.73,6.26-1.19c0.01-0.47,0.02-0.77,0.02-0.9c0-1.4-0.33-2.39-0.99-2.96      c-0.9-0.78-2.23-1.17-4-1.17c-1.65,0-2.87,0.28-3.66,0.85c-0.79,0.57-1.37,1.57-1.75,3.01l-3.43-0.46      c0.31-1.44,0.83-2.6,1.54-3.49c0.72-0.89,1.75-1.57,3.1-2.05s2.92-0.72,4.7-0.72c1.77,0,3.21,0.2,4.31,0.61      c1.11,0.41,1.92,0.92,2.44,1.54c0.52,0.62,0.88,1.4,1.09,2.34c0.12,0.59,0.18,1.64,0.18,3.17v4.59c0,3.2,0.07,5.22,0.22,6.07      c0.15,0.85,0.45,1.66,0.89,2.44h-3.67C99.39,35.65,99.16,34.81,99.05,33.86z M98.76,26.17c-1.27,0.51-3.19,0.94-5.74,1.3      c-1.44,0.2-2.47,0.43-3.06,0.69c-0.6,0.26-1.06,0.63-1.39,1.12c-0.33,0.49-0.49,1.04-0.49,1.63c0,0.92,0.35,1.68,1.06,2.29      c0.71,0.61,1.75,0.92,3.11,0.92c1.35,0,2.56-0.29,3.61-0.87c1.05-0.58,1.83-1.37,2.32-2.38c0.38-0.78,0.57-1.92,0.57-3.44V26.17      z"/>
			</g>
		</g>
	</g>
	<g>
		<g>
			<path class="st0" d="M0.66,16h7.38v3.3c1.1-1.35,2.22-2.31,3.35-2.89c1.13-0.58,2.51-0.87,4.13-0.87c2.19,0,3.91,0.64,5.15,1.92     c1.24,1.28,1.86,3.25,1.86,5.92v12.88h-7.96V25.12c0-1.27-0.24-2.17-0.72-2.7c-0.48-0.53-1.16-0.79-2.02-0.79     c-0.96,0-1.74,0.36-2.34,1.07c-0.6,0.71-0.9,1.99-0.9,3.83v9.73H0.66V16z"/>
			<path class="st0" d="M47.46,28.06H31.57c0.14,1.25,0.49,2.17,1.03,2.79c0.77,0.88,1.76,1.32,3,1.32c0.78,0,1.52-0.19,2.22-0.57     c0.43-0.24,0.89-0.67,1.38-1.28l7.81,0.71c-1.19,2.03-2.63,3.49-4.32,4.38c-1.69,0.88-4.11,1.33-7.26,1.33     c-2.74,0-4.89-0.38-6.46-1.14c-1.57-0.76-2.87-1.96-3.9-3.61c-1.03-1.65-1.55-3.58-1.55-5.81c0-3.17,1.03-5.73,3.11-7.69     c2.07-1.96,4.93-2.94,8.58-2.94c2.96,0,5.3,0.44,7.01,1.32c1.71,0.88,3.02,2.15,3.91,3.81c0.9,1.67,1.34,3.83,1.34,6.5V28.06z      M39.4,24.34c-0.16-1.5-0.57-2.58-1.24-3.22c-0.67-0.65-1.55-0.97-2.64-0.97c-1.26,0-2.27,0.49-3.02,1.47     c-0.48,0.61-0.79,1.52-0.92,2.73H39.4z"/>
			<path class="st0" d="M46.03,16h7.66l3.31,12.75L61.2,16h7.16l4.37,12.79L76.07,16h7.61l-7.62,20.26h-7.05l-4.19-12.19     l-4.05,12.19H53.7L46.03,16z"/>
		</g>
	</g>
</g>
<g>
	<path class="st0" d="M-528.79,12.86c0-0.38,0-0.65,0-0.93c0-4.4,0-8.79,0-13.19c0-1.06,0.85-1.98,1.85-2.01   c1.02-0.03,1.95,0.87,1.95,1.97c0.01,7.01,0,14.02,0,21.04c0,0.04-0.02,0.08-0.05,0.25c-0.2-0.18-0.37-0.31-0.52-0.46   c-2.49-2.45-5.48-3.68-8.97-3.64c-5.77,0.07-10.84,4.76-11.46,10.45c-0.41,3.83,0.63,7.14,3.27,9.9c1.98,2.06,4.47,3.24,7.33,3.5   c3.14,0.29,6.06-0.4,8.6-2.35c2.55-1.96,4.04-4.56,4.43-7.76c0.11-0.93,0.12-1.88,0.12-2.82c0.01-9.28,0-18.57,0.01-27.85   c0-1.25,0.78-2.07,1.96-2.05c0.93,0.01,1.72,0.72,1.84,1.65c0.01,0.11,0.01,0.21,0.01,0.32c0,9.84,0.04,19.69-0.03,29.53   c-0.03,3.92-1.5,7.34-4.16,10.24c-2.42,2.64-5.4,4.27-8.91,4.82c-4.59,0.73-8.77-0.31-12.44-3.21c-3.41-2.69-5.4-6.23-5.88-10.53   c-0.51-4.62,0.82-8.72,3.9-12.23c2.57-2.93,5.79-4.68,9.63-5.34c2.29-0.39,4.52-0.05,6.74,0.52   C-529.36,12.74-529.15,12.78-528.79,12.86z"/>
	<path class="st0" d="M-485.27,27.75c0.02,4.88-1.83,8.95-5.46,12.19c-5.4,4.82-13.67,5.03-19.42,0.54   c-5.75-4.49-7.8-12.39-4.88-19.08c2.38-5.46,6.56-8.71,12.46-9.49c4.49-0.59,8.51,0.76,11.94,3.76c3.14,2.75,4.87,6.24,5.36,10.35   C-485.21,26.59-485.27,27.17-485.27,27.75z M-500.42,39.83c0.47-0.06,1.29-0.1,2.08-0.28c5-1.11,8.69-5.3,9.2-10.46   c0.45-4.46-1.08-8.14-4.54-10.95c-4.86-3.94-11.95-3.09-16.01,1.75c-4.12,4.92-3.67,12.76,1.34,17.08   C-506.16,38.86-503.63,39.79-500.42,39.83z"/>
	<path class="st0" d="M-543.33,27.95c-0.09-4.88,3.96-9.19,9.15-9.26c4.97-0.08,9.21,4.25,9.2,9.31c-0.01,5.05-4.19,9.27-9.18,9.25   C-539.31,37.22-543.42,32.92-543.33,27.95z M-528.81,27.88c-0.01-3.01-2.34-5.35-5.33-5.35c-3.04,0-5.37,2.33-5.37,5.37   c0,3.03,2.36,5.37,5.38,5.36C-531.15,33.25-528.81,30.87-528.81,27.88z"/>
	<path class="st0" d="M-434.76,24.43c0.16-0.13,0.47-0.34,0.75-0.58c1.63-1.38,4.04-1.33,5.33,0.16c0.31,0.36,0.52,0.82,0.85,1.36   c0.37-0.36,0.69-0.68,1.02-1c1.26-1.19,2.75-1.7,4.48-1.45c1.9,0.28,3.32,2.13,2.91,4.02c-0.55,2.57-1.25,5.11-1.91,7.66   c-0.08,0.3-0.28,0.58-0.49,0.82c-0.44,0.49-1.09,0.58-1.64,0.26c-0.56-0.32-0.62-0.84-0.48-1.39c0.45-1.74,0.94-3.47,1.36-5.22   c0.16-0.68,0.22-1.39,0.2-2.09c-0.02-0.84-0.55-1.37-1.37-1.55c-1.45-0.33-2.98,0.34-3.61,1.81c-0.53,1.23-0.85,2.55-1.22,3.84   c-0.32,1.11-0.55,2.25-0.92,3.34c-0.16,0.47-0.49,0.99-0.9,1.24c-0.32,0.2-0.91,0.12-1.31-0.03c-0.47-0.17-0.55-0.69-0.45-1.16   c0.23-1.02,0.51-2.03,0.76-3.05c0.28-1.12,0.6-2.24,0.81-3.37c0.16-0.85,0.17-1.76-0.68-2.31c-0.93-0.6-1.94-0.52-2.87-0.01   c-0.87,0.48-1.5,1.24-1.78,2.2c-0.59,2.01-1.12,4.05-1.68,6.06c-0.11,0.41-0.27,0.82-0.47,1.19c-0.3,0.57-1.03,0.82-1.6,0.62   c-0.55-0.2-0.87-0.73-0.71-1.41c0.32-1.4,0.7-2.78,1.07-4.17c0.5-1.9,0.99-3.81,1.54-5.71c0.12-0.43,0.37-0.89,0.69-1.19   c0.4-0.39,1.03-0.51,1.49-0.17C-435.26,23.4-435.09,23.9-434.76,24.43z"/>
	<path class="st0" d="M-498.04-1.68c5.64,0.13,10.67,1.92,15.13,5.39c2.69,2.09,4.71,4.7,6.25,7.7c0.38,0.74,0.05,1.73-0.72,2.15   c-0.75,0.41-1.73,0.08-2.18-0.78c-0.91-1.74-2.03-3.3-3.39-4.72c-2.95-3.08-6.52-5.02-10.66-5.92c-3.46-0.75-6.88-0.67-10.26,0.47   c-1.01,0.34-1.85-0.13-2.17-1.12c-0.27-0.84,0.18-1.66,1.13-2.01C-502.7-1.32-500.4-1.68-498.04-1.68z"/>
	<path class="st0" d="M-463.31,36.02c-4.05,0.01-6.62-3.26-5.72-7.27c0.84-3.74,4.33-6.25,8.13-5.84c2.72,0.29,4.78,2.6,4.9,5.33   C-455.82,32.39-459.38,36.03-463.31,36.02z M-458.71,28.43c-0.02-1.01-0.35-2.13-1.51-2.76c-1.28-0.7-2.63-0.66-3.85,0.13   c-1.65,1.07-2.43,2.63-2.39,4.62c0.05,2.13,1.62,3.5,3.74,3.2C-460.49,33.31-458.71,31.11-458.71,28.43z"/>
	<path class="st0" d="M-498.04,5.13c3.85,0.12,7.76,1.61,11.19,4.42c1.74,1.42,3.05,3.16,4,5.18c0.4,0.84,0.17,1.67-0.51,2.09   c-0.76,0.46-1.6,0.2-2.14-0.61c-0.69-1.03-1.36-2.07-2.13-3.03c-1.43-1.76-3.29-2.98-5.38-3.81c-2.88-1.15-5.86-1.34-8.89-0.73   c-0.37,0.07-0.79,0.11-1.13,0.01c-0.59-0.17-0.97-0.62-1.02-1.26c-0.05-0.64,0.23-1.14,0.81-1.41   C-501.79,5.28-500.22,5.15-498.04,5.13z"/>
	<path class="st0" d="M-411.21,36.02c-1.73-0.04-3.26-0.62-4.65-1.64c-0.57-0.42-0.68-1.08-0.31-1.64c0.36-0.55,0.89-0.64,1.56-0.24   c0.42,0.25,0.81,0.55,1.24,0.79c0.99,0.56,2.08,0.64,3.18,0.54c0.68-0.06,1.32-0.6,1.43-1.12c0.16-0.74-0.02-1.16-0.83-1.61   c-0.82-0.45-1.71-0.78-2.54-1.22c-2.18-1.14-2.72-2.93-1.4-5c0.41-0.64,1.12-1.22,1.82-1.53c2.29-1,4.49-0.46,6.55,0.77   c0.58,0.35,0.67,1.07,0.28,1.64c-0.36,0.54-0.97,0.68-1.56,0.26c-0.86-0.61-1.79-1.01-2.85-1.04c-0.42-0.01-0.85,0.05-1.26,0.16   c-0.6,0.16-0.93,0.6-1.01,1.2c-0.08,0.61,0.27,1.03,0.77,1.29c0.78,0.4,1.61,0.72,2.36,1.16c0.64,0.37,1.31,0.78,1.77,1.34   c1.07,1.29,0.61,3.63-0.78,4.71C-408.55,35.7-409.82,36.05-411.21,36.02z"/>
	<path class="st0" d="M-474.49,23.12c0.65,0,1.31-0.03,1.97,0.01c1.01,0.05,1.53,1.01,0.94,1.82c-0.18,0.25-0.59,0.43-0.91,0.46   c-0.68,0.07-1.37,0.06-2.05,0.01c-0.55-0.04-0.74,0.19-0.86,0.68c-0.68,2.65-1.39,5.3-2.11,7.94c-0.11,0.41-0.28,0.81-0.51,1.16   c-0.4,0.62-1.06,0.8-1.67,0.54c-0.54-0.24-0.76-0.7-0.59-1.46c0.25-1.1,0.56-2.2,0.86-3.29c0.44-1.63,0.88-3.27,1.31-4.9   c0.05-0.18,0.06-0.37,0.1-0.59c-0.17-0.03-0.29-0.05-0.41-0.08c-0.61-0.12-1-0.58-0.98-1.16c0.01-0.57,0.46-1.16,1.04-1.11   c0.99,0.1,1.15-0.44,1.34-1.23c0.74-2.92,3.1-4.36,5.91-3.7c0.82,0.19,1.19,0.69,1.05,1.41c-0.15,0.73-0.65,1.02-1.51,0.83   C-473.36,20.08-474.49,21.31-474.49,23.12z"/>
	<path class="st0" d="M-447.12,25.52c0.53-0.58,0.88-1.12,1.36-1.47c0.61-0.44,1.3-0.8,2.01-1.06c0.65-0.23,1.23,0.14,1.44,0.74   c0.21,0.59-0.04,1.31-0.58,1.62c-0.2,0.12-0.42,0.24-0.64,0.3c-2.94,0.68-4.44,2.69-5.16,5.46c-0.28,1.1-0.55,2.2-0.9,3.28   c-0.14,0.43-0.42,0.85-0.75,1.16c-0.42,0.41-0.97,0.42-1.48,0.1c-0.46-0.28-0.59-0.72-0.47-1.22c0.56-2.16,1.12-4.31,1.7-6.46   c0.33-1.24,0.65-2.48,1.02-3.72c0.27-0.9,0.75-1.27,1.48-1.26c0.77,0.01,1.26,0.6,1.14,1.37   C-446.99,24.69-447.04,25.02-447.12,25.52z"/>
	<path class="st0" d="M-491.78,27.77c0.04,4.98-3.99,9.32-9.07,9.33c-4.88,0.01-8.89-4.28-8.89-9.38c0.01-5.15,4.07-9.32,9.07-9.31   C-495.83,18.42-491.78,22.68-491.78,27.77z M-500.74,22.32c-2.76-0.16-5.14,2.32-5.18,5.33c-0.04,2.98,2.33,5.54,5.09,5.55   c2.82,0.01,5.22-2.51,5.24-5.5C-495.57,24.76-497.9,22.33-500.74,22.32z"/>
</g>
<path class="st0" d="M280.08,30.47l8.82-1.8v3.23c-2.54,2.89-6.15,4.53-10.01,4.53c-7.38,0-13.38-6.01-13.38-13.36  c0-7.38,6.01-13.38,13.38-13.38c4.02,0,7.72,1.75,10.28,4.83v2.38h7.59V2.15h-7.59v2.24c-3.14-1.73-6.67-2.65-10.28-2.65  c-11.76,0-21.32,9.56-21.32,21.32s9.56,21.32,21.32,21.32c3.52,0,6.94-0.87,10.01-2.51v2.04h8.17V26.99l3.48-0.7v-8.4l-20.47,4.18  V30.47L280.08,30.47z M314.45,8.66c0.56,0,1.09,0.07,1.54,0.26s0.82,0.41,1.16,0.67c0.34,0.3,0.6,0.6,0.79,0.97  c0.19,0.37,0.34,0.75,0.41,1.16l-2.43,0.75c-0.04-0.11-0.07-0.26-0.11-0.41c-0.04-0.15-0.15-0.3-0.26-0.45  c-0.11-0.11-0.26-0.26-0.45-0.34c-0.19-0.11-0.37-0.15-0.64-0.15c-0.26,0-0.49,0.04-0.67,0.15c-0.19,0.07-0.34,0.19-0.41,0.34  c-0.11,0.15-0.19,0.3-0.22,0.45c-0.04,0.15-0.07,0.3-0.07,0.45v4.61c0,0.45,0.11,0.86,0.3,1.16c0.22,0.34,0.56,0.49,1.05,0.49  c0.56,0,0.94-0.15,1.16-0.41c0.22-0.26,0.34-0.6,0.34-0.97v-0.97h-1.69v-2.14h4.23v2.7c0,0.64-0.07,1.24-0.26,1.76  c-0.15,0.52-0.41,0.97-0.75,1.35c-0.34,0.37-0.75,0.67-1.27,0.9c-0.52,0.22-1.09,0.3-1.76,0.3c-0.71,0-1.31-0.11-1.84-0.34  c-0.52-0.22-0.9-0.52-1.24-0.94c-0.3-0.37-0.56-0.82-0.71-1.35s-0.22-1.05-0.22-1.61v-4.42c0-0.45,0.07-0.94,0.22-1.39  c0.15-0.49,0.37-0.9,0.67-1.27c0.3-0.37,0.71-0.71,1.24-0.94C313.1,8.81,313.7,8.66,314.45,8.66 M327.26,21.17l-1.69-4.91h-1.09  v4.91h-2.58V8.74h4.12c0.52,0,1.01,0.07,1.5,0.22c0.49,0.15,0.9,0.37,1.24,0.67c0.34,0.3,0.64,0.67,0.82,1.12  c0.19,0.45,0.3,1.01,0.3,1.65c0,0.79-0.15,1.5-0.45,2.06s-0.75,1.01-1.35,1.35l2.02,5.39h-2.85V21.17z M327.37,12.44  c0-0.49-0.15-0.82-0.41-1.01c-0.26-0.19-0.6-0.3-1.01-0.3h-1.46v2.81h1.39c0.41,0,0.79-0.11,1.05-0.34  C327.26,13.38,327.37,12.97,327.37,12.44 M333.4,21.17V8.77h7.23v2.4h-4.61v2.55H340v2.4h-3.97v2.62h4.61v2.43 M350.26,21.17  l-2.32-4.12l-1.35-2.62h-0.04v6.74h-2.58V8.77h2.29l2.02,3.71l1.61,3l0.07-0.04V8.77h2.55v12.4 M363.93,18.21  c-0.19,0.97-0.64,1.72-1.31,2.29c-0.71,0.56-1.57,0.82-2.58,0.82c-0.71,0-1.31-0.11-1.84-0.34c-0.52-0.22-0.9-0.52-1.24-0.94  c-0.3-0.37-0.56-0.82-0.71-1.35c-0.15-0.52-0.22-1.05-0.22-1.61v-4.42c0-0.45,0.07-0.94,0.22-1.39c0.15-0.49,0.37-0.9,0.67-1.27  c0.3-0.37,0.71-0.71,1.24-0.94c0.52-0.26,1.12-0.37,1.84-0.37c0.56,0,1.09,0.07,1.54,0.26c0.45,0.19,0.82,0.41,1.16,0.67  c0.34,0.3,0.6,0.6,0.79,0.97c0.19,0.37,0.34,0.75,0.41,1.16l-2.43,0.75c-0.04-0.11-0.07-0.26-0.11-0.41  c-0.04-0.15-0.15-0.3-0.26-0.45c-0.11-0.11-0.26-0.22-0.45-0.34s-0.41-0.15-0.64-0.15c-0.26,0-0.49,0.04-0.67,0.15  c-0.19,0.07-0.34,0.19-0.41,0.34c-0.11,0.15-0.19,0.3-0.22,0.45c-0.04,0.15-0.07,0.3-0.07,0.45v4.61c0,0.49,0.11,0.86,0.3,1.16  c0.22,0.3,0.56,0.45,1.09,0.45c0.37,0,0.67-0.11,0.94-0.34c0.26-0.22,0.45-0.56,0.49-0.94L363.93,18.21L363.93,18.21z M375.06,17.28  c0,0.64-0.11,1.16-0.3,1.69c-0.19,0.49-0.49,0.9-0.82,1.27c-0.34,0.34-0.75,0.64-1.24,0.79c-0.49,0.19-1.01,0.26-1.61,0.26  c-0.71,0-1.31-0.11-1.84-0.34c-0.52-0.22-0.94-0.52-1.24-0.94c-0.34-0.37-0.56-0.82-0.71-1.35s-0.22-1.05-0.22-1.61v-4.42  c0-0.45,0.07-0.94,0.22-1.39c0.15-0.49,0.37-0.9,0.71-1.27c0.34-0.37,0.75-0.71,1.24-0.94c0.52-0.26,1.12-0.37,1.84-0.37  c0.67,0,1.27,0.11,1.76,0.34c0.49,0.22,0.9,0.52,1.24,0.9c0.34,0.37,0.56,0.79,0.71,1.27s0.22,0.97,0.22,1.46v4.65H375.06z   M372.44,12.56c0-0.11-0.04-0.26-0.07-0.41c-0.04-0.15-0.11-0.3-0.22-0.45c-0.11-0.15-0.26-0.26-0.41-0.37  c-0.19-0.11-0.37-0.15-0.64-0.15c-0.26,0-0.49,0.04-0.67,0.15c-0.19,0.07-0.34,0.19-0.45,0.34c-0.11,0.15-0.19,0.3-0.26,0.45  c-0.04,0.15-0.07,0.3-0.07,0.45v4.61c0,0.49,0.11,0.86,0.34,1.16c0.22,0.3,0.6,0.45,1.09,0.45c0.37,0,0.67-0.11,0.94-0.37  c0.26-0.22,0.41-0.56,0.41-0.97v-4.87H372.44z M318.13,33.75c0,1.06-0.31,1.94-1,2.51c-0.69,0.63-1.63,0.88-2.82,0.88  c-0.5,0-0.94-0.06-1.32-0.13c-0.38-0.13-0.75-0.25-1.06-0.38c-0.31-0.19-0.56-0.38-0.81-0.63c-0.25-0.25-0.5-0.5-0.69-0.75l1.88-1.5  c0.31,0.44,0.63,0.69,0.94,0.94c0.31,0.19,0.69,0.31,1.13,0.31c0.5,0,0.81-0.13,1-0.31c0.19-0.19,0.31-0.5,0.31-0.81  c0-0.19-0.06-0.38-0.13-0.56c-0.13-0.19-0.25-0.31-0.44-0.44c-0.19-0.13-0.38-0.25-0.63-0.31c-0.25-0.06-0.5-0.19-0.75-0.25  c-0.5-0.19-0.94-0.38-1.32-0.56c-0.38-0.19-0.69-0.44-0.88-0.69c-0.25-0.25-0.38-0.56-0.5-0.88c-0.13-0.31-0.19-0.69-0.19-1.13  c0-0.5,0.06-0.94,0.25-1.32c0.19-0.44,0.44-0.75,0.75-1.06c0.31-0.31,0.69-0.5,1.13-0.69c0.44-0.19,0.94-0.25,1.44-0.25  c0.88,0,1.57,0.13,2.13,0.38c0.56,0.25,1,0.69,1.38,1.19l-1.69,1.57c-0.56-0.63-1.13-0.94-1.82-0.94c-0.38,0-0.63,0.06-0.88,0.25  s-0.31,0.44-0.31,0.75c0,0.19,0.06,0.31,0.19,0.44c0.13,0.13,0.25,0.25,0.44,0.38c0.19,0.13,0.38,0.19,0.63,0.31  c0.25,0.13,0.5,0.19,0.81,0.25c0.56,0.19,1.06,0.38,1.44,0.56c0.38,0.25,0.69,0.5,0.94,0.75c0.25,0.31,0.38,0.63,0.5,0.94  C318.06,32.94,318.13,33.38,318.13,33.75 M328.27,34.38c-0.19,0.88-0.56,1.57-1.19,2.07c-0.63,0.5-1.44,0.75-2.32,0.75  c-0.63,0-1.19-0.13-1.69-0.31c-0.44-0.19-0.81-0.5-1.13-0.81c-0.31-0.38-0.5-0.75-0.63-1.25c-0.13-0.44-0.19-0.94-0.19-1.44v-4.07  c0-0.44,0.06-0.88,0.19-1.25c0.13-0.44,0.31-0.81,0.63-1.19c0.31-0.38,0.69-0.63,1.13-0.88c0.44-0.25,1-0.31,1.69-0.31  c0.5,0,1,0.06,1.38,0.25c0.44,0.19,0.75,0.38,1.06,0.63c0.31,0.25,0.5,0.56,0.69,0.88c0.19,0.31,0.31,0.69,0.38,1.06l-2.25,0.69  c0-0.13-0.06-0.25-0.13-0.38c-0.06-0.13-0.13-0.25-0.25-0.38c-0.13-0.13-0.25-0.25-0.38-0.31c-0.19-0.06-0.38-0.13-0.56-0.13  c-0.25,0-0.44,0.06-0.63,0.13s-0.31,0.19-0.38,0.31c-0.13,0.13-0.19,0.25-0.19,0.38c-0.06,0.13-0.06,0.31-0.06,0.44v4.2  c0,0.44,0.13,0.81,0.31,1.06c0.19,0.31,0.5,0.44,1,0.44c0.31,0,0.63-0.13,0.88-0.31c0.25-0.19,0.38-0.5,0.44-0.88L328.27,34.38  L328.27,34.38z M331.47,25.8h2.38v11.34h-2.38V25.8z M337.29,37.14V25.8h6.64v2.19h-4.26v2.32h3.63v2.19h-3.63v2.38h4.26v2.25   M352.76,37.14l-2.07-3.82l-1.25-2.38h-0.06v6.2H347V25.8h2.13l1.82,3.38l1.5,2.69h0.06V25.8h2.32v11.34 M365.35,34.38  c-0.19,0.88-0.56,1.57-1.19,2.07c-0.63,0.5-1.44,0.75-2.32,0.75c-0.63,0-1.19-0.13-1.69-0.31c-0.44-0.19-0.81-0.5-1.13-0.81  c-0.31-0.38-0.5-0.75-0.63-1.25c-0.13-0.44-0.19-0.94-0.19-1.44v-4.07c0-0.44,0.06-0.88,0.19-1.25c0.13-0.44,0.31-0.81,0.63-1.19  s0.69-0.63,1.13-0.88c0.44-0.25,1-0.31,1.69-0.31c0.5,0,1,0.06,1.38,0.25c0.44,0.19,0.75,0.38,1.06,0.63s0.5,0.56,0.69,0.88  c0.19,0.31,0.31,0.69,0.38,1.06l-2.25,0.69c0-0.13-0.06-0.25-0.13-0.38c-0.06-0.13-0.13-0.25-0.25-0.38  c-0.13-0.13-0.25-0.25-0.38-0.31c-0.19-0.06-0.38-0.13-0.56-0.13c-0.25,0-0.44,0.06-0.63,0.13s-0.31,0.19-0.38,0.31  c-0.13,0.13-0.19,0.25-0.19,0.38c-0.06,0.13-0.06,0.31-0.06,0.44v4.2c0,0.44,0.13,0.81,0.31,1.06c0.19,0.31,0.5,0.44,1,0.44  c0.31,0,0.63-0.13,0.88-0.31c0.25-0.19,0.38-0.5,0.44-0.88L365.35,34.38L365.35,34.38z M368.48,37.14V25.8h6.58v2.19h-4.26v2.32h3.7  v2.19h-3.7v2.38h4.26v2.25"/>
</svg>