<svg xmlns:xlink="http://www.w3.org/1999/xlink" xmlns="http://www.w3.org/2000/svg" id="Layer_1" data-name="Layer 1" viewBox="0 0 49.35 67.16" width="65"  height="80" ><defs><style>.cls-1{fill:#fff}.cls-2{fill:#575757}.cls-3{fill:#575757}</style></defs><path class="cls-1" d="M27.74 3.47A17 17 0 0125.43 0a17 17 0 01-2.31 3.47C17.32 10.2 9.51 12.45.76 4.56v45.88c.09 5.21 4.05 7 7.71 8.34l2.86.81c4.29.55 8.45 1.62 14.1 7.57 5.65-6 9.82-7 14.1-7.57l2.86-.81c3.66-1.37 7.62-3.13 7.71-8.34V4.56c-8.75 7.89-16.56 5.64-22.36-1.09z" transform="translate(-.76)"/><path class="cls-2" d="M27.77 6.39a15.39 15.39 0 01-2.16-3.23 15.39 15.39 0 01-2.16 3.23A14.89 14.89 0 013 8.38v40.47c0 4.71 3.67 6.31 7 7.55l2.62.73c3.93.5 7.75 1.47 12.95 6.87 5.19-5.41 9-6.37 12.95-6.87l2.62-.73c3.35-1.24 7-2.83 7.06-7.54V8.38a14.89 14.89 0 01-20.43-1.99z" transform="translate(-.76)"/><path class="cls-1" d="M31.16 11s-7-1-10.3 4.37a11.09 11.09 0 00-1 10.15s7 1.18 10.71-4.55c3.11-4.73.59-9.97.59-9.97z" transform="translate(-.76)"/><path class="cls-2" d="M23.68 15.1l3.12 1.6.36-.37-3.16-1.6zM22.63 16.44l3 1.55.37-.43L23 16zM21.81 17.83l2.93 1.5.26-.42-3-1.51zM26.78 12.45l-.46.32 3 1.54.42-.31zM24.89 13.91L28 15.5l.43-.39-3.09-1.58z" transform="translate(-.76)"/><path class="cls-2" d="M28.35 13.51A40.51 40.51 0 0131.58 11l-.27-.18a13.68 13.68 0 00-3.74 2.34zM23.15 18.19a40.12 40.12 0 00-3.5 7.43l.35.19a48.67 48.67 0 013.82-7.3z" transform="translate(-.76)"/><path class="cls-1" d="M42.53 13.38l.75 2.15h2.38l-1.89 1.51.72 2.31-1.96-1.49-1.95 1.4.75-2.23-1.84-1.5h2.29l.75-2.15zM42.53 20.4l.75 2.14h2.38l-1.89 1.51.72 2.31-1.96-1.49-1.95 1.4.75-2.23-1.84-1.5h2.29l.75-2.14zM35 20.4l.76 2.14h2.37l-1.89 1.51.72 2.31L35 24.87l-1.95 1.4.75-2.23-1.84-1.5h2.29L35 20.4zM34.94 13.38l.76 2.15h2.38l-1.9 1.51.72 2.31-1.96-1.49-1.95 1.4.75-2.23-1.84-1.5h2.29l.75-2.15zM14.67 13.38l.76 2.15h2.37l-1.89 1.51.72 2.31-1.96-1.49-1.96 1.4.76-2.23-1.84-1.5h2.29l.75-2.15zM14.67 20.4l.76 2.14h2.37l-1.89 1.51.72 2.31-1.96-1.49-1.96 1.4.76-2.23-1.84-1.5h2.29l.75-2.14zM7.14 20.4l.76 2.14h2.38l-1.9 1.51.72 2.31-1.96-1.49-1.95 1.4.75-2.23-1.84-1.5h2.29l.75-2.14zM7.08 13.38l.76 2.15h2.38l-1.9 1.51.72 2.31-1.96-1.49-1.95 1.4.75-2.23-1.84-1.5h2.29l.75-2.15z"/><path class="cls-1" d="M5.2 27.93v19.44c.08 4.33 3.35 5.79 6.36 6.93l2.37.7c3.54.46 7 1.35 11.66 6.31 4.68-5 8.12-5.85 11.66-6.31l2.36-.67c3-1.14 6.28-2.6 6.36-6.93V27.93H5.2z" transform="translate(-.76)"/><path class="cls-3" d="M26.82 30.5h-4.9v3.08h1.29v17.81c-.79-.09-1.47-.14-1.47-.14V54a19.52 19.52 0 012.92.55C25.64 54.88 28 56 28 56v-3.08a9.71 9.71 0 00-1.22-.63v-10h1.89l.45 1.27h2v-5.67h-2l-.48 1.36h-1.82v-5.67h2.37l.81 1.81h2.44V30.5h-5.62zM19.6 30.5h-4.66v3.08H16v7.52l-3.77-10.77H7.59v3.07h1v13.55H7.04L7.32 50a17.51 17.51 0 013 .38c1 .25 3.5 1.32 3.5 1.32l-.32-3.42a9.36 9.36 0 00-1.27-.61v-6.41l3.9 11.16 3.47 1.07V33.58h1V30.5h-1zM41.08 43.25v4.38c-1 .21-2 .46-2.85.7V33.58l1.05-.48v-2.6h-5.7v2.6l1.05.48v16.19c-.61.32-1.14.63-1.55.89v3.52a60.38 60.38 0 015.36-2.82A22 22 0 0143.93 50v-6.75h-2.85z" transform="translate(-.76)"/></svg>