<svg xmlns:xlink="http://www.w3.org/1999/xlink" xmlns="http://www.w3.org/2000/svg" id="Layer_1" data-name="Layer 1" viewBox="0 0 99.88 34" width="115"  height="45" ><defs><style>.cls-1{fill:#575757}</style></defs><path class="cls-1" d="M42.81 7.35h3.93l9.05 11.87V7.35h4.2v19.31h-3.61l-9.37-12.29v12.29h-4.2V7.35zM69.52 19.05l-7.4-11.7h4.96l4.61 7.74 4.68-7.74h4.82l-7.4 11.6v7.71h-4.27v-7.61zM83 18.26v-11h4.27v10.86c0 3.13 1.58 4.78 4.16 4.78s4.16-1.58 4.16-4.65V7.18h4.27v10.94c0 5.85-3.27 8.71-8.47 8.71S83 23.94 83 18.26M34 34H0V0h34v34zm-18.17-4a.38.38 0 00.69 0l1.2-9.43h-2.89zm2.86-11.53H13.8v1.41h4.92v-1.4zm-1.41-.69C23.51 18 24 12.36 24 10.22c0-.14-.07-.14-.1 0a5.92 5.92 0 01-3.24 3 5.87 5.87 0 00-3.41 4.58.12.12 0 00.07 0m-.69-.41c1-4.72 4.82-4.85 5.16-5.75.55-1.41-.45-3.89-.69-4.16h-.07a8.07 8.07 0 01-2 2.72c-.86.69-4.2 3.17-2.51 7.16.07.07.1.07.1 0m-.65.17c-2.1-4.44 2.07-7.33 2.75-8a.29.29 0 00.07-.28 10.12 10.12 0 00-1.07-4h-.07c-.37 1.5-2.3 3.56-2.65 4.01-3.2 3.82-2.48 6.16.89 8.36 0 0 .07 0 .07-.07m-1 .17c-3.48-2.07-3.13-5.06-1.69-7.23a.32.32 0 000-.21 8.9 8.9 0 00-.86-2.2c-.07-.1-.1-.07-.1 0a12.34 12.34 0 01-1.72 3.79c-1.1 1.82-1.1 5.78 4.37 6v-.07"/></svg>