<svg xmlns:xlink="http://www.w3.org/1999/xlink" xmlns="http://www.w3.org/2000/svg" id="Layer_1" data-name="Layer 1" viewBox="0 0 64.06 27.8" width="70"  height="32" ><defs><style>.cls-1{fill:#575757;fill-rule:evenodd}</style></defs><path class="cls-1" d="M17.42 2.42c1.3 0 4.9.17 2.58 7-2.44 7.15-7.84 5.68-7.84 5.68l4-12.68h1.28zm9.66 7.45c3-7.51-2.64-9.55-6.36-9.55H8.43a1.73 1.73 0 01.65 2.2L1.93 25.41a3.65 3.65 0 01-1.93 2h9.94a1.57 1.57 0 01-1-1.94l2.6-8.28s12 1.62 15.58-7.33"/><path class="cls-1" d="M31.11 23.9a9.42 9.42 0 01-3.4 1.17c-1.35.12-3.6-.4-3.59-3.1 0-2.32 2.52-4 3.87-4.59a19.67 19.67 0 003.13 6.52M35 9.32c-.31 2.18-3.14 4.38-3.82 4.68a7.53 7.53 0 011-4.74c.67-1 1.57-1.51 2.3-1.26A1.08 1.08 0 0135 9.32m0 18.09h6.68a18.41 18.41 0 01-6.56-4.15 8.11 8.11 0 002.51-5.36h-3.44a1.44 1.44 0 01.68 1.2 4.4 4.4 0 01-.87 2.53 13.25 13.25 0 01-2.48-5.75 21.39 21.39 0 004.8-2.74 4.55 4.55 0 001.77-3.24v-.09a3 3 0 00-.91-2.15 4.72 4.72 0 00-4.25-1.09 6.51 6.51 0 00-3 1.49c-2 1.89-2.29 5-2.29 6.43v.76l-.32.13c-1.47.54-5.42 1.59-6.83 4.83a6.31 6.31 0 00-.49 2.32 5.2 5.2 0 00.76 2.79c1 1.55 2.69 2.53 5.38 2.48 2.94-.05 5.82-2 6.34-2.41a15.29 15.29 0 002.52 2"/><path class="cls-1" d="M55.37 2.44c4-1 7.25 2.16 7.56 2.37l1.13-3.61c-1.58-.47-13-4.33-21 4.88-5 5.66-6.18 17.27.11 20.37 6.73 3.33 14.16-.51 14.7-.78l3.09-9.79a3.49 3.49 0 012.4-2.44H52.64A1.86 1.86 0 0154 15.75l-3.07 9.79c-.4.08-9 2.22-4.18-12.81 1-3.23 3.93-9.15 8.67-10.29"/></svg>