<svg xmlns="http://www.w3.org/2000/svg" xmlns:xlink="http://www.w3.org/1999/xlink" version="1.1" id="Layer_1" x="0px" y="0px" viewBox="0 0 238 44" style="enable-background:new 0 0 238 44;" xml:space="preserve" width="238"  height="44" >
<style type="text/css">
	.st0{fill:#FFFFFF;}
</style>
<g>
	<path class="st0" d="M1.5,38.9C4.3,38.7,6,37.1,6,34.5c0.2-8.3,0.3-16.6,0.4-25c0-0.4-0.1-0.9-0.1-1.3C6.1,6,5.4,4.2,2.7,3.9   c0-0.1,0.1-0.2,0.1-0.3c0.5,0,1,0,1.5,0C11,3.6,17.7,3.7,24.4,3.8c5.2,0.1,9.1,4,9.3,9.2c0,0.8,0.1,1.6,0,2.3c0,1,0.4,1.2,1.3,0.9   c1-0.4,1.9-0.9,2.9-1.4c2.8-1.2,5.2-0.7,6.8,1.8c1.6,2.5,3,5.1,4.3,7.7c1.7,3.4,3.1,7,5,10.3c0.9,1.7,2.4,3.1,3.7,4.6   c-3.4,0.2-7,0.9-10.5-0.3c-0.3-0.1-0.7-0.2-0.9-0.4c-1.7-1.9-3.3-1.1-5.1,0c-2.8,1.7-5.9,2.3-9.2,1.4c-2.7-0.8-4.4-2.5-4.8-5.3   c-0.4-2.9,0.3-5.3,3.1-6.9c2.4-1.4,4.8-2.8,7.5-4.3c-1-1.4-1.7-2.8-2.7-3.9c-0.3-0.4-1.4-0.5-2-0.3c-0.9,0.3-1.7,0.8-2.4,1.4   c-2.4,2-5.3,2.7-8.3,2.8c-1.3,0-2.5,0.1-3.8,0.3c-1.3,0.1-2.1,0.9-2.3,2.2c-0.6,3.4-0.4,6.6,0.5,9.9c0.5,1.7,2,2.3,3.5,2.9   c0.4,0.2,0.9,0.3,1.4,0.5c0,0.2,0,0.3,0,0.5c-6.7,0-13.4,0-20.1,0C1.5,39.3,1.5,39.1,1.5,38.9z M25.3,14c0-2.2-0.9-4.7-2.1-6.2   c-1.3-1.6-3-2.4-4.9-2.5c-1-0.1-1.9,0.2-1.9,1.4c0,4.6,0,9.2,0.1,13.8c0,0.3,0.6,0.9,0.9,1c4,0.6,7-1.6,7.7-5.6   C25.2,15.1,25.3,14.4,25.3,14z M43,34.4c-0.3-3.2-1.7-5.3-3-7.5c-1.4-2.1-2.6-2.1-3.8,0.2c-0.4,0.7-0.6,1.7-0.5,2.5   c0.3,2.4,1.3,4.5,3.2,6.1c0.6,0.5,1.9,0.8,2.6,0.5C42.2,35.9,42.7,34.8,43,34.4z"/>
	<path class="st0" d="M176.6,21c-1.4-0.8-1.7-2-0.6-3c3-3,8.2-5.5,13-3.8c1.5,0.5,3.1,1.6,3.9,2.9c1.7,2.6,2.9,5.5,4.3,8.3   c1.2,2.3,2.2,4.7,3.4,7c0.4,0.8,1,1.4,1.9,2c0.1-0.5,0.2-1,0.2-1.5c0-4.4,0.1-8.8,0.1-13.2c0-1-0.8-1.9-1.2-2.8   c-0.2-0.5-0.5-0.9-0.7-1.4c0.5-0.2,1-0.6,1.5-0.6c1.4-0.1,2.7,0,4.1,0c1.6,0,3.2,0,5,0c0.1,0.7,0.2,1.6,0.3,2.8   c0.6-0.5,1.1-0.8,1.4-1.1c0.8-0.8,1.4-1.7,2.2-2.3c1.3-1,2.3-0.8,3.6,0.3c0.4,0.4,1.3,0.4,1.9,0.3c0.3-0.1,0.6-0.8,0.6-1.3   c0.2-2.6-0.1-3.4-1.4-4.8c3.3-0.7,6.4-1.3,9.9-2.1c0.1,2.1,0.3,4,0.2,6c0,2.3-0.1,2.3,2.3,2.3c1,0,1.9,0,2.9,0   c0.1,0.2,0.1,0.3,0.2,0.5c-0.4,0.2-0.7,0.5-1.1,0.6c-0.8,0.1-1.7,0.1-2.5,0.1c-2,0-2,0-2,2.1c0,3.5,0,7,0,10.4c0,1-0.1,2.1,0.1,3.1   c0.3,3,2.3,3.9,4.9,2.3c0.5-0.3,1-0.6,1.6-0.8c-0.4,1.7-1.4,3-2.7,4c-2.4,1.8-5.1,2.6-8.1,2.4c-2.4-0.2-4.2-1.8-4.2-4.3   c-0.1-5.9,0-11.8,0-17.8c0-0.7,0.1-1.4-0.9-1.4c-1.1-0.1-1.6,0.2-1.5,1.4c0.1,0.9,0,1.7,0,2.9c-1-0.4-1.7-0.6-2.3-0.9   c-2-0.8-3.8,0-4.4,2c-0.3,1-0.4,2.1-0.5,3.2c-0.1,3,0.1,6.1-0.1,9.1c-0.1,2,0.5,3.4,2.3,4.4c0.3,0.2,0.5,0.4,0.9,0.7   c-0.3,0.1-0.4,0.3-0.6,0.3c-6.2,0-12.3-0.1-18.5,0c-1.9,0-3.2-0.7-4-2.3c-1.9,0.9-3.7,1.8-5.5,2.6c-2.4,1-4.8,1.2-7.3,0.1   c-5.3-2.6-6-8.2-1.3-11.8c1.5-1.2,3.2-2.1,4.9-2.9c2.6-1.4,2.7-1.4,1.1-3.9c-0.6-0.9-1.2-1.8-2-2.5c-1.7-1.6-3.3-1.3-4.3,0.8   C177.1,19.6,176.9,20.2,176.6,21z M189.6,34.1c-0.4-3.8-2.2-6.3-4.1-8.9c-0.1-0.2-0.9-0.2-1.3,0c-1.5,0.9-2.3,2.3-2.1,4.1   c0.3,2.4,1.3,4.6,3.2,6.1c0.6,0.5,1.9,0.8,2.6,0.5C188.7,35.7,189.2,34.6,189.6,34.1z"/>
	<path class="st0" d="M131.1,15.3c0.8,0,1.6,0,2.4,0c0.9,0.1,1.3-0.3,1.3-1.3c0-1.6,0.2-3.2,0.3-5c2.5-0.4,5-0.8,7.5-1.1   c0.3,0,0.8,0.6,0.9,0.9c0.1,1.7,0.1,3.3,0,5c-0.1,1.1,0.4,1.4,1.4,1.4c4.1-0.2,8.1-0.3,12.2-0.4c0.6,0,1.3,0,2.3,0   c-0.5,1-0.7,1.7-1.1,2.4c-1.6,2.8-2.9,5.6-2.7,9c0.2,3.1,1.6,5.6,3.9,7.7c0.9,0.8,1.9,1.2,3.1,0.8c1.2-0.5,1.7-1.5,1.7-2.7   c0-4.4,0.1-8.8,0-13.2c-0.1-3.6-0.1-3.6,3.4-3.6c1.6,0,3.1,0,4.7,0.1c0.1,0,0.2,0.1,0.4,0.1c0,1.2,0,2.4,0,3.6   c0,5.3,0.1,10.6,0.1,15.9c0,1.8,0.7,3.1,2.4,3.8c0.1,0.1,0.3,0.2,0.6,0.6c-1.2,0.1-2.1,0.2-3,0.2c-2.2,0-4.4,0-6.6,0   c-1,0-2.1,0.2-2.5-1.2c-0.1-0.3-1.1-0.4-1.7-0.3c-1.4,0.4-2.8,1-4.2,1.4c-3.9,1.1-6.5,0.2-8.7-3.2c-0.1-0.1-0.2-0.2-0.4-0.5   c-0.7,0.8-1.4,1.6-2.2,2.3c-2.7,2.4-5.8,2.7-9.1,1.5c-1.6-0.5-2.6-1.6-2.7-3.3c-0.1-3.5-0.3-7-0.3-10.6c0-2.5,0.1-5.1,0.2-7.6   c0.1-1.2-0.4-1.7-1.6-1.6c-0.7,0.1-1.4-0.1-2.1-0.2C131,15.8,131,15.6,131.1,15.3z M143.4,25c0,0-0.1,0-0.1,0c0,2.5,0,5,0,7.5   c0,1.7,1,2.9,2.5,3.2c1.9,0.4,2.8-0.6,2.2-2.4c-0.2-0.5-0.3-1-0.4-1.6c-1.2-4.3-0.8-8.2,2.1-11.7c0.4-0.5,0.8-1.1,1.1-1.7   c0.5-1.2,0.1-1.9-1.3-1.9c-1.6,0-3.1,0-4.7-0.1c-1.1,0-1.4,0.4-1.4,1.5C143.5,20.2,143.4,22.6,143.4,25z"/>
	<path class="st0" d="M128.2,12.7c-0.3-0.6-0.7-1.3-0.9-1.9c-1.3-4.1-7.2-6.7-11.2-6.2c-2.3,0.3-4.2,2.5-4.4,5.2   c-0.2,2.2,1,4.1,3.3,4.8c2.3,0.7,4.8,0.9,7.2,1.5c1.9,0.5,3.8,1,5.6,1.8c4.2,1.9,6.1,5.8,5.1,10.2c-1.4,6.6-7.6,12.3-14.5,13.2   c-3.2,0.4-6.3,0.4-9.3-0.6c-6.2-2.1-8.2-8.4-4.4-13.7c0.9-1.2,1.6-1.7,3-1.7c-0.6,3,0,5.6,2,7.9c2.5,2.9,5.5,4.8,9.2,5.6   c2.8,0.6,5-0.6,5.7-3.5c1.1-4.8-0.8-8.5-6-9.4c-1.9-0.3-3.8-0.5-5.7-0.8c-6-1.2-8.3-4.7-7.3-10.7c1.2-6.9,5.5-10.8,12.8-11.6   c2.3-0.2,4.6-0.3,6.9-0.3c2.4,0,3.5,1,3.5,3.4c0,2.2-0.3,4.5-0.4,6.7C128.4,12.6,128.3,12.7,128.2,12.7z"/>
	<path class="st0" d="M82.5,39.4c-3.6,0-7.2,0-10.8,0c-0.1-0.5-0.1-1-0.2-1.7c-0.5,0.2-1,0.4-1.5,0.6c-1.3,0.5-2.6,1.1-4,1.4   c-4.9,1-8.8-1.7-10.5-7.1c-1.7-5.2-0.5-9.8,3.1-13.9c0.4-0.5,0.6-1.1,0.9-1.7c-0.6-0.2-1.3-0.6-1.9-0.6c-1.3-0.1-2.7,0-4,0   c1-1,10.2-1.5,13.9-0.7c-0.5,0.9-1,1.8-1.6,2.6c-3.2,4.9-2.9,10.5,0.9,14.9c0.9,1.1,2,2.4,3.5,1.8c1.5-0.5,1.3-2.2,1.3-3.5   c0.1-4.9,0.2-9.8,0.2-14.7c0-1.1,0.4-1.6,1.5-1.6c1.8,0,3.6,0.1,5.4,0c1.3-0.1,1.6,0.3,1.6,1.7c-0.1,5.8,0,11.5,0,17.3   C80.2,36.3,80.7,38,82.5,39.4z"/>
	<path class="st0" d="M84.2,39.5c0.2-2.5,0.5-4.9,0.6-7.3c0.3-5.9,0.5-11.7,0.5-17.6c0-1.9-0.5-3.8-1.1-5.6   c-0.5-1.6-1.1-3.4-3.4-3.3c0.2-0.1,0.5-0.2,0.7-0.2c3.4-0.1,6.9-0.1,10.3-0.3c1.3-0.1,1.7,0.4,1.7,1.7c0,9.2,0,18.3,0,27.5   c0,3.8,0,3.8,3.9,3.7c0.4,0,0.9,0,1.5,0.3c-0.5,0.4-1,1-1.6,1C93,39.5,88.6,39.5,84.2,39.5z"/>
</g>
</svg>