<svg xmlns:xlink="http://www.w3.org/1999/xlink" xmlns="http://www.w3.org/2000/svg" width="155" height="54" viewBox="0 0 155 54" fill="none">
<path d="M88.8966 0.982899C87.8575 1.25441 87.0145 2.00106 86.642 2.97075C86.3578 3.7271 86.4068 5.13314 86.7499 5.84101C87.7301 7.84825 90.6414 8.32339 92.3764 6.75251C93.141 6.05434 93.3664 5.51132 93.3664 4.28952C93.3664 3.37801 93.3468 3.27135 93.043 2.66045C92.8077 2.18531 92.5725 1.8944 92.2294 1.62289C91.3668 0.944111 90.0042 0.682297 88.8966 0.982899Z" fill="white"/>
<path d="M0.0098023 4.9781L0.0196046 9.04107L11.3119 21.8894L22.6041 34.7376L26.4466 34.7667L30.2891 34.7861V34.5631C30.2891 34.408 28.7599 32.6237 25.1919 28.6383C22.3786 25.4966 20.0653 22.8978 20.0457 22.859C20.0261 22.8203 20.3692 22.6942 20.8103 22.5778C25.0449 21.4724 27.6425 18.67 28.3875 14.384C28.6325 13.0265 28.5345 10.515 28.2012 9.2544C27.1916 5.49203 24.3881 2.70904 20.4378 1.57451C18.6048 1.05088 18.3891 1.04119 8.85147 0.973309L0 0.915127L0.0098023 4.9781ZM18.0264 7.1114C20.9769 7.83866 22.6531 10.5635 22.0062 13.5792C21.4572 16.1391 19.1733 17.7973 16.3208 17.7003L15.4974 17.6712L10.9884 12.4931C8.49859 9.64227 6.46952 7.22776 6.46952 7.13079C6.46952 6.96595 6.69497 6.95625 11.9294 6.95625C16.6443 6.95625 17.4775 6.97564 18.0264 7.1114Z" fill="white"/>
<path d="M63.0283 17.9137V34.7861H65.969H68.9097V17.9137V1.04118H65.969H63.0283V17.9137Z" fill="white"/>
<path d="M74.791 17.9137V34.7861H77.7317H80.6724V17.9137V1.04118H77.7317H74.791V17.9137Z" fill="white"/>
<path d="M129.194 17.9137V34.7861H132.135H135.076V17.9137V1.04118H132.135H129.194V17.9137Z" fill="white"/>
<path d="M43.3752 10.6023C40.2679 11.0677 37.9251 12.2313 36.0039 14.2677C32.5044 17.9913 31.7203 24.1778 34.1414 28.9293C36.2195 32.9922 40.2091 35.271 45.2376 35.271C50.923 35.271 55.3732 32.2747 57.0494 27.3293C57.5297 25.9136 57.6474 25.2348 57.7062 23.4409C57.7748 21.4239 57.618 20.27 57.0984 18.7088C55.7065 14.5974 52.6188 11.8532 48.2273 10.8253C47.5902 10.6702 46.9629 10.6217 45.5317 10.5926C44.5123 10.5732 43.5418 10.5829 43.3752 10.6023ZM46.7472 16.0228C48.6783 16.4785 50.4133 18.03 51.2367 20.047C51.6484 21.0748 51.7758 21.8991 51.7268 23.2954C51.6974 24.3912 51.6484 24.6724 51.3739 25.4675C50.972 26.6505 50.5113 27.4069 49.6879 28.202C48.5312 29.3365 47.1099 29.8796 45.2376 29.8796C43.3654 29.8796 41.9441 29.3365 40.7874 28.202C39.9738 27.4069 39.5131 26.6602 39.0916 25.4675C38.7779 24.5851 38.7681 24.5075 38.7681 22.956C38.7681 21.55 38.7975 21.2688 38.9936 20.6288C39.7582 18.224 41.4245 16.5464 43.5713 16.0325C44.3554 15.8483 45.963 15.8483 46.7472 16.0228Z" fill="white"/>
<path d="M111.814 10.738C109.922 11.0774 107.923 12.1053 106.305 13.5695C105.952 13.8895 105.648 14.1416 105.629 14.1222C105.619 14.1028 105.521 13.3755 105.423 12.5028L105.247 10.9319H102.561H99.8848L99.9044 22.83L99.9338 34.7376H102.874H105.815L105.864 27.9014L105.913 21.0651L106.178 20.2894C106.844 18.35 108.246 16.8761 110.011 16.2652C110.854 15.9646 112.628 15.887 113.51 16.1101C115.833 16.6919 117.343 18.4664 117.725 21.0748C117.774 21.4627 117.823 24.4784 117.823 28.2602V34.7861H120.764H123.714L123.675 27.2905L123.645 19.8045L123.391 18.7864C122.91 16.8664 122.244 15.4507 121.214 14.161C120.342 13.0749 119.372 12.2992 118.068 11.6592C116.509 10.9029 115.764 10.7283 113.853 10.6895C112.99 10.6701 112.069 10.6895 111.814 10.738Z" fill="white"/>
<path d="M86.9463 22.859V34.7861H89.936H92.9257V22.859V10.9319H89.936H86.9463V22.859Z" fill="white"/>
<path d="M141.918 15.3052L138.311 19.5621V22.2578V24.9536L142.604 29.8408L146.897 34.7376L150.505 34.7667L154.102 34.7861L154.073 34.5437C154.053 34.3692 152.298 32.391 148.505 28.2699C145.456 24.9633 142.967 22.219 142.967 22.1706C142.967 22.1318 145.143 19.6882 147.809 16.7403C150.465 13.8022 152.671 11.3101 152.691 11.2132C152.74 11.0386 152.622 11.0289 149.132 11.0386H145.515L141.918 15.3052Z" fill="white"/>
<path d="M0 29.1135V34.7861H3.23476H6.46952V29.1135V23.4409H3.23476H0V29.1135Z" fill="white"/>
<path d="M75.3803 42.4463C75.3019 42.4948 75.096 42.5433 74.9196 42.5433C74.5569 42.5433 74.4883 42.6208 74.5667 42.9117C74.6059 43.0863 74.6941 43.1251 74.998 43.1251H75.3803L75.3607 48.0317L75.3313 52.9479L74.8607 53.0837C74.4294 53.2098 74.3902 53.2388 74.4196 53.4813L74.449 53.7431L76.0566 53.7722C77.7329 53.8013 77.8211 53.7819 77.8309 53.3843C77.8309 53.2679 77.6937 53.171 77.3702 53.0837L76.8997 52.9479L76.8702 47.7698L76.8506 42.5917L76.586 42.4657C76.2723 42.3299 75.5861 42.3105 75.3803 42.4463Z" fill="white"/>
<path d="M35.8864 45.3751C35.5335 46.2963 35.4551 46.3835 34.8964 46.529C34.5729 46.6066 34.4062 46.7035 34.4062 46.8005C34.4062 47.0817 34.5533 47.1787 34.9454 47.2175L35.3375 47.2465L35.3865 49.9617C35.4257 52.2404 35.4649 52.7253 35.6021 52.9677C35.9746 53.6368 36.602 53.9858 37.445 53.9858C38.1115 53.9858 38.6017 53.7822 39.0428 53.3362C39.3074 53.0549 39.3074 53.0452 39.1212 52.8804C38.9447 52.7253 38.9251 52.7253 38.5722 52.9677C37.8469 53.4525 37.0529 53.1907 36.9058 52.4247C36.8764 52.2404 36.8568 50.9992 36.8764 49.6708L36.9058 47.2465L37.8469 47.2175C38.7291 47.1981 38.7977 47.1787 38.8565 46.9847C38.8859 46.8684 38.8859 46.752 38.8663 46.7326C38.8467 46.7132 38.3958 46.6841 37.8665 46.6841L36.9058 46.6647L36.8764 45.7823L36.847 44.8902L36.5432 44.832C36.3765 44.8029 36.2197 44.7739 36.1805 44.7739C36.1511 44.7739 36.0138 45.0454 35.8864 45.3751Z" fill="white"/>
<path d="M123.459 45.3167C123.322 45.627 123.185 45.9761 123.156 46.0924C123.116 46.2573 122.959 46.3639 122.567 46.49C122.273 46.587 122.038 46.6936 122.038 46.7324C122.038 46.7809 122.038 46.8973 122.038 47.0039C122.038 47.1688 122.107 47.1979 122.479 47.1979H122.92V49.6221C122.92 52.2499 122.999 52.8608 123.381 53.3166C124.155 54.2184 125.714 54.2281 126.577 53.336C126.841 53.0548 126.841 53.0451 126.655 52.8802C126.479 52.7251 126.459 52.7251 126.106 52.9675C125.616 53.2875 125.057 53.2972 124.734 52.9772C124.42 52.6669 124.371 52.1626 124.41 49.4766L124.44 47.2464L125.39 47.2173C126.243 47.1979 126.351 47.1688 126.4 46.9942C126.439 46.8876 126.439 46.7712 126.41 46.7421C126.38 46.713 125.988 46.6936 125.547 46.7033C124.361 46.7324 124.391 46.7518 124.391 45.7337C124.391 45.1131 124.361 44.8706 124.273 44.8706C124.204 44.8706 124.048 44.8415 123.93 44.8125C123.744 44.764 123.675 44.8221 123.459 45.3167Z" fill="white"/>
<path d="M41.6108 46.5868C41.0423 46.6353 40.9246 46.7129 41.0128 46.9844C41.0619 47.1298 41.1795 47.1977 41.4442 47.2171L41.8068 47.2462V50.0971V52.9479L41.3363 53.0837C40.905 53.2098 40.8658 53.2388 40.8952 53.4813L40.9246 53.7431L42.5322 53.7722C44.2084 53.8013 44.2966 53.7819 44.3064 53.3843C44.3064 53.2679 44.1692 53.171 43.8457 53.0837L43.3752 52.9479L43.3458 50.3201C43.3262 47.7504 43.3262 47.6923 43.5222 47.5856C43.8555 47.4111 44.9142 47.2268 45.3063 47.2753C45.6493 47.3141 45.6788 47.3432 45.8552 47.8668C46.0218 48.3419 46.0708 48.4098 46.2767 48.3807C46.4041 48.3613 46.5316 48.3323 46.5414 48.3129C46.561 48.2935 46.5806 47.9444 46.5806 47.5274C46.5806 46.5965 46.5414 46.5674 45.2867 46.5674C44.5123 46.5674 44.2672 46.6062 43.8359 46.8002L43.3164 47.0329L43.0419 46.7711C42.7675 46.5092 42.7381 46.5092 41.6108 46.5868Z" fill="white"/>
<path d="M49.8147 46.6742C48.8541 46.9263 48.7854 46.9844 48.7952 47.6729C48.7952 48.0026 48.8148 48.2935 48.8247 48.3129C48.8443 48.3323 48.9717 48.3614 49.1089 48.3808C49.3148 48.4099 49.3638 48.3517 49.501 47.9056C49.5892 47.6244 49.7069 47.3432 49.7755 47.2754C49.8343 47.2172 50.2264 47.1493 50.6479 47.1299C51.9712 47.062 52.4711 47.5178 52.4809 48.7881L52.4907 49.4765L51.8046 49.5056C50.1088 49.5832 48.9815 50.0292 48.4718 50.8341C48.2267 51.222 48.1875 51.3868 48.1875 51.9395C48.1875 52.3371 48.2463 52.6862 48.3443 52.8704C48.9913 54.0825 50.9224 54.3734 52.2849 53.4619C52.5103 53.3068 52.5789 53.3068 52.6476 53.4134C52.6966 53.491 52.7358 53.6074 52.7358 53.6656C52.7358 53.7625 53.0201 53.7916 53.8042 53.7916C54.6865 53.7916 54.8825 53.7625 54.9315 53.6365C55.0589 53.3165 54.9805 53.2195 54.5296 53.0934L54.0591 52.9577L54.0101 50.6886C53.9611 48.662 53.9317 48.3614 53.7454 47.9735C53.471 47.382 52.8632 46.8584 52.2359 46.6742C51.6085 46.4802 50.5107 46.4802 49.8147 46.6742ZM52.5201 51.2317C52.5397 52.308 52.5299 52.4244 52.3339 52.6668C52.0594 53.0159 51.5889 53.2098 51.0302 53.2098C50.1578 53.2098 49.6579 52.4147 49.8833 51.4062C50.0499 50.6983 50.4616 50.3686 51.4615 50.1456C51.7556 50.0777 52.1084 50.0292 52.2457 50.0389L52.4907 50.0583L52.5201 51.2317Z" fill="white"/>
<path d="M68.0181 46.6549C67.0477 46.907 66.3125 47.5179 65.793 48.4876C65.5479 48.9627 65.5283 49.0597 65.5283 50.2524C65.5381 51.6584 65.6558 52.0754 66.2733 52.7736C67.4594 54.1117 70.0864 54.4026 71.7332 53.3651C72.0861 53.142 72.1351 53.0839 72.0469 52.919C71.8802 52.6087 71.7626 52.599 71.1352 52.8802C70.4197 53.1905 69.3414 53.2972 68.7729 53.113C67.8809 52.8221 67.2437 51.8718 67.1653 50.7081L67.1163 50.01H69.5865H72.0469L72.1645 49.7385C72.2233 49.593 72.2723 49.2148 72.2723 48.8948C72.2821 47.7506 71.5862 46.9749 70.2334 46.6258C69.7139 46.49 68.5768 46.4997 68.0181 46.6549ZM69.9198 47.2367C70.5667 47.5082 70.949 48.2839 70.8216 49.05L70.753 49.4282H68.9395H67.1261L67.1947 49.0112C67.2829 48.507 67.6358 47.7991 67.9495 47.5276C68.4004 47.1203 69.3218 46.9846 69.9198 47.2367Z" fill="white"/>
<path d="M86.6035 46.6064C86.035 46.7518 85.4665 47.1106 85.1822 47.5082C84.9274 47.8573 84.8882 47.9833 84.8882 48.5554C84.8882 49.1178 84.9274 49.2536 85.1626 49.5833C85.5449 50.1069 85.5841 50.1263 87.0152 50.8245C88.3973 51.5033 88.711 51.7748 88.711 52.3081C88.711 52.9772 87.8092 53.4814 86.8486 53.3747C86.0252 53.2778 85.9076 53.1905 85.6723 52.4632C85.5547 52.1045 85.4175 51.7651 85.3783 51.7263C85.3391 51.6875 85.192 51.6972 85.045 51.7554C84.7803 51.8523 84.7803 51.862 84.8097 52.6475L84.8391 53.4523L85.6233 53.7141C87.4269 54.3153 89.2599 53.8596 89.8285 52.6863C90.0343 52.2596 90.0343 51.4451 89.8285 51.0184C89.5834 50.5045 89.0737 50.136 87.7896 49.5348C86.5839 48.9724 86.0644 48.5554 86.0644 48.1579C86.0644 47.3433 87.1329 46.8973 88.3777 47.2076C88.7698 47.3045 88.8188 47.353 88.9071 47.7215C89.0247 48.1773 89.1325 48.3906 89.2305 48.3712C89.2697 48.3712 89.3874 48.3615 89.4952 48.3615C89.6716 48.3615 89.6912 48.2936 89.6912 47.6924V47.033L89.1325 46.81C88.5248 46.5773 87.1525 46.4609 86.6035 46.6064Z" fill="white"/>
<path d="M92.7983 46.5871C92.2396 46.6259 92.2298 46.6356 92.2592 46.8877C92.2886 47.1107 92.3376 47.1495 92.6611 47.1786C92.8571 47.198 93.0238 47.2465 93.0238 47.3047C93.0238 47.3532 93.0238 48.6234 93.0336 50.1265C93.0336 52.2695 93.0042 52.8901 92.9061 52.9385C92.8375 52.9773 92.6219 53.0743 92.4258 53.1519C92.1122 53.2682 92.0729 53.3264 92.1122 53.5397L92.1612 53.7919H93.8178C95.5528 53.7919 95.4744 53.8113 95.5136 53.3846C95.5234 53.3167 95.3273 53.1907 95.0823 53.1034L94.6412 52.9385L94.6118 50.2719L94.5922 47.6053L95.0725 47.4404C96.1409 47.0913 96.9839 47.2853 97.3564 47.9738C97.5231 48.284 97.5329 48.5168 97.5132 50.6404L97.4838 52.9579L97.1212 53.0646C96.6604 53.1907 96.5428 53.307 96.6114 53.5785C96.6702 53.7919 96.6997 53.7919 98.3268 53.7919H99.9834V53.5106C99.9834 53.2585 99.9344 53.21 99.4933 53.0646L99.013 52.9094L98.9738 50.5143C98.9542 49.1956 98.9052 48.0028 98.866 47.8671C98.7974 47.6344 98.8268 47.5956 99.1993 47.4501C99.6502 47.2756 100.689 47.2271 101.062 47.3725C101.395 47.5083 101.797 47.9544 101.934 48.3519C102.052 48.7204 102.091 52.7058 101.964 52.8707C101.924 52.9288 101.709 53.0355 101.473 53.1034C101.091 53.21 101.052 53.2488 101.081 53.4816L101.111 53.7434L102.738 53.7725L104.375 53.7919L104.434 53.5397C104.512 53.2294 104.522 53.2391 103.993 53.084L103.561 52.9579L103.512 50.6404C103.463 48.701 103.434 48.2453 103.287 47.9253C103.052 47.4113 102.777 47.1301 102.189 46.8295C101.748 46.5968 101.591 46.5774 100.67 46.5677C99.709 46.5677 99.5913 46.5871 99.0424 46.8586L98.4445 47.1495L98.0034 46.878C97.6407 46.655 97.4054 46.5871 96.7781 46.5483C96.0331 46.5095 95.6998 46.5677 94.8176 46.9168C94.5235 47.0332 94.4843 47.0235 94.2197 46.781C94.0334 46.6065 93.857 46.5289 93.6511 46.5386C93.4943 46.5483 93.112 46.5677 92.7983 46.5871Z" fill="white"/>
<path d="M108.256 46.616C108.031 46.6645 107.678 46.7809 107.472 46.8778C107.09 47.0524 107.09 47.0524 107.06 47.6924L107.031 48.342L107.335 48.3808C107.609 48.4196 107.638 48.4002 107.736 48.0318C107.952 47.2269 107.962 47.2172 108.56 47.1493C110.089 46.9554 110.795 47.5081 110.746 48.8463L110.716 49.4766L109.746 49.5444C108.07 49.6608 107.119 50.1069 106.668 50.9796C106.345 51.5905 106.394 52.531 106.766 53.0935C107.344 53.9468 108.923 54.2668 110.04 53.7528C110.314 53.6268 110.579 53.4716 110.609 53.4135C110.726 53.2389 110.863 53.2874 110.961 53.5492C111.05 53.7916 111.069 53.7916 112.138 53.7916H113.216V53.5104C113.216 53.2583 113.167 53.2098 112.726 53.0644L112.236 52.8995V50.7468C112.236 48.3808 112.167 48.0027 111.657 47.3821C111.197 46.8294 110.589 46.5966 109.55 46.5578C109.06 46.5385 108.481 46.5675 108.256 46.616ZM110.765 51.2511C110.765 52.4826 110.765 52.502 110.501 52.7444C110.109 53.1032 109.854 53.2098 109.373 53.2098C108.501 53.2098 108.05 52.6377 108.138 51.6196C108.207 50.7856 108.628 50.3881 109.717 50.1553C110.854 49.9129 110.765 49.8257 110.765 51.2511Z" fill="white"/>
<path d="M115.765 46.5869C115.158 46.6354 115.03 46.7033 115.118 46.9845C115.167 47.1299 115.285 47.1978 115.55 47.2172L115.912 47.2463V50.0972V52.948L115.442 53.0838C115.01 53.2098 114.971 53.2389 115.001 53.4813L115.03 53.7432H116.696H118.363L118.392 53.4813C118.422 53.2389 118.382 53.2098 117.951 53.0838L117.481 52.948V50.3008V47.6439L118.02 47.4596C118.52 47.2851 119.627 47.2075 119.755 47.3336C119.784 47.3626 119.882 47.6148 119.98 47.896C120.117 48.3032 120.186 48.4002 120.333 48.3808C120.745 48.3129 120.764 48.2838 120.764 47.5469C120.764 46.6257 120.686 46.5772 119.392 46.5675C118.618 46.5675 118.373 46.6063 117.941 46.8002L117.422 47.0329L117.147 46.7711C116.971 46.6063 116.785 46.5287 116.589 46.5384C116.432 46.5481 116.059 46.5675 115.765 46.5869Z" fill="white"/>
<path d="M56.0589 46.752C56.0099 46.8102 55.9707 46.946 55.9707 47.0526C55.9707 47.2175 56.0687 47.295 56.4412 47.4017L56.9019 47.5472L58.186 50.7277C58.9016 52.4732 59.4995 53.9277 59.5289 53.9568C59.6172 54.0344 60.3425 53.8889 60.519 53.7628C60.5974 53.695 61.0189 52.7059 61.4502 51.5617C61.8815 50.4174 62.401 49.0405 62.6069 48.5072L62.9793 47.5472L63.4499 47.4017C63.8517 47.2757 63.9106 47.2272 63.9106 46.9848C63.9106 46.8393 63.8714 46.7132 63.8125 46.7132C63.7635 46.7035 63.2244 46.7035 62.6167 46.7035C61.6364 46.7035 61.509 46.7229 61.4502 46.8781C61.3228 47.1981 61.362 47.2466 61.8031 47.3823C62.0481 47.4502 62.2638 47.5375 62.2834 47.5763C62.3422 47.6732 60.4209 52.638 60.3523 52.5604C60.3131 52.5313 60.2837 52.3762 60.2837 52.2307C60.2837 52.0853 59.9112 51.0283 59.4603 49.8938C58.9996 48.7593 58.6173 47.7702 58.5977 47.7023C58.5781 47.6247 58.735 47.4987 58.98 47.4114C59.4897 47.2078 59.5191 47.1787 59.4211 46.9169C59.3427 46.7132 59.2937 46.7035 57.7547 46.6841C56.8431 46.6745 56.1177 46.7035 56.0589 46.752Z" fill="white"/>
</svg>