<svg xmlns:xlink="http://www.w3.org/1999/xlink" xmlns="http://www.w3.org/2000/svg" width="238" height="73" viewBox="0 0 238 73" fill="none"><path d="M4.2261 52.9006C1.8906 52.9006 0 50.983 0 48.6144V12.5201c0-2.3687 1.8906-4.2862 4.2261-4.2862 2.3355 0 4.2262 1.9175 4.2262 4.2862V48.558c.0556 2.3686-1.8907 4.3426-4.2262 4.3426Z" fill="#DBF2D2"/><path d="M4.2261 67C1.8906 67 0 65.0824 0 62.7138v-5.527c0-2.3687 1.8906-4.2862 4.2261-4.2862 2.3355 0 4.2262 1.9175 4.2262 4.2862v5.527C8.5079 65.0824 6.5616 67 4.226 67Z" fill="#F56B67"/><path d="M4.2261 14.8889C1.8906 14.8889 0 12.9714 0 10.6027V4.2862C0 1.9175 1.8906 0 4.2261 0c2.3355 0 4.2262 1.9175 4.2262 4.2862v6.2601c.0556 2.3687-1.8907 4.3426-4.2262 4.3426Z" fill="#7AC9CB"/><path d="M17.1265 38.0117c-2.3355 0-4.2261-1.9175-4.2261-4.2862v-6.7677c0-2.3687 1.8906-4.2862 4.2261-4.2862 2.3355 0 4.2262 1.9175 4.2262 4.2862v6.7677c0 2.3123-1.8907 4.2862-4.2262 4.2862Z" fill="#DBF2D2"/><path d="M17.1265 52.9006c-2.3355 0-4.2261-1.9175-4.2261-4.2862v-6.3165c0-2.3687 1.8906-4.2862 4.2261-4.2862 2.3355 0 4.2262 1.9175 4.2262 4.2862v6.2601c0 2.3687-1.8907 4.3426-4.2262 4.3426Z" fill="#607E54"/><path d="M55.773 15.1145c2.3355 0 4.2261 1.9175 4.2261 4.2862v36.0379c0 2.3687-1.8906 4.2862-4.2261 4.2862-2.3355 0-4.2261-1.9175-4.2261-4.2862V19.4007c0-2.3123 1.8906-4.2862 4.2261-4.2862Z" fill="#DBF2D2"/><path d="M55.773 0c2.3355 0 4.2261 1.9175 4.2261 4.2862v6.4857c0 2.3687-1.8906 4.2862-4.2261 4.2862-2.3355 0-4.2261-1.9175-4.2261-4.2862V4.2862C51.5469 1.9175 53.4375 0 55.773 0Z" fill="#F56B67"/><path d="M55.773 52.1675c2.3355 0 4.2261 1.9175 4.2261 4.2862v6.2601c0 2.3687-1.8906 4.2862-4.2261 4.2862-2.3355 0-4.2261-1.9175-4.2261-4.2862v-6.2601c0-2.3687 1.8906-4.2862 4.2261-4.2862Z" fill="#7AC9CB"/><path d="M42.8726 30.0034c2.3355 0 4.2261 1.9175 4.2261 4.2862v6.7677c0 2.3687-1.8906 4.2862-4.2261 4.2862-2.3355 0-4.2261-1.9175-4.2261-4.2862v-6.7677c0-2.3123 1.8906-4.2862 4.2261-4.2862Z" fill="#DBF2D2"/><path d="M42.8726 15.1145c2.3355 0 4.2261 1.9175 4.2261 4.2862v6.2601c0 2.3687-1.8906 4.2862-4.2261 4.2862-2.3355 0-4.2261-1.9175-4.2261-4.2862v-6.2601c0-2.3123 1.8906-4.2862 4.2261-4.2862Z" fill="#607E54"/><path d="M29.8609 41.1701c-2.3355 0-4.2261-1.9175-4.2261-4.2862v-6.2601c0-2.3686 1.8906-4.2862 4.2261-4.2862 2.3355 0 4.2261 1.9176 4.2261 4.2862v6.2601c.0556 2.3687-1.835 4.2862-4.2261 4.2862Z" fill="#fff"/><path d="M17.1265 30.0034c-2.3355 0-4.2261-1.9175-4.2261-4.2862v-6.2601c0-2.3687 1.8906-4.2862 4.2261-4.2862 2.3355 0 4.2262 1.9175 4.2262 4.2862v6.2601c0 2.3687-1.8907 4.2862-4.2262 4.2862ZM42.8726 38.0117c2.3355 0 4.2261 1.9175 4.2261 4.2862v6.2601c0 2.3687-1.8906 4.2862-4.2261 4.2862-2.3355 0-4.2261-1.9175-4.2261-4.2862v-6.2601c0-2.3687 1.8906-4.2862 4.2261-4.2862Z" fill="#7AC9CB"/><path d="M148.086 64.4276c-.83.175-1.424.1166-1.77-.1646-.487-.398-.481-1.2349-.477-1.9759V53.533c0-3.5297-1.976-5.3924-5.722-5.3924-5.574 0-6.432 3.6224-6.541 5.1832l-.018.223h1.4l.014-.1921c.164-2.5419 1.993-3.9414 5.142-3.9414 2.747 0 4.322 1.2897 4.322 3.5332 0 2.2434-1.935 2.583-4.171 2.8745-.337.0446-.673.0858-1.002.1407-4.6.6963-6.48 2.2571-6.48 5.3924 0 2.7922 2.261 4.672 5.622 4.672 2.707 0 4.741-.9296 6.048-2.7614.124 1.8112.902 2.5659 2.586 2.5659.162 0 .597-.0137 1.129-.1372l.161-.0377V64.383l-.25.0515.007-.0069Zm-3.643-8.5037v4.3736c0 1.7975-1.832 4.4526-5.767 4.4526-2.047 0-4.486-.6415-4.486-3.6979 0-2.1885 1.684-3.3685 5.464-3.8316 2.168-.2607 3.945-.5351 4.789-1.2967ZM95.3651 11.6494c-.1166-1.2829-.6311-2.2811-1.547-2.998-.9159-.717-2.216-1.0737-3.9037-1.0737-1.1183 0-2.0513.144-2.7957.4356-.7443.2916-1.3035.6895-1.6774 1.1972-.3739.5077-.566 1.0874-.5763 1.7392-.024.5351.0858 1.0085.3225 1.4132.2401.4082.5866.765 1.0462 1.0737.4597.3087 1.0154.5797 1.6671.813.6518.2332 1.3859.4356 2.2023.6106l3.0735.6998c1.77.3841 3.3343.8953 4.6892 1.5367 1.3584.6415 2.4972 1.403 3.4232 2.288.926.885 1.626 1.9038 2.106 3.0564.477 1.1526.721 2.4458.735 3.8797-.011 2.2605-.584 4.1986-1.712 5.8177-1.129 1.6191-2.7513 2.8609-4.8643 3.7219-2.1131.861-4.6618 1.2932-7.6427 1.2932-2.9809 0-5.6017-.4494-7.8279-1.3447-2.2263-.8953-3.9551-2.2605-5.19-4.0889-1.2349-1.8283-1.8695-4.1403-1.9038-6.936H83.27c.0686 1.1526.3773 2.113.9261 2.8814.5489.7684 1.3001 1.3516 2.264 1.746.9605.398 2.0753.5935 3.3446.5935 1.1628 0 2.1576-.1578 2.9774-.4734.8199-.3156 1.451-.7512 1.897-1.3104.4425-.5591.6689-1.2006.6826-1.9209-.0137-.6758-.223-1.2555-.6277-1.7392-.4082-.4837-1.0326-.9021-1.8764-1.2589-.8438-.3533-1.921-.6826-3.2245-.9879l-3.739-.8747c-3.0975-.7101-5.5365-1.8627-7.3202-3.4509-1.7837-1.5882-2.6688-3.7424-2.655-6.4558-.0103-2.2125.5831-4.1506 1.7803-5.8178 1.2006-1.6636 2.8608-2.9637 4.9807-3.8967C84.7999.8852 87.2148.422 89.9316.422c2.7168 0 5.1797.47 7.2241 1.4064 2.0445.9365 3.6323 2.2503 4.7613 3.938 1.129 1.6877 1.705 3.6464 1.729 5.8692h-8.2809v.0137ZM138.971.9229V36.704h-7.337l-14.239-20.6503h-.227v20.6503h-8.647V.9229h7.443l14.082 20.6159h.298V.9228h8.631-.004ZM75.1089 44.0244v-1.3h16.088v1.3h-7.3442v21.6623h-1.403V44.0244h-7.3442.0034ZM94.9878 54.5211v11.169h-1.3687V42.7278h1.3687v8.4659h.1338c.4048-.8953 1.0497-1.6122 1.9347-2.1473.885-.5352 1.9484-.8027 3.1897-.8027 1.16 0 2.179.2435 3.06.7341.882.4905 1.571 1.1868 2.069 2.0959.497.909.744 1.993.744 3.2587v11.3577h-1.358V54.3873c0-1.4716-.436-2.655-1.314-3.5435-.875-.8884-2.027-1.3343-3.4647-1.3343-.9639 0-1.8249.2092-2.5796.6277-.7546.4185-1.3481 1.0051-1.7768 1.7529-.4288.7512-.6449 1.6259-.6449 2.631h.0068ZM116.3 66.047c-1.554 0-2.909-.3842-4.058-1.156-1.153-.7684-2.041-1.825-2.669-3.1628-.628-1.3378-.943-2.8643-.943-4.576 0-1.7117.315-3.2519.947-4.5965.631-1.3447 1.499-2.4081 2.607-3.1833 1.108-.7787 2.37-1.1663 3.79-1.1663.964 0 1.876.1921 2.741.5763.864.3841 1.626.9398 2.288 1.6636.662.7238 1.18 1.5985 1.557 2.6242.378 1.0257.566 2.1748.566 3.4543v.8507h-13.635V56.13h12.267c0-1.2486-.254-2.3737-.762-3.3754-.508-1.0016-1.201-1.7975-2.075-2.3875-.875-.59-1.856-.885-2.95-.885-1.095 0-2.161.319-3.057.9605-.892.638-1.598 1.499-2.12 2.583-.518 1.084-.789 2.2949-.813 3.6327v.5625c0 1.4339.254 2.7237.759 3.8625.504 1.1389 1.228 2.0411 2.167 2.7031.944.662 2.072.9914 3.386.9914.943 0 1.746-.1578 2.415-.4769.669-.319 1.218-.7032 1.643-1.1594.426-.4562.748-.8987.964-1.3241l1.245.5043c-.26.5763-.669 1.1491-1.217 1.722-.549.5728-1.246 1.0496-2.086 1.4304-.841.3808-1.828.5729-2.967.5729h.01ZM125.641 65.6867V48.4632h1.334v2.6928h.123c.374-.8816 1.006-1.5916 1.894-2.1233.888-.5352 1.904-.8027 3.039-.8027h.357c.12 0 .233.0034.336.0103v1.379c-.089-.0069-.195-.0206-.319-.0378-.123-.0171-.274-.0274-.453-.0274-.957 0-1.807.2058-2.552.6174-.744.4117-1.327.9777-1.753 1.698-.425.7204-.638 1.5471-.638 2.4732v11.3474h-1.368v-.0034ZM149.307 72.146V48.4667h1.334v3.8454h.168c.271-.741.648-1.4201 1.139-2.041.49-.6209 1.098-1.1183 1.828-1.4956.728-.3774 1.589-.566 2.573-.566 1.389 0 2.6.3807 3.633 1.1423 1.032.7615 1.831 1.8146 2.397 3.1558.57 1.3413.851 2.8815.851 4.6138 0 1.7322-.285 3.2724-.857 4.6137-.573 1.3412-1.373 2.3943-2.398 3.1627-1.029.7649-2.23 1.1491-3.605 1.1491-.981 0-1.839-.1886-2.573-.5591-.738-.3739-1.352-.8713-1.849-1.4956-.497-.6243-.878-1.3104-1.139-2.0582h-.134v10.2154h-1.368v-.0034Zm1.344-15.0349c0 1.4647.223 2.7751.673 3.9311.449 1.156 1.09 2.0684 1.927 2.7373.837.6689 1.836 1.0051 2.995 1.0051 1.16 0 2.182-.3362 3.022-1.0154.841-.6757 1.482-1.595 1.928-2.7511.446-1.1594.669-2.4595.669-3.9002s-.22-2.7408-.662-3.8899c-.443-1.1526-1.081-2.0616-1.918-2.7305-.837-.6689-1.849-1.0051-3.039-1.0051-1.19 0-2.178.3293-3.012.9914-.833.662-1.471 1.5676-1.917 2.7133-.446 1.1457-.669 2.4527-.669 3.9174l.003-.0034ZM172.457 66.047c-1.554 0-2.909-.3842-4.058-1.156-1.152-.7684-2.041-1.825-2.669-3.1628-.627-1.3378-.943-2.8643-.943-4.576 0-1.7117.316-3.2519.947-4.5965.631-1.3447 1.499-2.4081 2.607-3.1833 1.108-.7787 2.37-1.1663 3.79-1.1663.964 0 1.877.1921 2.741.5763.865.3841 1.626.9398 2.288 1.6636.662.7238 1.18 1.5985 1.558 2.6242.377 1.0257.565 2.1748.565 3.4543v.8507h-13.635V56.13h12.267c0-1.2486-.254-2.3737-.762-3.3754-.507-1.0016-1.2-1.7975-2.075-2.3875-.875-.59-1.856-.885-2.95-.885s-2.161.319-3.056.9605c-.892.638-1.599 1.499-2.12 2.583-.518 1.084-.789 2.2949-.813 3.6327v.5625c0 1.4339.253 2.7237.758 3.8625.504 1.1389 1.228 2.0411 2.168 2.7031.943.662 2.072.9914 3.385.9914.944 0 1.746-.1578 2.415-.4769.669-.319 1.218-.7032 1.643-1.1594.426-.4562.748-.8987.964-1.3241l1.246.5043c-.261.5763-.669 1.1491-1.218 1.722-.549.5728-1.245 1.0496-2.086 1.4304-.84.3808-1.828.5729-2.967.5729h.01ZM192.83 59.5775V48.4668h1.369v17.2234h-1.369V62.898h-.113c-.405.8884-1.057 1.6157-1.955 2.1748-.902.5591-1.962.8404-3.19.8404-1.129 0-2.127-.247-2.995-.7409-.868-.494-1.547-1.1938-2.041-2.1028-.494-.909-.741-1.9895-.741-3.245V48.4668h1.369v11.3028c0 1.4338.435 2.5967 1.307 3.4817.871.885 1.996 1.3275 3.382 1.3275.899 0 1.722-.2023 2.476-.6071.755-.4048 1.362-.9811 1.819-1.7323.456-.7513.682-1.6397.682-2.6619ZM203.748 48.4667v1.2212h-7.522v-1.2212h7.522Zm-4.977-4.1266h1.358v17.2783c0 .7032.137 1.2761.408 1.722.271.446.632.7718 1.078.9879.446.2161.919.3191 1.43.3191.247 0 .463-.0172.645-.0549a3.97 3.97 0 0 0 .521-.1441l.336 1.2452c-.209.0755-.442.1406-.696.1955-.254.0549-.552.0858-.895.0858-.717 0-1.396-.1612-2.034-.4837-.638-.3224-1.156-.789-1.554-1.403-.398-.614-.594-1.3515-.594-2.2194V44.3435l-.003-.0034ZM207.358 45.4137c-.299 0-.56-.1029-.779-.3156-.22-.2092-.333-.4631-.333-.7615 0-.2984.11-.5523.326-.7615.216-.2093.48-.3122.786-.3122.305 0 .559.1029.778.3122.22.2092.329.4631.329.7615 0 .2984-.109.5523-.325.7615-.217.2093-.481.3156-.786.3156h.004Zm-.683 20.273V48.4632h1.358v17.2235h-1.358ZM218.018 66.047c-1.464 0-2.754-.3877-3.869-1.1595-1.115-.7752-1.983-1.8317-2.607-3.1798-.624-1.3447-.937-2.8712-.937-4.576 0-1.7049.316-3.2279.944-4.576.628-1.3447 1.499-2.4081 2.614-3.1833 1.115-.7787 2.394-1.1663 3.845-1.1663 1.091 0 2.086.2229 2.988.6723.902.4494 1.65 1.0737 2.243 1.8729.594.7993.974 1.7255 1.139 2.782h-1.389c-.223-1.1663-.782-2.1336-1.678-2.8986-.891-.765-1.989-1.1491-3.289-1.1491-1.167 0-2.206.3258-3.118.981-.913.6552-1.63 1.5539-2.155 2.7031-.524 1.1457-.785 2.4595-.785 3.9414s.254 2.7648.761 3.9174c.508 1.156 1.218 2.0684 2.131 2.7408.912.6723 1.965 1.0085 3.162 1.0085.844 0 1.616-.1681 2.316-.5043.7-.3362 1.283-.8164 1.756-1.4339.47-.6208.782-1.3446.93-2.1748h1.389c-.165 1.06-.539 1.9965-1.122 2.8026-.583.8061-1.327 1.4407-2.229 1.8935-.903.4528-1.918.6826-3.04.6826v.0035ZM237.794 52.1749l-1.266.3361c-.202-.6277-.49-1.1697-.864-1.6259-.374-.4562-.844-.8096-1.407-1.06-.566-.2504-1.238-.3739-2.024-.3739-1.262 0-2.298.3156-3.101.9434-.802.6277-1.204 1.4475-1.204 2.456 0 .8233.275 1.4991.82 2.0342.546.5351 1.379.9399 2.501 1.2178l2.645.662c1.361.3362 2.384.8816 3.073 1.6328.686.7512 1.033 1.6843 1.033 2.7957 0 .9502-.258 1.7906-.776 2.5213-.514.734-1.228 1.3035-2.137 1.7151-.909.4116-1.965.6174-3.166.6174-1.605 0-2.926-.3739-3.958-1.1251-1.033-.7512-1.691-1.8283-1.986-3.2347l1.31-.3362c.247 1.1217.761 1.9758 1.54 2.5624.782.5866 1.808.8816 3.077.8816 1.407 0 2.539-.3327 3.403-.9982.864-.6655 1.297-1.5162 1.297-2.5556 0-.7924-.254-1.4613-.762-2.0067-.508-.5454-1.279-.9468-2.309-1.2006l-2.747-.6723c-1.407-.3431-2.46-.8953-3.163-1.6534-.703-.7581-1.053-1.6946-1.053-2.8094 0-.9262.244-1.7426.727-2.4458.484-.7032 1.156-1.2521 2.007-1.65.851-.3945 1.828-.5934 2.926-.5934 1.458 0 2.645.343 3.564 1.0325s1.585 1.6671 1.996 2.9363l.004-.0034ZM143.585.9126h17.367c7.458 0 12.113 3.9037 12.113 11.4125 0 7.5089-4.655 11.4126-12.113 11.4126h-8.359v12.963h-9.008V.9126Zm9.008 15.4671h6.456c3.104 0 5.004-1.0496 5.004-4.0546 0-3.0049-1.9-4.0545-5.004-4.0545h-6.456v8.1091Z" fill="#fff"/></svg>