<svg xmlns="http://www.w3.org/2000/svg" xmlns:xlink="http://www.w3.org/1999/xlink" version="1.1" id="Layer_1" x="0px" y="0px" viewBox="0 0 287 58" style="enable-background:new 0 0 287 58;" xml:space="preserve" width="287"  height="58" >
<style type="text/css">
	.st0{fill:#FFFFFF;}
	.st1{font-family:'OpenSans-Regular';}
	.st2{font-size:36px;}
	.st3{fill:#828282;}
</style>
<g>
	<g>
		<text transform="matrix(1 0 0 1 75.3281 42.9194)" class="st0 st1 st2">Sony Rewards</text>
	</g>
	<g>
		<path class="st0" d="M50.33,49.8h-0.69v-0.32h1.77v0.32h-0.67v2.11h-0.4V49.8z M53.1,51.54h0.01l0.58-2.06h0.67v2.43h-0.38V49.8    h-0.01l-0.63,2.11h-0.5l-0.61-2.11h-0.01v2.11h-0.37v-2.43h0.67L53.1,51.54z"/>
		<g>
			<circle class="st0" cx="29.24" cy="29" r="26.62"/>
			<path class="st3" d="M26.27,29L15.29,39.97c-0.89-1.13-1.65-2.37-2.24-3.7L20.33,29H26.27z M38.15,29L38.15,29l7.28-7.28     c-0.6-1.33-1.35-2.57-2.24-3.7L32.21,29H38.15z M29.24,20.09l-7.28-7.28c-1.33,0.6-2.57,1.35-3.7,2.24l10.97,10.97V20.09z      M29.24,37.91l7.28,7.28c1.33-0.6,2.57-1.35,3.7-2.24L29.24,31.97V37.91z"/>
			<path d="M20.33,29l-7.28-7.28c0.6-1.33,1.35-2.57,2.24-3.7L26.27,29L20.33,29L20.33,29z M38.15,29h-5.94l10.97,10.97     c0.89-1.13,1.65-2.37,2.24-3.7L38.15,29z M29.24,26.03l10.97-10.97c-1.13-0.89-2.37-1.65-3.7-2.24l-7.28,7.28V26.03z      M29.24,31.97L18.26,42.94c1.13,0.89,2.37,1.65,3.7,2.24l7.28-7.28V31.97z"/>
		</g>
	</g>
</g>
</svg>