<svg xmlns:xlink="http://www.w3.org/1999/xlink" xmlns="http://www.w3.org/2000/svg" id="Layer_1" data-name="Layer 1" viewBox="0 0 102.32 17.85" width="132"  height="25" ><defs><style>.cls-1{fill:#575757;fill-rule:evenodd;}</style></defs><title>logo-sony</title><path class="cls-1" d="M101.21,14.41A1.56,1.56,0,1,0,102.76,16a1.56,1.56,0,0,0-1.56-1.56h0Zm0,2.93A1.37,1.37,0,1,1,102.57,16a1.37,1.37,0,0,1-1.37,1.38h0Z" transform="translate(-0.44)"/><path class="cls-1" d="M102,15.56a0.43,0.43,0,0,0-.2-0.38,0.8,0.8,0,0,0-.42-0.09h-0.76v1.74h0.21V16h0.39l0.5,0.8H102l-0.53-.8h0a0.47,0.47,0,0,0,.55-0.48h0Zm-0.84.31h-0.33V15.25h0.5c0.22,0,.45,0,0.45.3s-0.38.31-.62,0.31h0Z" transform="translate(-0.44)"/><path class="cls-1" d="M92.06,7.13l3.19-3.4h0a1.08,1.08,0,0,0,.28-0.57c0-.25-0.22-0.35-0.89-0.35h-0.8V0.65h8.71V2.8H101.4c-1.32,0-1.57.2-3.41,2.52h0l-5,5.45V14.1h0c0,0.85.43,1.15,1.66,1.15h1.9v2.07H84.31V15.25h1.91c1.23,0,1.66-.3,1.66-1.15h0V10.77L81.93,4.2h0c-1-1.15-.85-1.4-3.58-1.4h0V0.65h11V2.8H88.6c-0.8,0-1.14.15-1.14,0.45a1.26,1.26,0,0,0,.4.65h0l3,3.28h0a0.73,0.73,0,0,0,1.2,0h0Z" transform="translate(-0.44)"/><path class="cls-1" d="M18.05,0.65h2.66v6H18.26a3.87,3.87,0,0,0-1.65-2.29,10.28,10.28,0,0,0-6.16-2.08c-2.9,0-5.35.9-5.35,2.22,0,3.67,16.6.75,16.6,7.7,0,3.62-3.56,5.65-9.94,5.65a18.72,18.72,0,0,1-7.53-1.73c-0.62-.36-0.88.34-1,1.21H0.5v-6.2H3a4.92,4.92,0,0,0,2,2.52c1.2,1.1,4,1.9,6.66,1.87,3.94,0,5.29-.9,5.29-2.15s-1.34-1.55-5.66-2.22h0l-3.66-.6h0C3.45,9.92.44,9,.44,5.7S4.25,0.13,10.27.13A13,13,0,0,1,17,1.62C17.53,2,18.06,2,18.05.65h0Z" transform="translate(-0.44)"/><path class="cls-1" d="M70,10.69L70,4h0c0-.87-0.45-1.17-1.75-1.17H66.75V0.78h9.72V2.85H75.2c-1.3,0-1.76.3-1.76,1.17h0V17.45l-3.8,0L57.33,5.75v8.47h0c0,0.85.46,1.17,1.76,1.17h1.69v2H50.68v-2h1.67c1.3,0,1.76-.32,1.76-1.17h0V4h0c0-.87-0.46-1.17-1.76-1.17H50.68V0.78h8.73L70,10.69h0Z" transform="translate(-0.44)"/><path class="cls-1" d="M37.43,0C29.68,0,24.83,3.42,24.83,8.92s4.78,8.8,12.36,8.8c8,0,12.73-3.35,12.73-9.07C49.92,3.5,44.87,0,37.43,0h0ZM37.25,15.54c-4.29,0-6.75-2.47-6.75-6.75s2.57-6.65,7-6.65c4.22,0,6.68,2.52,6.68,6.82s-2.5,6.57-6.89,6.57h0Z" transform="translate(-0.44)"/></svg>