<svg xmlns:xlink="http://www.w3.org/1999/xlink" xmlns="http://www.w3.org/2000/svg" class="icon" width="36.506" height="56.619"><defs><symbol id="icon-horse" viewBox="0 0 36.9 57.8" xml:space="preserve">
<path class="st0" d="M33.9 57.3H.4v-5.9l5-5h21.8c.4-2.8 1.6-15-6.6-22.1l1-1.1c9.8 8.6 7.1 23.5 6.9 24.2l-.1.6H6l-4.1 4v3.8h30.6V52l-1.8-1.8 1.1-1.1 2.2 2.2v6z"></path>
<path class="st0" d="M4.6 36.9l-.2-.7C1 25.6 1.2 16.9 5.2 10.6 10.3 2.4 19.5 1 19.9.9l.9-.1v6.6H25l11.9 11.4-1.4 4.2c-.2.5-.5.8-1 1-.5.2-.9.1-1.3-.2-1.1-.7-3.5-1.7-7.9 0-3.8 1.5-7.6.9-9.7-1.5-1.6-1.9-1.8-4.3-.6-6.4l1.3.7c-.9 1.6-.7 3.3.4 4.6 1.3 1.5 4.2 2.6 8 1.1 5-2 7.9-.8 9.3.1l1.1-3.3L24.4 8.8h-5.1V2.5c-2.4.6-9 2.6-12.8 8.8-3.7 5.9-3.9 13.9-.9 23.7l2.7-.9c-2.8-9-2.6-16.1.6-21.2 1.5-2.5 3.7-4.5 6.6-6l.7 1.3c-2.6 1.4-4.6 3.2-6 5.4-3 4.9-3 11.8-.2 20.7l.2.7-5.6 1.9z"></path>
</symbol></defs>
<use xlink:href="#icon-horse" fill="#FFFFFF"></use>
</svg>