<svg xmlns:xlink="http://www.w3.org/1999/xlink" enable-background="new 0 0 36 36" version="1.1" viewBox="0 0 36 36" xml:space="preserve" xmlns="http://www.w3.org/2000/svg" width="36"  height="36" ><path d="M25,36H11C4.9,36,0,31.1,0,25V11C0,4.9,4.9,0,11,0h14c6.1,0,11,4.9,11,11v14C36,31.1,31.1,36,25,36z M11,1.3  c-5.3,0-9.6,4.3-9.7,9.7v14c0,5.3,4.3,9.6,9.7,9.7h14c5.3,0,9.6-4.3,9.7-9.7V11c0-5.3-4.3-9.6-9.7-9.7H11z" fill="#FFFFFF"></path><path d="m21.2 10.9h-6.4c-2.2 0-3.9 1.8-3.9 3.9v6.4c0 2.2 1.8 3.9 3.9 3.9h6.4c2.2 0 3.9-1.8 3.9-3.9v-6.4c0-2.1-1.8-3.9-3.9-3.9zm2.6 10.3c0 1.5-1.2 2.7-2.7 2.7h-6.4c-1.5 0-2.7-1.2-2.7-2.7v-6.4c0-1.5 1.2-2.7 2.7-2.7h6.4c1.5 0 2.7 1.2 2.7 2.7v6.4z" fill="#FFFFFF"></path><path d="m18 14.3c-2 0-3.7 1.6-3.7 3.7 0 2 1.6 3.7 3.7 3.7s3.7-1.6 3.7-3.7c0-2-1.7-3.7-3.7-3.7zm0 6.1c-1.3 0-2.4-1.1-2.4-2.4s1.1-2.4 2.4-2.4 2.4 1.1 2.4 2.4-1.1 2.4-2.4 2.4z" fill="#FFFFFF"></path><path d="m21.8 13.3c-0.2 0-0.5 0.1-0.7 0.3s-0.3 0.4-0.3 0.7c0 0.2 0.1 0.5 0.3 0.7s0.4 0.3 0.7 0.3c0.2 0 0.5-0.1 0.7-0.3s0.3-0.4 0.3-0.7c0-0.2-0.1-0.5-0.3-0.7s-0.4-0.3-0.7-0.3z" fill="#FFFFFF"></path></svg>