<svg xmlns:xlink="http://www.w3.org/1999/xlink" xmlns="http://www.w3.org/2000/svg" style="display: none;" width="36"  height="36" >
<symbol id="social-linkedin" viewBox="0 0 36 36" xml:space="preserve">
<style>.cls-1{fill:#fff;}</style>
<path class="cls-1" d="M25,36H11A11,11,0,0,1,0,25V11A11,11,0,0,1,11,0H25A11,11,0,0,1,36,11V25A11,11,0,0,1,25,36ZM11,1.34A9.69,9.69,0,0,0,1.34,11V25A9.69,9.69,0,0,0,11,34.66H25A9.69,9.69,0,0,0,34.66,25V11A9.69,9.69,0,0,0,25,1.34Z" fill="#FFFFFF"></path>
<rect class="cls-1" x="11.57" y="15.46" width="2.63" height="9.02" fill="#FFFFFF"></rect>
<path class="cls-1" d="M12.88,11.52A1.44,1.44,0,1,0,14.33,13,1.45,1.45,0,0,0,12.88,11.52Z" fill="#FFFFFF"></path>
<path class="cls-1" d="M22.4,15.43a3.52,3.52,0,0,0-3.74,1h0l-.32-1.19H15.93v9.28h2.82V19a1.48,1.48,0,0,1,1.48-1.48h0A1.48,1.48,0,0,1,21.72,19v5.51h2.82V19.84S24.86,16.12,22.4,15.43Z" fill="#FFFFFF"></path>
</symbol>
</svg>