<svg xmlns:xlink="http://www.w3.org/1999/xlink" xmlns="http://www.w3.org/2000/svg" class="icon" width="54" height="57"><defs><symbol id="icon-soft" viewBox="0 0 54.6 57.6" xml:space="preserve">
<style>.st1 {
                fill: none;
                stroke: currentColor;
                stroke-width: 1.5;
                stroke-miterlimit: 10
            }</style>
<g>
<path class="st1" d="M28.4 1.4c1.9 0 3.6 1.1 5.2 3M36.2 8.8c2.2 5 3.6 12.2 3.6 20.1 0 15.2-5.1 27.5-11.4 27.5" stroke="#123466" fill="none" stroke-width="1.5px"></path>
<path class="st1" d="M35 4c.3 0 .7.1 1 .2.3.1.6.3.8.6.2.2.4.5.5.8s.2.6.2 1c0 .3-.1.7-.2 1s-.3.6-.5.8c-.2.2-.5.4-.8.6h-1c-.4 0-.7-.1-1-.2-.3-.1-.6-.3-.8-.6-.2-.2-.4-.5-.5-.8s-.2-.6-.2-1c0-.3.1-.7.2-1s.3-.6.5-.8c.2-.2.5-.4.8-.6h1zM28.6 15.9c10.8-4.9 20.6-5.4 23.3-.7.9 1.6.9 3.7 0 6M49.5 25.6c-3.2 4.5-8.6 9.3-15.4 13.3-1.8 1.1-3.7 2-5.5 2.9" stroke="#123466" fill="none" stroke-width="1.5px"></path>
<path class="st1" d="M48.4 23.5c0-.3.1-.7.2-1 .1-.3.3-.6.5-.8.2-.2.5-.4.8-.5s.6-.2 1-.2c.3 0 .7.1 1 .2.3.1.6.3.8.6.2.2.4.5.5.8.1.3.2.6.2 1 0 .3-.1.7-.2 1-.1.3-.3.6-.5.8-.2.2-.5.4-.8.5s-.6.2-1 .2-.7-.1-1-.2c-.3-.1-.6-.3-.8-.6s-.4-.5-.5-.8c-.2-.3-.2-.7-.2-1zM28.6 16c1.9.9 3.8 1.8 5.7 3 13 7.6 20.9 18.2 17.8 23.7-.9 1.6-2.7 2.6-5.2 3M42 45.8c-3.9-.4-8.5-1.7-13.3-3.9" stroke="#123466" fill="none" stroke-width="1.5px"></path>
<path class="st1" d="M44.5 43.4c.3 0 .7.1 1 .2.3.1.6.3.8.6.2.2.4.5.5.8s.2.6.2 1c0 .3-.1.7-.2 1s-.3.6-.5.8c-.2.2-.5.4-.8.6-.3.1-.6.2-1 .2s-.7-.1-1-.2c-.3-.1-.6-.3-.8-.6-.2-.2-.4-.5-.5-.8s-.2-.6-.2-1c0-.3.1-.7.2-1s.3-.6.5-.8c.2-.2.5-.4.8-.6.3-.2.6-.2 1-.2zM28.6 41.7c-7.1 0-12.8-5.7-12.8-12.8s5.7-12.8 12.8-12.8V1.4h-4.1l-.4 6.1c-2.7.6-5.2 1.6-7.5 3.1l-4.5-4.1-5.9 5.8 4 4.6c-1.5 2.2-2.5 4.7-3.1 7.4l-6.2.3V33l6.2.4c.6 2.7 1.6 5.1 3.1 7.4L6 45.5l5.8 5.9 4.7-4.2c2.2 1.5 4.7 2.5 7.4 3.1l.4 6.2h4.1V41.7z" stroke="#123466" fill="none" stroke-width="1.5px"></path>
</g>
</symbol></defs>
<use xlink:href="#icon-soft" fill="#FFFFFF"></use>
</svg>