<svg xmlns:xlink="http://www.w3.org/1999/xlink" data-name="Group 88" xmlns="http://www.w3.org/2000/svg" viewBox="0 0 991.319 381.8" width="991.319"  height="381.8" >
<g><path fill="#0290E1" d="M100.208 8.271h80.544v366.11h-93.62V106.598L23.326 122.81.835 43.836zm279.289 373.955c-47.594 0-85.251-17.26-111.925-51.778-26.673-35.043-39.75-81.068-39.75-139.122 0-58.054 13.077-104.08 39.75-138.599C294.246 17.685 331.903.426 379.497.426c47.594 0 84.728 17.26 111.402 52.301 26.674 34.52 40.272 80.545 40.272 138.599 0 58.054-13.598 104.079-40.272 139.122-26.674 34.519-63.808 51.778-111.402 51.778zm0-91.004c38.703 0 58.055-33.473 58.055-99.896S418.2 91.43 379.497 91.43s-58.054 33.473-58.054 99.896 19.351 99.896 58.054 99.896zm329.499 91.004c-47.594 0-85.251-17.26-111.925-51.778-26.674-35.043-39.749-81.068-39.749-139.122 0-58.054 13.075-104.08 39.749-138.599C623.745 17.685 661.401.426 708.996.426c47.594 0 84.728 17.26 111.402 52.301 26.673 34.52 40.272 80.545 40.272 138.599 0 58.054-13.599 104.079-40.272 139.122-26.674 34.519-63.808 51.778-111.402 51.778zm0-91.004c38.703 0 58.054-33.473 58.054-99.896S747.699 91.43 708.996 91.43s-58.055 33.473-58.055 99.896 19.352 99.896 58.055 99.896z"></path></g>
<text data-name="+" transform="translate(872.319 259.086)" fill="#0290E1" stroke="#0290E1" stroke-width="10px" font-size="210.183" font-family="Montserrat" font-weight="700"><tspan x="0" y="0" stroke="#0290E1" fill="#0290E1" stroke-width="10px">+</tspan></text>
</svg>