<svg xmlns:xlink="http://www.w3.org/1999/xlink" xmlns="http://www.w3.org/2000/svg" width="49" height="41"><g opacity=".8"><g opacity=".8"><path fill="#FFFFFF" d="M35.9 11C27.7 12.1 17.9 8.3 9.6.8 13 12 10.2 25.2 2 36l-1.4 2L2 36.2c8.6-10.3 12.4-22 10.3-31.7A28 28 0 0036 11.1l1.3-.3zm1.4-.2z" opacity=".8"></path><path fill="#FFFFFF" d="M36.1 11.3a23.3 23.3 0 01-20.7-2.8c.8 7.9-4.1 18.2-13.2 27.9L.6 38l1.7-1.6c9.6-9 15.5-18 16-24 4.5 2.3 11.1 1.9 17.9-1.1l1.2-.6z" opacity=".4"></path><path fill="#FFFFFF" d="M37.4 10.8l-1.2.7c-6.2 3.7-11.8 5.5-14.9 5A80.2 80.2 0 012.4 36.6L.6 38.1z" opacity=".1"></path><path fill="#FFFFFF" d="M2.2 36.4c9-9.7 14-20 13.2-27.9 5.8 4.1 13.4 5.1 20.7 2.7l1.3-.4-1.4.3a28 28 0 01-23.6-6.6C14.5 14.1 10.7 26 2 36.3L.6 38z" opacity=".6"></path><path fill="#FFFFFF" d="M2.4 36.6c10-8.4 17-15.9 19-20 3 .4 8.6-1.5 14.8-5.1l1.2-.7-1.2.6c-6.8 3-13.4 3.4-17.9 1.1-.5 6-6.5 15-16 24L.6 38.1z" opacity=".2"></path></g><g opacity=".8"><path fill="#FFFFFF" d="M13.400000000000006 30.8c8.1-1 17.8 2.7 26.2 10.3a40.5 40.5 0 017.6-35.4l1.5-2L47 5.6C38.5 16 34.7 27.7 37 37.3a28 28 0 00-23.6-6.6l-1.4.3zm-1.5.2z" opacity=".8"></path><path fill="#FFFFFF" d="M13.200000000000003 30.599999999999998a23.3 23.3 0 0120.7 2.7c-.8-7.8 4-18.1 13.1-27.8l1.6-1.8L47 5.3c-9.5 9.1-15.5 18-16 24-4.5-2.3-11-1.8-17.8 1.2l-1.2.5z" opacity=".4"></path><path fill="#FFFFFF" d="M11.9 31l1-.6c6.4-3.7 11.9-5.6 15-5.1a80.1 80.1 0 0119-20l1.7-1.6z" opacity=".1"></path><path fill="#FFFFFF" d="M47 5.5c-9 9.7-14 20-13.1 27.8-5.8-4-13.5-5-20.7-2.7l-1.3.4 1.4-.3a28 28 0 0123.5 6.6c-2-9.6 1.7-21.4 10.3-31.7l1.6-1.9z" opacity=".6"></path><path fill="#FFFFFF" d="M46.8 5.2c-10 8.5-17 15.9-18.9 20.1-3.1-.5-8.6 1.4-15 5l-1 .7 1.2-.5c6.7-3 13.3-3.5 17.8-1.2.5-6 6.5-14.9 16-24l1.7-1.6z" opacity=".2"></path></g></g></svg>