<svg xmlns:xlink="http://www.w3.org/1999/xlink" xmlns="http://www.w3.org/2000/svg" style="display: none;" width="36.9"  height="57.8" >
<symbol id="icon-horse" viewBox="0 0 36.9 57.8" xml:space="preserve">
<path class="st0" d="M33.9 57.3H.4v-5.9l5-5h21.8c.4-2.8 1.6-15-6.6-22.1l1-1.1c9.8 8.6 7.1 23.5 6.9 24.2l-.1.6H6l-4.1 4v3.8h30.6V52l-1.8-1.8 1.1-1.1 2.2 2.2v6z"></path>
<path class="st0" d="M4.6 36.9l-.2-.7C1 25.6 1.2 16.9 5.2 10.6 10.3 2.4 19.5 1 19.9.9l.9-.1v6.6H25l11.9 11.4-1.4 4.2c-.2.5-.5.8-1 1-.5.2-.9.1-1.3-.2-1.1-.7-3.5-1.7-7.9 0-3.8 1.5-7.6.9-9.7-1.5-1.6-1.9-1.8-4.3-.6-6.4l1.3.7c-.9 1.6-.7 3.3.4 4.6 1.3 1.5 4.2 2.6 8 1.1 5-2 7.9-.8 9.3.1l1.1-3.3L24.4 8.8h-5.1V2.5c-2.4.6-9 2.6-12.8 8.8-3.7 5.9-3.9 13.9-.9 23.7l2.7-.9c-2.8-9-2.6-16.1.6-21.2 1.5-2.5 3.7-4.5 6.6-6l.7 1.3c-2.6 1.4-4.6 3.2-6 5.4-3 4.9-3 11.8-.2 20.7l.2.7-5.6 1.9z"></path>
</symbol>
<symbol id="icon-globe" viewBox="0 0 56.7 56.7" xml:space="preserve">
<style>.st1 {
              fill: none;
              stroke: currentColor;
              stroke-width: 1.2245;
              stroke-miterlimit: 10
          }</style>
<g>
<path class="st1" d="M28.3.8c.9 0 1.8 0 2.7.1s1.8.2 2.7.4c.9.2 1.8.4 2.6.7s1.7.6 2.5.9 1.6.7 2.4 1.2 1.6.9 2.3 1.4c.7.5 1.5 1 2.2 1.6s1.4 1.2 2 1.8c.6.6 1.2 1.3 1.8 2s1.1 1.4 1.6 2.2c.5.7 1 1.5 1.4 2.3l1.2 2.4c.4.8.6 1.7.9 2.5.3.9.5 1.7.7 2.6.2.9.3 1.8.4 2.7.1.9.1 1.8.1 2.7 0 .9 0 1.8-.1 2.7s-.2 1.8-.4 2.7-.4 1.8-.7 2.6c-.3.9-.6 1.7-.9 2.5-.3.8-.7 1.6-1.2 2.4s-.9 1.6-1.4 2.3c-.5.7-1 1.5-1.6 2.2s-1.2 1.4-1.8 2c-.6.6-1.3 1.2-2 1.8s-1.4 1.1-2.2 1.6c-.7.5-1.5 1-2.3 1.4l-2.4 1.2c-.8.4-1.7.6-2.5.9-.9.3-1.7.5-2.6.7-.9.2-1.8.3-2.7.4s-1.8.1-2.7.1c-.9 0-1.8 0-2.7-.1s-1.8-.2-2.7-.4c-.9-.2-1.8-.4-2.6-.7-.9-.3-1.7-.6-2.5-.9s-1.6-.7-2.4-1.2c-.8-.4-1.6-.9-2.3-1.4-.7-.5-1.5-1-2.2-1.6s-1.4-1.2-2-1.8c-.6-.6-1.2-1.3-1.8-2S6 44.3 5.5 43.5c-.5-.7-1-1.5-1.4-2.3l-1.2-2.4c-.3-.8-.6-1.7-.9-2.5-.3-.9-.5-1.7-.7-2.6S1 31.9.9 31s-.1-1.8-.1-2.7c0-.9 0-1.8.1-2.7.1-.9.2-1.8.4-2.6.2-.9.4-1.8.7-2.6.3-.9.6-1.7.9-2.5s.7-1.6 1.2-2.4c.4-.8.9-1.6 1.4-2.3.5-.7 1-1.5 1.6-2.2s1.2-1.4 1.8-2c.6-.6 1.3-1.2 2-1.8S12.2 6 13 5.5c.7-.5 1.5-1 2.3-1.4l2.4-1.2c.8-.3 1.7-.6 2.5-.9s1.7-.5 2.6-.7c1-.1 1.9-.3 2.8-.3s1.8-.2 2.7-.2zM28.3 14.9v40.9M28.3.8v6.9" stroke="#123466" fill="none" stroke-width="1.5px"></path>
<path class="st1" d="M43.2 31.9c-.9 13.5-7.3 24-14.9 24-5.6 0-10.4-5.5-13-13.8M13.7 35.1c-.3-2.2-.5-4.5-.5-6.8 0-15.2 6.7-27.5 15-27.5 7.6 0 13.9 10.4 14.9 23.9M46.8 28.3h9M.8 28.3h38.9" stroke="#123466" fill="none" stroke-width="1.5px"></path>
<path class="st1" d="M32.1 8.3l-3.8 3.9-3.9-3.9M39.3 31.1l3.9-3.8 3.8 3.8M17.4 34.9l-2.8 4.7-4.7-2.8" stroke="#123466" fill="none" stroke-width="1.5px"></path>
</g>
</symbol>
<symbol id="icon-drive" viewBox="0 0 57.5 57.5" xml:space="preserve">
<style>.st1 {
                fill: none;
                stroke: currentColor;
                stroke-width: 1.5;
                stroke-miterlimit: 10
            }</style>
<g>
<path class="st1" d="M9.3 9.4l6.1 6.1M28.8 1.3V10M48.2 9.4l-6.1 6.1M39.3 18.3l-8.2 8.1M9.9 33.9c2.2 8.3 9.8 14.4 18.8 14.4s16.6-6.1 18.8-14.4" stroke="#123466" fill="none" stroke-width="1.5px"></path>
<path class="st1" d="M56.3 28.8C56.3 44 44 56.3 28.8 56.3S1.3 44 1.3 28.8" stroke="#123466" fill="none" stroke-width="1.5px"></path>
<path class="st1" d="M28.7 25.6c.4 0 .9.1 1.3.3.4.2.8.4 1.1.7.3.3.6.7.7 1.1.2.3.2.7.2 1.2s-.1.9-.3 1.3c-.2.4-.4.8-.7 1.1s-.7.6-1.1.7c-.4.2-.8.3-1.3.3s-.9-.1-1.3-.3c-.4-.2-.8-.4-1.1-.7-.3-.3-.6-.7-.7-1.1-.2-.4-.3-.8-.3-1.3s.1-.9.3-1.3c.2-.4.4-.8.7-1.1.3-.3.7-.6 1.1-.7.6-.2 1-.2 1.4-.2zM47.5 16.1c.9 1.3 1.6 2.7 2.2 4.1.6 1.4 1 2.9 1.3 4.4M32.9 6.6c1.5.3 3 .7 4.5 1.3 1.4.6 2.8 1.3 4 2.2M15.9 10.1c1.3-.9 2.7-1.6 4.1-2.2 1.4-.6 2.9-1 4.4-1.3M6.4 24.6c.3-1.5.7-3 1.3-4.5.6-1.4 1.3-2.8 2.2-4" stroke="#123466" fill="none" stroke-width="1.5px"></path>
<path class="st1" d="M47.6 28.8h8.7C56.3 13.6 44 1.3 28.8 1.3S1.3 13.6 1.3 28.8H10" stroke="#123466" fill="none" stroke-width="1.5px"></path>
</g>
</symbol>
<symbol id="icon-soft" viewBox="0 0 54.6 57.6" xml:space="preserve">
<style>.st1 {
                fill: none;
                stroke: currentColor;
                stroke-width: 1.5;
                stroke-miterlimit: 10
            }</style>
<g>
<path class="st1" d="M28.4 1.4c1.9 0 3.6 1.1 5.2 3M36.2 8.8c2.2 5 3.6 12.2 3.6 20.1 0 15.2-5.1 27.5-11.4 27.5" stroke="#123466" fill="none" stroke-width="1.5px"></path>
<path class="st1" d="M35 4c.3 0 .7.1 1 .2.3.1.6.3.8.6.2.2.4.5.5.8s.2.6.2 1c0 .3-.1.7-.2 1s-.3.6-.5.8c-.2.2-.5.4-.8.6h-1c-.4 0-.7-.1-1-.2-.3-.1-.6-.3-.8-.6-.2-.2-.4-.5-.5-.8s-.2-.6-.2-1c0-.3.1-.7.2-1s.3-.6.5-.8c.2-.2.5-.4.8-.6h1zM28.6 15.9c10.8-4.9 20.6-5.4 23.3-.7.9 1.6.9 3.7 0 6M49.5 25.6c-3.2 4.5-8.6 9.3-15.4 13.3-1.8 1.1-3.7 2-5.5 2.9" stroke="#123466" fill="none" stroke-width="1.5px"></path>
<path class="st1" d="M48.4 23.5c0-.3.1-.7.2-1 .1-.3.3-.6.5-.8.2-.2.5-.4.8-.5s.6-.2 1-.2c.3 0 .7.1 1 .2.3.1.6.3.8.6.2.2.4.5.5.8.1.3.2.6.2 1 0 .3-.1.7-.2 1-.1.3-.3.6-.5.8-.2.2-.5.4-.8.5s-.6.2-1 .2-.7-.1-1-.2c-.3-.1-.6-.3-.8-.6s-.4-.5-.5-.8c-.2-.3-.2-.7-.2-1zM28.6 16c1.9.9 3.8 1.8 5.7 3 13 7.6 20.9 18.2 17.8 23.7-.9 1.6-2.7 2.6-5.2 3M42 45.8c-3.9-.4-8.5-1.7-13.3-3.9" stroke="#123466" fill="none" stroke-width="1.5px"></path>
<path class="st1" d="M44.5 43.4c.3 0 .7.1 1 .2.3.1.6.3.8.6.2.2.4.5.5.8s.2.6.2 1c0 .3-.1.7-.2 1s-.3.6-.5.8c-.2.2-.5.4-.8.6-.3.1-.6.2-1 .2s-.7-.1-1-.2c-.3-.1-.6-.3-.8-.6-.2-.2-.4-.5-.5-.8s-.2-.6-.2-1c0-.3.1-.7.2-1s.3-.6.5-.8c.2-.2.5-.4.8-.6.3-.2.6-.2 1-.2zM28.6 41.7c-7.1 0-12.8-5.7-12.8-12.8s5.7-12.8 12.8-12.8V1.4h-4.1l-.4 6.1c-2.7.6-5.2 1.6-7.5 3.1l-4.5-4.1-5.9 5.8 4 4.6c-1.5 2.2-2.5 4.7-3.1 7.4l-6.2.3V33l6.2.4c.6 2.7 1.6 5.1 3.1 7.4L6 45.5l5.8 5.9 4.7-4.2c2.2 1.5 4.7 2.5 7.4 3.1l.4 6.2h4.1V41.7z" stroke="#123466" fill="none" stroke-width="1.5px"></path>
</g>
</symbol>
</svg>