<svg xmlns:xlink="http://www.w3.org/1999/xlink" xmlns="http://www.w3.org/2000/svg" class="icon" width="57" height="57"><defs><symbol id="icon-drive" viewBox="0 0 57.5 57.5" xml:space="preserve">
<style>.st1 {
                fill: none;
                stroke: currentColor;
                stroke-width: 1.5;
                stroke-miterlimit: 10
            }</style>
<g>
<path class="st1" d="M9.3 9.4l6.1 6.1M28.8 1.3V10M48.2 9.4l-6.1 6.1M39.3 18.3l-8.2 8.1M9.9 33.9c2.2 8.3 9.8 14.4 18.8 14.4s16.6-6.1 18.8-14.4" stroke="#123466" fill="none" stroke-width="1.5px"></path>
<path class="st1" d="M56.3 28.8C56.3 44 44 56.3 28.8 56.3S1.3 44 1.3 28.8" stroke="#123466" fill="none" stroke-width="1.5px"></path>
<path class="st1" d="M28.7 25.6c.4 0 .9.1 1.3.3.4.2.8.4 1.1.7.3.3.6.7.7 1.1.2.3.2.7.2 1.2s-.1.9-.3 1.3c-.2.4-.4.8-.7 1.1s-.7.6-1.1.7c-.4.2-.8.3-1.3.3s-.9-.1-1.3-.3c-.4-.2-.8-.4-1.1-.7-.3-.3-.6-.7-.7-1.1-.2-.4-.3-.8-.3-1.3s.1-.9.3-1.3c.2-.4.4-.8.7-1.1.3-.3.7-.6 1.1-.7.6-.2 1-.2 1.4-.2zM47.5 16.1c.9 1.3 1.6 2.7 2.2 4.1.6 1.4 1 2.9 1.3 4.4M32.9 6.6c1.5.3 3 .7 4.5 1.3 1.4.6 2.8 1.3 4 2.2M15.9 10.1c1.3-.9 2.7-1.6 4.1-2.2 1.4-.6 2.9-1 4.4-1.3M6.4 24.6c.3-1.5.7-3 1.3-4.5.6-1.4 1.3-2.8 2.2-4" stroke="#123466" fill="none" stroke-width="1.5px"></path>
<path class="st1" d="M47.6 28.8h8.7C56.3 13.6 44 1.3 28.8 1.3S1.3 13.6 1.3 28.8H10" stroke="#123466" fill="none" stroke-width="1.5px"></path>
</g>
</symbol></defs>
<use xlink:href="#icon-drive"></use>
</svg>