<svg xmlns:xlink="http://www.w3.org/1999/xlink" xmlns="http://www.w3.org/2000/svg" class="icon icon-globe" width="411"  height="466" ><defs><symbol id="icon-globe" viewBox="0 0 56.7 56.7" xml:space="preserve">
<style>.st1 {
              fill: none;
              stroke: currentColor;
              stroke-width: 1.2245;
              stroke-miterlimit: 10
          }</style>
<g>
<path class="st1" d="M28.3.8c.9 0 1.8 0 2.7.1s1.8.2 2.7.4c.9.2 1.8.4 2.6.7s1.7.6 2.5.9 1.6.7 2.4 1.2 1.6.9 2.3 1.4c.7.5 1.5 1 2.2 1.6s1.4 1.2 2 1.8c.6.6 1.2 1.3 1.8 2s1.1 1.4 1.6 2.2c.5.7 1 1.5 1.4 2.3l1.2 2.4c.4.8.6 1.7.9 2.5.3.9.5 1.7.7 2.6.2.9.3 1.8.4 2.7.1.9.1 1.8.1 2.7 0 .9 0 1.8-.1 2.7s-.2 1.8-.4 2.7-.4 1.8-.7 2.6c-.3.9-.6 1.7-.9 2.5-.3.8-.7 1.6-1.2 2.4s-.9 1.6-1.4 2.3c-.5.7-1 1.5-1.6 2.2s-1.2 1.4-1.8 2c-.6.6-1.3 1.2-2 1.8s-1.4 1.1-2.2 1.6c-.7.5-1.5 1-2.3 1.4l-2.4 1.2c-.8.4-1.7.6-2.5.9-.9.3-1.7.5-2.6.7-.9.2-1.8.3-2.7.4s-1.8.1-2.7.1c-.9 0-1.8 0-2.7-.1s-1.8-.2-2.7-.4c-.9-.2-1.8-.4-2.6-.7-.9-.3-1.7-.6-2.5-.9s-1.6-.7-2.4-1.2c-.8-.4-1.6-.9-2.3-1.4-.7-.5-1.5-1-2.2-1.6s-1.4-1.2-2-1.8c-.6-.6-1.2-1.3-1.8-2S6 44.3 5.5 43.5c-.5-.7-1-1.5-1.4-2.3l-1.2-2.4c-.3-.8-.6-1.7-.9-2.5-.3-.9-.5-1.7-.7-2.6S1 31.9.9 31s-.1-1.8-.1-2.7c0-.9 0-1.8.1-2.7.1-.9.2-1.8.4-2.6.2-.9.4-1.8.7-2.6.3-.9.6-1.7.9-2.5s.7-1.6 1.2-2.4c.4-.8.9-1.6 1.4-2.3.5-.7 1-1.5 1.6-2.2s1.2-1.4 1.8-2c.6-.6 1.3-1.2 2-1.8S12.2 6 13 5.5c.7-.5 1.5-1 2.3-1.4l2.4-1.2c.8-.3 1.7-.6 2.5-.9s1.7-.5 2.6-.7c1-.1 1.9-.3 2.8-.3s1.8-.2 2.7-.2zM28.3 14.9v40.9M28.3.8v6.9" stroke="#123466" fill="none" stroke-width="1.5px"></path>
<path class="st1" d="M43.2 31.9c-.9 13.5-7.3 24-14.9 24-5.6 0-10.4-5.5-13-13.8M13.7 35.1c-.3-2.2-.5-4.5-.5-6.8 0-15.2 6.7-27.5 15-27.5 7.6 0 13.9 10.4 14.9 23.9M46.8 28.3h9M.8 28.3h38.9" stroke="#123466" fill="none" stroke-width="1.5px"></path>
<path class="st1" d="M32.1 8.3l-3.8 3.9-3.9-3.9M39.3 31.1l3.9-3.8 3.8 3.8M17.4 34.9l-2.8 4.7-4.7-2.8" stroke="#123466" fill="none" stroke-width="1.5px"></path>
</g>
</symbol></defs><use xlink:href="#icon-globe" fill="#E5E5E5"></use></svg>