<svg xmlns="http://www.w3.org/2000/svg" xmlns:xlink="http://www.w3.org/1999/xlink" version="1.1" id="Layer_1" x="0px" y="0px" viewBox="0 0 210 41" style="enable-background:new 0 0 210 41;" xml:space="preserve" width="240"  height="47" >
<style type="text/css">
	.st0{fill:#FFFFFF;}
	.st1{fill:none;stroke:#FFFFFF;}
</style>
<g>
	<path class="st0" d="M38.24,0.18H11.06c-5.4,0-9.81,4.89-9.81,10.89v17.98c0,5.99,4.41,10.89,9.81,10.89h27.18   c5.4,0,9.81-4.89,9.81-10.89V11.07C48.06,5.07,43.65,0.18,38.24,0.18L38.24,0.18z M46.95,29.05c0,5.32-3.91,9.67-8.71,9.67H11.06   c-4.8,0-8.71-4.34-8.71-9.67V11.07c0-5.32,3.91-9.67,8.71-9.67h27.18c4.8,0,8.71,4.34,8.71,9.67L46.95,29.05L46.95,29.05z"/>
	<path class="st0" d="M38.52,20.92v-2.26h-2.1l6.84-10.09H33.17l-7.28,9.97H23.8l6.89-9.85h-9.65l-9.32,10.34H5.99v2.02h5.84   l8.77,9.66h10.2l-6.95-9.73H26l7.39,9.73h10.03l-7-9.79H38.52L38.52,20.92z M61.45,8.93c0.55,0,0.99-0.12,1.43-0.37   c0.55,0.49,0.83,0.73,0.88,0.8c0.17,0.12,0.39,0.25,0.55,0.31l0.44-1.22C64.38,8.25,64.02,8,63.71,7.7   c0.28-0.43,0.5-0.92,0.61-1.41c0.11-0.49,0.17-1.1,0.17-1.77c0-1.41-0.28-2.51-0.83-3.3c-0.55-0.73-1.32-1.16-2.21-1.16   c-0.94,0-1.65,0.37-2.21,1.1s-0.83,1.83-0.83,3.3c0,1.41,0.28,2.51,0.83,3.3C59.8,8.56,60.52,8.93,61.45,8.93L61.45,8.93z    M60.19,2.32c0.33-0.49,0.77-0.73,1.27-0.73c0.5,0,0.94,0.25,1.27,0.73c0.33,0.49,0.5,1.22,0.5,2.2c0,0.98-0.17,1.71-0.5,2.2   c-0.38-0.37-0.77-0.67-1.21-0.86l-0.33,0.98c0.28,0.12,0.5,0.31,0.77,0.55c-0.17,0.06-0.33,0.12-0.5,0.12   c-0.5,0-0.88-0.24-1.21-0.73c-0.33-0.49-0.5-1.22-0.5-2.26C59.69,3.54,59.85,2.81,60.19,2.32L60.19,2.32z M66.58,8.56   c0.39,0.24,0.88,0.37,1.54,0.37c0.61,0,1.16-0.18,1.54-0.49c0.39-0.31,0.66-0.74,0.77-1.22c0.11-0.49,0.17-1.35,0.17-2.51V0.24   h-1.27v4.77c0,0.86-0.05,1.41-0.11,1.65s-0.22,0.49-0.39,0.61c-0.21,0.15-0.46,0.24-0.72,0.24c-0.3,0-0.6-0.11-0.83-0.31   c-0.22-0.18-0.33-0.49-0.39-0.86c-0.06-0.24-0.06-0.67-0.06-1.41V0.24h-1.27v4.53c0,1.28,0.11,2.14,0.28,2.63   C65.92,7.95,66.19,8.32,66.58,8.56L66.58,8.56z M73.09,6.85h2.54l0.55,1.96h1.38l-2.54-8.56h-1.38l-2.48,8.56h1.38L73.09,6.85   L73.09,6.85z M74.35,2.26l0.88,3.18h-1.76L74.35,2.26L74.35,2.26z M82.68,7.34h-3.14V0.36h-1.27v8.44h4.41L82.68,7.34L82.68,7.34z"/>
	<path class="st0" d="M84.83,0.24h-1.27v8.56h1.27L84.83,0.24L84.83,0.24z"/>
	<path class="st0" d="M87.48,8.81h1.27v-7.1h1.87V0.24H85.6v1.47h1.87V8.81z M93.1,8.81h1.27V5.2l2.32-4.95h-1.49l-1.43,3.36   l-1.49-3.36h-1.49L93.1,5.2L93.1,8.81L93.1,8.81z M100.6,6.85h2.54l0.55,1.96h1.38l-2.54-8.56h-1.38l-2.48,8.56h1.38L100.6,6.85z    M101.86,2.26l0.88,3.18h-1.71L101.86,2.26L101.86,2.26z"/>
	<path class="st0" d="M107.21,0.24h-1.27v8.56h1.27V0.24z"/>
	<path class="st0" d="M110.52,5.26h0.27c0.28,0,0.5,0.06,0.66,0.12c0.11,0.06,0.28,0.18,0.39,0.37c0.11,0.18,0.33,0.61,0.66,1.29   l0.94,1.84h1.54l-0.77-1.65c-0.23-0.47-0.47-0.94-0.72-1.41c-0.19-0.27-0.41-0.52-0.66-0.73c0.55-0.12,0.94-0.37,1.21-0.8   c0.28-0.43,0.44-0.92,0.44-1.59c0-0.55-0.11-0.98-0.28-1.35c-0.16-0.37-0.44-0.67-0.72-0.8c-0.28-0.12-0.77-0.25-1.49-0.25h-2.7   v8.56h1.27V5.26H110.52z M110.52,1.71h0.99c0.55,0,0.94,0,1.05,0.06c0.17,0.06,0.28,0.18,0.39,0.37c0.11,0.18,0.17,0.37,0.17,0.67   s-0.06,0.49-0.17,0.67c-0.11,0.18-0.22,0.31-0.39,0.37c-0.17,0.06-0.55,0.06-1.1,0.06h-0.94V1.71z M119.67,5.69   c-0.11,0.61-0.27,1.1-0.55,1.41c-0.22,0.31-0.55,0.43-0.88,0.43c-0.44,0-0.83-0.24-1.1-0.67c-0.28-0.43-0.44-1.22-0.44-2.26   s0.17-1.77,0.44-2.2c0.28-0.43,0.66-0.67,1.16-0.67c0.33,0,0.61,0.12,0.83,0.37c0.22,0.24,0.39,0.61,0.5,1.04l1.27-0.43   c-0.17-0.73-0.39-1.34-0.77-1.71c-0.5-0.55-1.05-0.8-1.76-0.8c-0.88,0-1.54,0.37-2.1,1.1c-0.61,0.79-0.88,1.96-0.88,3.43   c0,1.41,0.28,2.45,0.88,3.3c0.5,0.67,1.16,1.04,1.99,1.04c0.66,0,1.21-0.24,1.65-0.67c0.44-0.43,0.77-1.16,0.94-2.08L119.67,5.69   L119.67,5.69z M123.26,5.26h0.28c0.28,0,0.5,0.06,0.66,0.12c0.11,0.06,0.28,0.18,0.39,0.37c0.11,0.18,0.33,0.61,0.66,1.29   l0.94,1.84h1.54l-0.77-1.65c-0.23-0.47-0.47-0.94-0.72-1.41c-0.19-0.27-0.41-0.52-0.66-0.73c0.55-0.12,0.94-0.37,1.21-0.8   c0.28-0.43,0.44-0.92,0.44-1.59c0-0.55-0.11-0.98-0.28-1.35c-0.17-0.37-0.44-0.67-0.72-0.8c-0.28-0.12-0.77-0.25-1.49-0.25h-2.76   v8.56h1.27V5.26L123.26,5.26z M123.26,1.71h0.99c0.55,0,0.94,0,1.05,0.06c0.17,0.06,0.28,0.18,0.39,0.37   c0.11,0.18,0.17,0.37,0.17,0.67s-0.06,0.49-0.17,0.67c-0.11,0.18-0.22,0.31-0.39,0.37c-0.17,0.06-0.55,0.06-1.1,0.06h-0.94V1.71   L123.26,1.71z"/>
	<path class="st0" d="M129.6,6.85h2.54l0.55,1.96h1.38l-2.54-8.56h-1.38l-2.48,8.56h1.38L129.6,6.85L129.6,6.85z M130.81,2.26   l0.88,3.18h-1.71L130.81,2.26L130.81,2.26z M135.99,5.2h2.65V3.73h-2.65V1.71h3.03V0.24h-4.3v8.56h1.27V5.2L135.99,5.2z    M141.5,8.81h1.27v-7.1h1.87V0.24h-5.02v1.47h1.87V8.81z M150.21,7.52c-0.77,0-1.21-0.55-1.38-1.65l-1.21,0.18   c0.17,1.96,1.05,2.94,2.59,2.94c0.88,0,1.54-0.24,1.93-0.74c0.39-0.49,0.61-1.1,0.61-1.9c0-0.49-0.06-0.98-0.22-1.28   c-0.17-0.37-0.39-0.67-0.66-0.86c-0.28-0.25-0.77-0.43-1.38-0.67c-0.61-0.18-0.99-0.37-1.16-0.55c-0.16-0.18-0.28-0.37-0.28-0.61   s0.11-0.43,0.28-0.61c0.17-0.18,0.44-0.24,0.77-0.24c0.33,0,0.61,0.06,0.77,0.24c0.17,0.18,0.33,0.49,0.39,0.98l1.27-0.06   c0-0.86-0.22-1.47-0.66-1.9c-0.44-0.43-0.99-0.67-1.76-0.67c-0.5,0-0.94,0.12-1.27,0.31c-0.33,0.18-0.61,0.49-0.77,0.86   c-0.18,0.4-0.28,0.84-0.28,1.28c0,0.43,0.06,0.8,0.22,1.1c0.17,0.37,0.33,0.61,0.61,0.86c0.37,0.26,0.78,0.47,1.21,0.61   c0.61,0.18,0.99,0.37,1.16,0.43c0.07,0.03,0.14,0.07,0.2,0.12c0.06,0.05,0.1,0.12,0.13,0.19c0.06,0.12,0.11,0.31,0.11,0.49   c0,0.3-0.11,0.61-0.33,0.86C150.85,7.42,150.54,7.53,150.21,7.52L150.21,7.52z"/>
	<path class="st0" d="M155.01,0.24h-1.27v8.56h1.27V0.24z"/>
	<path class="st0" d="M157.44,3.24l2.59,5.57h1.27V0.24h-1.21v5.75l-2.59-5.75h-1.21v8.56h1.16V3.24L157.44,3.24z M166.09,7.03   c-0.22,0.31-0.55,0.43-0.88,0.43c-0.44,0-0.83-0.24-1.1-0.67c-0.28-0.43-0.44-1.22-0.44-2.26s0.17-1.77,0.44-2.2   c0.28-0.43,0.66-0.67,1.16-0.67c0.33,0,0.61,0.12,0.83,0.37c0.22,0.24,0.39,0.61,0.5,1.04l1.27-0.43   c-0.16-0.73-0.39-1.35-0.77-1.71c-0.44-0.55-1.05-0.8-1.76-0.8c-0.88,0-1.54,0.37-2.1,1.1c-0.61,0.8-0.88,1.96-0.88,3.43   c0,1.41,0.28,2.45,0.88,3.3c0.5,0.67,1.16,1.04,1.99,1.04c0.66,0,1.21-0.24,1.65-0.67c0.44-0.43,0.77-1.16,0.94-2.08l-1.16-0.55   C166.53,6.3,166.37,6.73,166.09,7.03L166.09,7.03z M173.76,7.34h-3.53V5.01h3.2V3.61h-3.2v-1.9h3.42V0.24h-4.69v8.56h4.8V7.34z    M178.94,2.63V8.8h1.21V0.24h-0.99c-0.16,0.49-0.39,0.98-0.77,1.35c-0.38,0.37-0.72,0.67-1.05,0.79v1.47   C177.95,3.61,178.44,3.18,178.94,2.63L178.94,2.63z M183.68,5.93c0.22,0,0.44-0.06,0.61-0.18c0.17-0.12,0.39-0.3,0.5-0.55   c-0.06,0.98-0.17,1.59-0.33,1.9c-0.17,0.31-0.39,0.49-0.66,0.49c-0.39,0-0.61-0.31-0.66-0.98l-1.16,0.18   c0.11,0.73,0.28,1.29,0.61,1.59c0.33,0.37,0.72,0.55,1.16,0.55c0.66,0,1.27-0.37,1.65-1.04c0.44-0.67,0.66-1.84,0.66-3.36   c0-1.53-0.22-2.63-0.61-3.3s-0.94-0.98-1.6-0.98c-0.55,0-1.05,0.24-1.43,0.8c-0.39,0.49-0.61,1.22-0.61,2.14   c0,0.86,0.16,1.53,0.55,2.02C182.74,5.69,183.18,5.93,183.68,5.93L183.68,5.93z M183.24,1.95c0.17-0.24,0.33-0.37,0.55-0.37   c0.22,0,0.44,0.12,0.61,0.43c0.16,0.31,0.27,0.67,0.27,1.22c0,0.49-0.05,0.86-0.22,1.1c-0.17,0.24-0.39,0.37-0.61,0.37   c-0.22,0-0.44-0.12-0.61-0.37c-0.16-0.24-0.22-0.67-0.22-1.22C183.02,2.57,183.07,2.2,183.24,1.95z M189.58,8.81h1.16V7.09h0.77   V5.62h-0.77V0.24h-0.99l-2.76,5.38v1.47h2.59V8.81z M188.15,5.63l1.43-2.94v2.94L188.15,5.63L188.15,5.63z M195.97,5.01   c-0.16-0.37-0.44-0.61-0.83-0.8c0.28-0.18,0.5-0.37,0.66-0.67c0.16-0.31,0.22-0.67,0.22-1.1c0-0.61-0.17-1.1-0.5-1.53   c-0.33-0.43-0.77-0.61-1.38-0.61c-0.61,0-1.05,0.18-1.38,0.61c-0.33,0.37-0.5,0.92-0.5,1.59c0,0.43,0.06,0.8,0.22,1.04   c0.16,0.31,0.39,0.55,0.66,0.67c-0.33,0.18-0.61,0.43-0.77,0.8c-0.19,0.42-0.28,0.88-0.28,1.35c0,0.8,0.22,1.41,0.61,1.9   c0.39,0.49,0.88,0.67,1.49,0.67c0.39,0,0.72-0.12,1.05-0.31c0.33-0.18,0.55-0.55,0.72-0.92c0.17-0.43,0.28-0.86,0.28-1.41   C196.25,5.81,196.2,5.38,195.97,5.01L195.97,5.01z M193.66,1.83c0.07-0.08,0.15-0.15,0.25-0.19c0.1-0.04,0.2-0.06,0.31-0.06   c0.22,0,0.39,0.06,0.55,0.24c0.17,0.18,0.22,0.43,0.22,0.73c0,0.31-0.05,0.61-0.22,0.74c-0.07,0.08-0.15,0.14-0.25,0.19   c-0.1,0.04-0.2,0.06-0.3,0.06c-0.11,0.01-0.21-0.01-0.31-0.06c-0.1-0.04-0.18-0.11-0.25-0.19c-0.17-0.18-0.22-0.43-0.22-0.74   C193.44,2.26,193.49,2.02,193.66,1.83L193.66,1.83z M194.82,7.28c-0.16,0.24-0.38,0.37-0.61,0.37c-0.22,0-0.44-0.12-0.61-0.37   c-0.17-0.24-0.28-0.61-0.28-1.04c0-0.37,0.11-0.73,0.28-0.98c0.16-0.24,0.38-0.37,0.61-0.37c0.22,0,0.44,0.12,0.61,0.37   c0.17,0.24,0.28,0.55,0.28,0.98C195.04,6.66,194.98,7.03,194.82,7.28L194.82,7.28z M77,39.21h17.09l0.94-5.08H84.22l0.83-4.41h9.7   l0.83-4.59h-9.7l0.61-3.61h10.47l0.88-4.77H81.08L77,39.21z M116.86,17.18c-1.27-1.16-3.14-1.71-5.73-1.71c-3.25,0-5.95,0.98-8.1,3   c-2.15,2.02-3.53,6.06-4.25,9.79c-0.5,2.81-0.39,5.08,0.28,6.85c0.72,1.77,1.65,3.06,2.92,3.73c1.27,0.73,3.03,1.04,5.24,1.04   c1.82,0,3.31,0,4.58-0.55c1.27-0.61,2.98-1.35,3.86-2.57c2.81-3.79,2.48-4.34,3.14-6.06c0.17-0.18-5.84-0.24-5.84-0.24   c-0.55,1.41-1.38,2.63-2.15,3.36c-0.77,0.73-1.82,0.86-3.03,0.86s-2.1-0.49-2.65-1.41c-0.5-0.92-0.55-2.63-0.11-5.14   c0.39-2.02,0.94-4.71,1.65-5.63c0.99-1.29,2.21-1.9,3.64-1.9c0.61,0,1.16,0.12,1.65,0.43c0.44,0.31,0.83,0.67,1.05,1.22   c0.17,0.31,0.28,1.53,0.33,2.2l6.07,0.06C119.78,21.16,118.13,18.35,116.86,17.18L116.86,17.18z M138.25,16.76l-2.21,12.42   l-5.4-12.42h-5.84l-4.03,22.45h5.9l2.2-12.36l5.35,12.36h5.9l4.08-22.45H138.25z M154.52,16.57l-11.69,22.51h6.4l1.71-3.73h7.11   l0.33,3.73h6.56l-3.53-22.51H154.52L154.52,16.57z M153.08,30.52l3.69-8.07l0.77,8.07H153.08L153.08,30.52z M181.14,30.58   l-0.66-13.7h-8.27l-4.08,22.51h5.13l3.09-17.19l0.88,17.19h4.63l7.06-17.19l-3.09,17.19h5.13l4.02-22.51h-8.21L181.14,30.58   L181.14,30.58z M58.31,16.88l-0.99,5.57h6.39l-3.09,16.94h6.28l3.03-16.94h6.39l0.99-5.57H58.31L58.31,16.88z"/>
	<path class="st1" d="M202.75,27.6c2.76,0,5-2.24,5-5s-2.24-5-5-5s-5,2.24-5,5S199.99,27.6,202.75,27.6z"/>
	<path class="st0" d="M201.25,25.1v-5h1.89c0.47,0,0.82,0.05,1.03,0.14c0.22,0.09,0.39,0.25,0.52,0.48   c0.13,0.23,0.19,0.49,0.19,0.79c0,0.38-0.1,0.68-0.3,0.93c-0.2,0.24-0.49,0.4-0.88,0.46c0.19,0.13,0.35,0.27,0.48,0.42   c0.13,0.15,0.3,0.42,0.51,0.81l0.54,0.98h-1.07l-0.65-1.09c-0.23-0.39-0.39-0.63-0.47-0.73c-0.07-0.09-0.16-0.16-0.27-0.21   c-0.1-0.04-0.25-0.06-0.45-0.06h-0.18v2.09H201.25z M202.15,22.21h0.67c0.43,0,0.7-0.02,0.81-0.06c0.11-0.04,0.19-0.11,0.25-0.21   c0.06-0.11,0.1-0.24,0.09-0.38c0.01-0.15-0.04-0.29-0.12-0.41c-0.08-0.11-0.2-0.18-0.34-0.2c-0.22-0.02-0.44-0.02-0.66-0.02h-0.7   V22.21z"/>
</g>
</svg>