<svg xmlns="http://www.w3.org/2000/svg" xmlns:xlink="http://www.w3.org/1999/xlink" version="1.1" id="Layer_1" x="0px" y="0px" viewBox="0 0 196.58 43.67" style="enable-background:new 0 0 196.58 43.67;" xml:space="preserve" width="196.58"  height="43.67" >
<style type="text/css">
	.st0{fill:#575858;}
	.st1{fill:none;stroke:#575858;stroke-width:0.7458;stroke-miterlimit:10;}
	.st2{fill:#575858;stroke:#FFFFFF;stroke-width:0.5778;stroke-miterlimit:10;}
	.st3{opacity:0.3;fill:#575858;}
</style>
<g>
	<g>
		<path class="st0" d="M38,3.82H13.27c-4.92,0-8.93,4.45-8.93,9.91V30.1c0,5.46,4.01,9.91,8.93,9.91H38c4.92,0,8.93-4.45,8.93-9.91    V13.73C46.93,8.28,42.92,3.82,38,3.82L38,3.82z M45.93,30.1c0,4.84-3.56,8.8-7.93,8.8H13.27c-4.37,0-7.93-3.95-7.93-8.8V13.73    c0-4.84,3.56-8.8,7.93-8.8H38c4.37,0,7.93,3.95,7.93,8.8L45.93,30.1L45.93,30.1z"/>
		<path class="st0" d="M38.25,22.69v-2.06h-1.91l6.22-9.18h-9.18l-6.62,9.07h-1.91l6.27-8.96h-8.78l-8.48,9.41H8.65v1.84h5.32    l7.98,8.8h9.28l-6.32-8.85h1.96l6.72,8.85h9.13l-6.37-8.91H38.25L38.25,22.69z M59.12,11.78c0.5,0,0.9-0.11,1.3-0.33    c0.5,0.45,0.75,0.67,0.8,0.72c0.15,0.11,0.35,0.22,0.5,0.28l0.4-1.11c-0.35-0.17-0.67-0.4-0.95-0.67    c0.25-0.39,0.45-0.83,0.55-1.28c0.1-0.44,0.15-1,0.15-1.61c0-1.28-0.25-2.28-0.75-3.01c-0.5-0.67-1.2-1.06-2.01-1.06    c-0.85,0-1.51,0.33-2.01,1s-0.75,1.67-0.75,3.01c0,1.28,0.25,2.28,0.75,3.01C57.62,11.45,58.27,11.78,59.12,11.78L59.12,11.78z     M57.97,5.77c0.3-0.45,0.7-0.67,1.15-0.67c0.45,0,0.85,0.22,1.15,0.67c0.3,0.45,0.45,1.11,0.45,2c0,0.89-0.15,1.56-0.45,2    c-0.35-0.33-0.7-0.61-1.1-0.78l-0.3,0.89c0.25,0.11,0.45,0.28,0.7,0.5c-0.15,0.06-0.3,0.11-0.45,0.11c-0.45,0-0.8-0.22-1.1-0.67    c-0.3-0.45-0.45-1.11-0.45-2.06C57.51,6.88,57.67,6.22,57.97,5.77L57.97,5.77z M63.79,11.45c0.35,0.22,0.8,0.33,1.41,0.33    c0.55,0,1.05-0.17,1.41-0.45c0.35-0.28,0.6-0.67,0.7-1.11c0.1-0.45,0.15-1.22,0.15-2.28V3.88h-1.15v4.34c0,0.78-0.05,1.28-0.1,1.5    s-0.2,0.45-0.35,0.56c-0.19,0.14-0.42,0.22-0.65,0.22c-0.28,0-0.54-0.1-0.75-0.28c-0.2-0.17-0.3-0.45-0.35-0.78    c-0.05-0.22-0.05-0.61-0.05-1.28V3.88h-1.15V8c0,1.17,0.1,1.95,0.25,2.39C63.18,10.89,63.43,11.23,63.79,11.45L63.79,11.45z     M69.71,9.89h2.31l0.5,1.78h1.25l-2.31-7.79h-1.25l-2.26,7.79h1.25L69.71,9.89L69.71,9.89z M70.86,5.72l0.8,2.89h-1.61L70.86,5.72    L70.86,5.72z M78.44,10.34h-2.86V3.99h-1.15v7.68h4.01L78.44,10.34L78.44,10.34z"/>
		<path class="st0" d="M80.39,3.88h-1.16v7.79h1.15L80.39,3.88L80.39,3.88z"/>
		<path class="st0" d="M82.8,11.67h1.15V5.21h1.71V3.88h-4.57v1.34h1.71V11.67z M87.92,11.67h1.15V8.39l2.11-4.51h-1.35l-1.3,3.06    l-1.35-3.06h-1.35l2.11,4.51L87.92,11.67L87.92,11.67z M94.74,9.89h2.31l0.5,1.78h1.25L96.5,3.88h-1.25l-2.26,7.79h1.25    L94.74,9.89z M95.89,5.72l0.8,2.89h-1.56L95.89,5.72L95.89,5.72z"/>
		<path class="st0" d="M100.76,3.88h-1.15v7.79h1.15V3.88z"/>
		<path class="st0" d="M103.77,8.44h0.25c0.25,0,0.45,0.06,0.6,0.11c0.1,0.06,0.25,0.17,0.35,0.33c0.1,0.17,0.3,0.56,0.6,1.17    l0.85,1.67h1.41l-0.7-1.5c-0.21-0.43-0.43-0.86-0.65-1.28c-0.17-0.25-0.37-0.47-0.6-0.67c0.5-0.11,0.85-0.33,1.1-0.72    c0.25-0.39,0.4-0.83,0.4-1.45c0-0.5-0.1-0.89-0.25-1.22c-0.15-0.33-0.4-0.61-0.65-0.72c-0.25-0.11-0.7-0.22-1.35-0.22h-2.46v7.79    h1.15V8.44H103.77z M103.77,5.21h0.9c0.5,0,0.85,0,0.95,0.06c0.15,0.06,0.25,0.17,0.35,0.33c0.1,0.17,0.15,0.33,0.15,0.61    c0,0.28-0.05,0.45-0.15,0.61c-0.1,0.17-0.2,0.28-0.35,0.33c-0.15,0.06-0.5,0.06-1,0.06h-0.85V5.21z M112.1,8.83    c-0.1,0.56-0.25,1-0.5,1.28c-0.2,0.28-0.5,0.39-0.8,0.39c-0.4,0-0.75-0.22-1-0.61c-0.25-0.39-0.4-1.11-0.4-2.06s0.15-1.61,0.4-2    c0.25-0.39,0.6-0.61,1.05-0.61c0.3,0,0.55,0.11,0.75,0.33c0.2,0.22,0.35,0.56,0.45,0.95l1.15-0.39c-0.15-0.67-0.35-1.22-0.7-1.56    c-0.45-0.5-0.95-0.72-1.61-0.72c-0.8,0-1.41,0.33-1.91,1c-0.55,0.72-0.8,1.78-0.8,3.12c0,1.28,0.25,2.23,0.8,3.01    c0.45,0.61,1.05,0.95,1.81,0.95c0.6,0,1.1-0.22,1.51-0.61c0.4-0.39,0.7-1.06,0.85-1.89L112.1,8.83L112.1,8.83z M115.36,8.44h0.25    c0.25,0,0.45,0.06,0.6,0.11c0.1,0.06,0.25,0.17,0.35,0.33c0.1,0.17,0.3,0.56,0.6,1.17l0.85,1.67h1.41l-0.7-1.5    c-0.21-0.43-0.43-0.86-0.65-1.28c-0.17-0.25-0.37-0.47-0.6-0.67c0.5-0.11,0.85-0.33,1.1-0.72c0.25-0.39,0.4-0.83,0.4-1.45    c0-0.5-0.1-0.89-0.25-1.22c-0.15-0.33-0.4-0.61-0.65-0.72c-0.25-0.11-0.7-0.22-1.35-0.22h-2.51v7.79h1.15V8.44L115.36,8.44z     M115.36,5.21h0.9c0.5,0,0.85,0,0.95,0.06c0.15,0.06,0.25,0.17,0.35,0.33c0.1,0.17,0.15,0.33,0.15,0.61    c0,0.28-0.05,0.45-0.15,0.61c-0.1,0.17-0.2,0.28-0.35,0.33c-0.15,0.06-0.5,0.06-1,0.06h-0.85V5.21L115.36,5.21z"/>
		<path class="st0" d="M121.13,9.89h2.31l0.5,1.78h1.25l-2.31-7.79h-1.25l-2.26,7.79h1.25L121.13,9.89L121.13,9.89z M122.23,5.72    l0.8,2.89h-1.56L122.23,5.72L122.23,5.72z M126.95,8.39h2.41V7.05h-2.41V5.21h2.76V3.88h-3.91v7.79h1.15V8.39L126.95,8.39z     M131.97,11.67h1.15V5.21h1.71V3.88h-4.57v1.34h1.71V11.67z M139.89,10.5c-0.7,0-1.1-0.5-1.25-1.5l-1.1,0.17    c0.15,1.78,0.95,2.67,2.36,2.67c0.8,0,1.41-0.22,1.76-0.67c0.35-0.44,0.55-1,0.55-1.73c0-0.45-0.05-0.89-0.2-1.17    c-0.15-0.33-0.35-0.61-0.6-0.78c-0.25-0.22-0.7-0.39-1.25-0.61c-0.55-0.17-0.9-0.33-1.05-0.5c-0.15-0.17-0.25-0.33-0.25-0.56    c0-0.22,0.1-0.39,0.25-0.56c0.15-0.17,0.4-0.22,0.7-0.22c0.3,0,0.55,0.05,0.7,0.22c0.15,0.17,0.3,0.45,0.35,0.89L142,6.11    c0-0.78-0.2-1.34-0.6-1.73c-0.4-0.39-0.9-0.61-1.61-0.61c-0.45,0-0.85,0.11-1.15,0.28c-0.3,0.17-0.55,0.44-0.7,0.78    c-0.17,0.37-0.25,0.77-0.25,1.17c0,0.39,0.05,0.72,0.2,1c0.15,0.33,0.3,0.56,0.55,0.78c0.34,0.24,0.71,0.42,1.1,0.56    c0.55,0.17,0.9,0.33,1.05,0.39c0.07,0.02,0.13,0.06,0.18,0.11c0.05,0.05,0.09,0.11,0.12,0.17c0.05,0.11,0.1,0.28,0.1,0.45    c0,0.28-0.1,0.56-0.3,0.78C140.47,10.41,140.18,10.51,139.89,10.5L139.89,10.5z"/>
		<path class="st0" d="M144.26,3.88h-1.15v7.79h1.15V3.88z"/>
		<path class="st0" d="M146.46,6.61l2.36,5.07h1.15V3.88h-1.1v5.23l-2.36-5.23h-1.1v7.79h1.05V6.61L146.46,6.61z M154.34,10.06    c-0.2,0.28-0.5,0.39-0.8,0.39c-0.4,0-0.75-0.22-1-0.61c-0.25-0.39-0.4-1.11-0.4-2.06s0.15-1.61,0.4-2    c0.25-0.39,0.6-0.61,1.05-0.61c0.3,0,0.55,0.11,0.75,0.33c0.2,0.22,0.35,0.56,0.45,0.95l1.15-0.39c-0.15-0.67-0.35-1.22-0.7-1.56    c-0.4-0.5-0.95-0.72-1.61-0.72c-0.8,0-1.41,0.33-1.91,1c-0.55,0.72-0.8,1.78-0.8,3.12c0,1.28,0.25,2.23,0.8,3.01    c0.45,0.61,1.05,0.95,1.81,0.95c0.6,0,1.1-0.22,1.51-0.61c0.4-0.39,0.7-1.06,0.85-1.89l-1.05-0.5    C154.74,9.39,154.59,9.78,154.34,10.06L154.34,10.06z M161.31,10.34h-3.21V8.22h2.91V6.94h-2.91V5.21h3.11V3.88h-4.26v7.79h4.36    V10.34z M166.03,6.05v5.62h1.1V3.88h-0.9c-0.15,0.45-0.35,0.89-0.7,1.22c-0.35,0.33-0.65,0.61-0.95,0.72v1.34    C165.13,6.94,165.58,6.55,166.03,6.05L166.03,6.05z M170.34,9.06c0.2,0,0.4-0.06,0.55-0.17c0.15-0.11,0.35-0.28,0.45-0.5    c-0.05,0.89-0.15,1.45-0.3,1.73c-0.15,0.28-0.35,0.45-0.6,0.45c-0.35,0-0.55-0.28-0.6-0.89l-1.05,0.17    c0.1,0.67,0.25,1.17,0.55,1.45c0.3,0.33,0.65,0.5,1.05,0.5c0.6,0,1.15-0.33,1.51-0.95c0.4-0.61,0.6-1.67,0.6-3.06    c0-1.39-0.2-2.39-0.55-3.01s-0.85-0.89-1.46-0.89c-0.5,0-0.95,0.22-1.3,0.72c-0.35,0.45-0.55,1.11-0.55,1.95    c0,0.78,0.15,1.39,0.5,1.84C169.49,8.83,169.89,9.06,170.34,9.06L170.34,9.06z M169.94,5.44c0.15-0.22,0.3-0.33,0.5-0.33    c0.2,0,0.4,0.11,0.55,0.39c0.15,0.28,0.25,0.61,0.25,1.11c0,0.45-0.05,0.78-0.2,1c-0.15,0.22-0.35,0.33-0.55,0.33    c-0.2,0-0.4-0.11-0.55-0.33c-0.15-0.22-0.2-0.61-0.2-1.11C169.74,5.99,169.79,5.66,169.94,5.44z M175.71,11.67h1.05v-1.56h0.7    V8.78h-0.7v-4.9h-0.9l-2.51,4.9v1.34h2.36V11.67z M174.41,8.78l1.3-2.67v2.67L174.41,8.78L174.41,8.78z M181.53,8.22    c-0.15-0.33-0.4-0.56-0.75-0.72c0.25-0.17,0.45-0.33,0.6-0.61c0.15-0.28,0.2-0.61,0.2-1c0-0.56-0.15-1-0.45-1.39    c-0.3-0.39-0.7-0.56-1.25-0.56c-0.55,0-0.95,0.17-1.25,0.56c-0.3,0.33-0.45,0.83-0.45,1.45c0,0.39,0.05,0.72,0.2,0.95    c0.15,0.28,0.35,0.5,0.6,0.61c-0.3,0.17-0.55,0.39-0.7,0.72c-0.17,0.39-0.26,0.8-0.25,1.22c0,0.72,0.2,1.28,0.55,1.73    c0.35,0.45,0.8,0.61,1.35,0.61c0.35,0,0.65-0.11,0.95-0.28c0.3-0.17,0.5-0.5,0.65-0.83c0.15-0.39,0.25-0.78,0.25-1.28    C181.78,8.94,181.73,8.55,181.53,8.22L181.53,8.22z M179.43,5.33c0.06-0.07,0.14-0.13,0.22-0.17c0.09-0.04,0.18-0.06,0.28-0.05    c0.2,0,0.35,0.05,0.5,0.22c0.15,0.17,0.2,0.39,0.2,0.67c0,0.28-0.05,0.56-0.2,0.67c-0.06,0.07-0.14,0.13-0.22,0.17    c-0.09,0.04-0.18,0.06-0.28,0.05c-0.1,0-0.19-0.01-0.28-0.05c-0.09-0.04-0.16-0.1-0.22-0.17c-0.15-0.17-0.2-0.39-0.2-0.67    C179.22,5.72,179.27,5.49,179.43,5.33L179.43,5.33z M180.48,10.28c-0.15,0.22-0.35,0.33-0.55,0.33s-0.4-0.11-0.55-0.33    c-0.15-0.22-0.25-0.56-0.25-0.95c0-0.33,0.1-0.67,0.25-0.89c0.15-0.22,0.35-0.33,0.55-0.33s0.4,0.11,0.55,0.33    c0.15,0.22,0.25,0.5,0.25,0.89C180.68,9.72,180.63,10.06,180.48,10.28L180.48,10.28z M73.27,39.34h15.55l0.85-4.62h-9.83    l0.75-4.01h8.83l0.75-4.18h-8.83l0.55-3.28h9.53l0.8-4.34H76.98L73.27,39.34z M109.54,19.3c-1.15-1.06-2.86-1.56-5.22-1.56    c-2.96,0-5.42,0.89-7.37,2.73c-1.96,1.84-3.21,5.51-3.86,8.91c-0.45,2.56-0.35,4.62,0.25,6.23c0.65,1.61,1.51,2.78,2.66,3.4    c1.15,0.67,2.76,0.95,4.77,0.95c1.66,0,3.01,0,4.16-0.5c1.15-0.56,2.71-1.22,3.51-2.34c2.56-3.45,2.26-3.95,2.86-5.51    c0.15-0.17-5.32-0.22-5.32-0.22c-0.5,1.28-1.25,2.39-1.96,3.06c-0.7,0.67-1.66,0.78-2.76,0.78c-1.1,0-1.91-0.45-2.41-1.28    c-0.45-0.84-0.5-2.39-0.1-4.68c0.35-1.84,0.85-4.29,1.51-5.12c0.9-1.17,2.01-1.73,3.31-1.73c0.55,0,1.05,0.11,1.51,0.39    c0.4,0.28,0.75,0.61,0.95,1.11c0.15,0.28,0.25,1.39,0.3,2l5.52,0.06C112.2,22.92,110.69,20.36,109.54,19.3L109.54,19.3z     M129.01,18.91L127,30.21l-4.92-11.3h-5.32l-3.66,20.43h5.37l2.01-11.24l4.87,11.24h5.37l3.71-20.43H129.01z M143.81,18.74    l-10.64,20.48h5.82l1.56-3.4h6.47l0.3,3.4h5.97l-3.21-20.48H143.81L143.81,18.74z M142.5,31.43l3.36-7.35l0.7,7.35H142.5    L142.5,31.43z M168.04,31.49l-0.6-12.47h-7.52L156.2,39.5h4.67l2.81-15.64l0.8,15.64h4.22l6.42-15.64L172.3,39.5h4.67l3.66-20.49    h-7.48L168.04,31.49L168.04,31.49z M56.26,19.02l-0.9,5.07h5.82L58.37,39.5h5.72l2.76-15.42h5.82l0.9-5.07H56.26L56.26,19.02z"/>
		<path class="st1" d="M187.7,28.77c2.51,0,4.55-2.04,4.55-4.55s-2.04-4.55-4.55-4.55s-4.55,2.04-4.55,4.55    S185.19,28.77,187.7,28.77z"/>
		<path class="st0" d="M186.33,26.49v-4.55h1.72c0.43,0,0.75,0.04,0.94,0.12c0.2,0.08,0.35,0.23,0.47,0.43    c0.12,0.21,0.18,0.45,0.18,0.72c0,0.34-0.09,0.62-0.27,0.85c-0.18,0.22-0.44,0.36-0.8,0.42c0.18,0.12,0.32,0.24,0.44,0.38    c0.12,0.14,0.27,0.38,0.47,0.74l0.49,0.89H189l-0.59-0.99c-0.21-0.35-0.35-0.58-0.43-0.67c-0.06-0.08-0.15-0.15-0.25-0.19    c-0.09-0.04-0.22-0.05-0.41-0.05h-0.17v1.9H186.33z M187.15,23.87h0.61c0.39,0,0.64-0.02,0.73-0.06c0.1-0.04,0.18-0.1,0.23-0.19    c0.06-0.1,0.09-0.22,0.08-0.34c0.01-0.13-0.03-0.26-0.11-0.37c-0.08-0.1-0.18-0.16-0.31-0.18c-0.2-0.01-0.4-0.02-0.6-0.02h-0.64    V23.87z"/>
	</g>
</g>
<g id="temp_5_">
	<polyline class="st2" points="-489.39,7.28 -479.42,16.94 -489.39,26.35 -489.39,7.28  "/>
	<g>
		<polyline class="st2" points="-489.39,7.28 -472.88,-2.25 -479.42,16.94 -489.39,7.28   "/>
		<polyline class="st2" points="-489.39,26.35 -479.42,16.94 -472.88,35.89 -489.39,26.35   "/>
		<polyline class="st2" points="-456.36,26.35 -467.13,24.65 -472.88,35.89 -456.36,26.35   "/>
		<polyline class="st2" points="-479.42,16.94 -472.88,35.89 -467.13,24.65 -479.42,16.94   "/>
		<polyline class="st2" points="-472.88,-2.25 -479.42,16.94 -461.69,11.97 -472.88,-2.25   "/>
		<polyline class="st2" points="-479.42,16.94 -467.13,24.65 -461.69,11.97 -479.42,16.94   "/>
		<polyline class="st2" points="-461.69,11.97 -467.13,24.65 -456.36,26.35 -461.69,11.97   "/>
		<polyline class="st2" points="-461.69,11.97 -472.88,-2.25 -456.36,7.28 -461.69,11.97   "/>
		<polyline class="st2" points="-456.36,26.35 -461.69,11.97 -456.36,7.28 -456.36,26.35   "/>
		<path class="st0" d="M-429.28,7.35h-7.37l-5.99,7.2v-7.2h-6.02v19.03h6.04v-4.51l2.81-3.09l4.18,7.6h6.81l-7.09-11.82    L-429.28,7.35z M-418.07,12.07c-3.09,0-4.13,1.57-4.59,2.21v-1.86h-5.26v13.96h5.57v-7.43c0-0.76,0.06-2.3,2.02-2.3    c1.86,0,1.86,1.4,1.86,2.1v7.62h5.57v-8.81c0-1.05-0.08-2.92-1.4-4.21C-415.34,12.45-416.69,11.98-418.07,12.07L-418.07,12.07z     M-402.79,11.82c-5.16,0-8.26,3.09-8.26,7.69c0,3.75,2.32,7.43,7.97,7.43c5.29,0,8.34-3.09,8.34-7.5    c0.03-2.07-0.75-4.07-2.18-5.57c-1.08-1.05-3.02-2.02-5.87-2.05L-402.79,11.82z M-402.93,23.05c-2.27,0-2.59-2.35-2.59-3.71    c0-1.57,0.46-3.56,2.57-3.61c2.53-0.08,2.59,2.72,2.59,3.56C-400.34,21.43-400.95,23.05-402.93,23.05L-402.93,23.05z     M-383.9,12.04c-2.4,0-3.32,1.03-3.71,1.46v-1.08h-5.43v19.06h5.48v-6.02c0.46,0.43,1.35,1.3,3.62,1.3c4.21,0,6.15-3.19,6.15-7.26    C-377.8,15.82-379.39,12.04-383.9,12.04L-383.9,12.04z M-384.06,22.24c-0.78,0.79-2.04,0.79-2.83,0.02    c-0.25-0.24-0.43-0.55-0.52-0.89c-0.19-0.62-0.27-1.27-0.24-1.92c0-0.78,0-2.05,0.81-2.8c0.4-0.38,0.93-0.59,1.49-0.57    c1.97,0.06,2.08,2.38,2.08,3.48C-383.19,20.53-383.47,21.48-384.06,22.24L-384.06,22.24z M-366.76,12.04    c-2.4,0-3.32,1.03-3.71,1.46v-1.08h-5.43v19.06h5.48v-6.02c0.46,0.43,1.35,1.3,3.62,1.3c4.21,0,6.15-3.19,6.15-7.26    C-360.66,15.82-362.26,12.04-366.76,12.04L-366.76,12.04z M-366.91,22.24c-0.78,0.79-2.04,0.79-2.83,0.02    c-0.25-0.24-0.43-0.55-0.52-0.89c-0.19-0.62-0.27-1.27-0.24-1.92c0-0.78,0-2.05,0.81-2.8c0.4-0.38,0.93-0.59,1.49-0.57    c1.97,0.06,2.08,2.38,2.08,3.48C-366.04,20.53-366.32,21.48-366.91,22.24z"/>
		<path class="st0" d="M-440.51,40.5c1.19-0.37,1.99-1.5,1.94-2.75c0-1.97-1.53-2.91-2.8-3.16c-0.56-0.08-1.13-0.11-1.7-0.09h-5.21    v12.68h4.95c1.87,0,2.74,0,3.74-0.67c0.94-0.63,1.48-1.71,1.42-2.84C-438.07,42.19-439.06,40.85-440.51,40.5z M-446.7,36h3.93    c0.68,0,2.42,0.04,2.42,1.85c0.01,0.4-0.1,0.8-0.32,1.13c-0.57,0.86-1.47,0.86-3.39,0.86h-2.64V36z M-441.39,45.58    c-0.52,0.1-1.04,0.14-1.56,0.11h-3.75v-4.41h3.1c1.56,0,1.96,0.03,2.46,0.25c0.78,0.37,1.26,1.17,1.22,2.03    C-439.92,44.54-440.31,45.31-441.39,45.58L-441.39,45.58z M-436.95,36.16h1.38v-1.65h-1.38V36.16z M-436.95,47.18h1.38v-8.46    h-1.38V47.18z M-430.08,38.46c-3.29,0-4.22,2.67-4.22,4.56c0,2.23,1.24,4.42,4.16,4.42c2.59,0,4.11-1.92,4.13-4.49    C-425.99,40.63-427.28,38.46-430.08,38.46L-430.08,38.46z M-427.57,42.94c0,0.86-0.2,3.32-2.59,3.32c-1.85,0-2.58-1.47-2.58-3.25    c0-1.94,0.77-3.43,2.69-3.43c0.97,0,2.07,0.47,2.37,2.16C-427.59,42.14-427.55,42.54-427.57,42.94L-427.57,42.94z M-420.17,42.33    l-0.81-0.2c-1.11-0.27-2.03-0.52-2.03-1.33c0-0.57,0.56-1.24,1.67-1.24c0.58-0.02,1.16,0.16,1.63,0.5    c0.43,0.31,0.66,0.83,0.61,1.37l1.55-0.2c-0.29-1.99-2.01-2.76-3.63-2.76c-1.96,0-3.27,0.95-3.27,2.51c0,1.76,1.67,2.14,3.03,2.46    l0.81,0.16c1.02,0.2,1.76,0.38,1.76,1.35s-0.73,1.4-1.99,1.4c-0.61,0.06-1.21-0.11-1.71-0.47c-0.46-0.42-0.7-1.03-0.63-1.65    l-1.62,0.25c0.07,0.91,0.53,1.74,1.26,2.29c0.78,0.48,1.7,0.72,2.62,0.68c2.34,0,3.56-1.29,3.56-2.67    C-417.35,43-419.16,42.57-420.17,42.33L-420.17,42.33z M-411.89,46.34c-0.85,0.03-1.65-0.4-2.1-1.13    c-0.4-0.69-0.59-1.48-0.55-2.28c0-0.75,0.1-3.43,2.56-3.43c1.16-0.06,2.16,0.79,2.28,1.94l1.58-0.15    c-0.55-2.37-2.55-2.84-3.91-2.84c-2.82,0-4.1,2.17-4.1,4.58c0,2.08,1.11,4.4,4.22,4.4c1.56,0,2.77-0.58,3.47-1.87    c0.24-0.44,0.4-0.92,0.47-1.42l-1.55-0.14C-409.59,44.65-409.83,46.34-411.89,46.34L-411.89,46.34z M-406.73,47.18h1.38v-8.46    h-1.38V47.18z M-406.73,36.16h1.38v-1.65h-1.38V36.16z M-396.31,41.45c-0.34-1.77-1.91-3.04-3.72-3c-1.8,0-4.1,1.22-4.1,4.42    c0,2.84,1.64,4.56,4.15,4.56c1.78,0.06,3.37-1.12,3.83-2.84l-1.46-0.19c-0.25,1.13-0.97,1.97-2.24,1.97    c-2.01,0-2.77-1.76-2.73-3.18h6.43c0.01-0.58-0.05-1.17-0.18-1.74H-396.31z M-402.54,42.15c0.17-1.71,1.19-2.6,2.41-2.6    c0.7,0,2.3,0.37,2.42,2.6H-402.54z M-390.82,38.46c-1.09-0.02-2.1,0.56-2.64,1.51v-1.24h-1.42v8.46h1.42v-4.83    c-0.08-0.69,0.15-1.39,0.63-1.9c0.43-0.43,1.01-0.66,1.62-0.64c0.8-0.06,1.53,0.42,1.81,1.17c0.1,0.47,0.13,0.95,0.09,1.42v4.81    h1.42v-5.08c0.03-0.58-0.02-1.17-0.15-1.74c-0.38-1.21-1.53-2-2.8-1.94H-390.82z M-382.44,46.34c-0.85,0.03-1.65-0.4-2.1-1.13    c-0.4-0.69-0.59-1.48-0.55-2.28c0-0.75,0.11-3.43,2.56-3.43c1.16-0.07,2.16,0.79,2.28,1.94l1.58-0.15    c-0.56-2.37-2.55-2.84-3.92-2.84c-2.82,0-4.09,2.17-4.09,4.58c0,2.08,1.11,4.4,4.22,4.4c1.56,0,2.76-0.58,3.47-1.87    c0.24-0.44,0.4-0.92,0.47-1.42l-1.55-0.14c-0.09,0.66-0.33,2.35-2.39,2.35H-382.44z M-369.47,41.45c-0.34-1.77-1.91-3.04-3.72-3    c-1.79,0-4.09,1.22-4.09,4.42c0,2.84,1.63,4.56,4.15,4.56c1.78,0.06,3.36-1.12,3.82-2.84l-1.45-0.19    c-0.25,1.13-0.97,1.97-2.25,1.97c-2.01,0-2.76-1.76-2.73-3.18h6.43c0.01-0.58-0.05-1.17-0.18-1.74H-369.47z M-375.7,42.15    c0.16-1.71,1.19-2.6,2.41-2.6c0.7,0,2.29,0.37,2.42,2.6H-375.7z M-363.47,42.33l-0.81-0.2c-1.11-0.27-2.03-0.52-2.03-1.33    c0-0.57,0.56-1.24,1.67-1.24c0.59-0.02,1.16,0.16,1.64,0.5c0.43,0.31,0.66,0.83,0.61,1.37l1.55-0.2    c-0.29-1.99-2.01-2.76-3.63-2.76c-1.95,0-3.27,0.95-3.27,2.51c0,1.76,1.67,2.14,3.03,2.46l0.81,0.16c1.02,0.2,1.76,0.38,1.76,1.35    s-0.73,1.4-1.99,1.4c-0.61,0.06-1.22-0.11-1.71-0.47c-0.47-0.41-0.7-1.03-0.63-1.65l-1.62,0.25c0.08,0.91,0.53,1.74,1.26,2.29    c0.79,0.48,1.7,0.72,2.62,0.68c2.34,0,3.56-1.29,3.56-2.67c-0.01-1.79-1.82-2.22-2.83-2.45H-363.47z"/>
	</g>
</g>
<g>
	<path class="st3" d="M385.26,43.17c0,0-6.56-6.66-7.24-13.69s4.6-12.21,10.73-16.15s11.87-9.76,12.51-13.37   c0,0,6.24,16.88-2.15,24.66C390.95,32.18,384.92,37.62,385.26,43.17z"/>
	<g>
		<g>
			<path class="st0" d="M413.59,32.75l0.51,3.03c-0.99,0.2-1.87,0.31-2.65,0.31c-1.27,0-2.26-0.2-2.96-0.59     c-0.7-0.39-1.19-0.91-1.48-1.55c-0.29-0.64-0.43-1.99-0.43-4.05V18.23h-2.57v-2.67h2.57v-5.02l3.48-2.06v7.08h3.52v2.67h-3.52     v11.85c0,0.98,0.06,1.61,0.18,1.89c0.12,0.28,0.32,0.5,0.6,0.67c0.28,0.17,0.68,0.25,1.2,0.25     C412.44,32.88,412.95,32.84,413.59,32.75z"/>
			<path class="st0" d="M430.24,29.3l3.62,0.44c-0.57,2.07-1.63,3.68-3.17,4.83c-1.54,1.14-3.52,1.72-5.92,1.72     c-3.02,0-5.42-0.91-7.19-2.74s-2.66-4.38-2.66-7.68c0-3.41,0.9-6.05,2.69-7.94c1.79-1.88,4.11-2.82,6.97-2.82     c2.76,0,5.02,0.92,6.78,2.77c1.75,1.84,2.63,4.44,2.63,7.78c0,0.2-0.01,0.51-0.02,0.92h-15.42c0.13,2.23,0.77,3.93,1.93,5.11     c1.15,1.18,2.6,1.77,4.32,1.77c1.28,0,2.38-0.33,3.29-0.99C428.99,31.8,429.71,30.75,430.24,29.3z M418.73,23.75h11.55     c-0.16-1.7-0.6-2.98-1.32-3.83c-1.12-1.32-2.56-1.98-4.34-1.98c-1.61,0-2.96,0.53-4.06,1.58     C419.46,20.57,418.85,21.98,418.73,23.75z"/>
			<path class="st0" d="M437.3,35.82V15.56h3.15v3.07c0.8-1.44,1.55-2.38,2.23-2.84c0.68-0.46,1.43-0.69,2.25-0.69     c1.18,0,2.38,0.37,3.6,1.11l-1.21,3.19c-0.86-0.5-1.71-0.74-2.57-0.74c-0.77,0-1.45,0.23-2.06,0.68     c-0.61,0.45-1.04,1.08-1.3,1.88c-0.39,1.22-0.58,2.56-0.58,4.01v10.61H437.3z"/>
			<g>
				<path class="st0" d="M398.23,33.32c-1.3,1.08-2.55,1.85-3.76,2.29c-1.2,0.45-2.49,0.67-3.87,0.67c-2.28,0-4.03-0.55-5.25-1.63      c-1.22-1.09-1.83-2.48-1.83-4.18c0-0.99,0.23-1.9,0.69-2.72c0.46-0.82,1.07-1.48,1.81-1.98c0.75-0.5,1.59-0.87,2.53-1.13      c0.69-0.18,1.73-0.35,3.12-0.52c2.84-0.33,4.92-0.73,6.26-1.19c0.01-0.47,0.02-0.77,0.02-0.9c0-1.4-0.33-2.39-0.99-2.96      c-0.9-0.78-2.23-1.17-4-1.17c-1.65,0-2.87,0.28-3.66,0.85c-0.79,0.57-1.37,1.57-1.75,3.01l-3.43-0.46      c0.31-1.44,0.83-2.6,1.54-3.49c0.72-0.89,1.75-1.57,3.1-2.05c1.35-0.48,2.92-0.72,4.7-0.72c1.77,0,3.21,0.2,4.31,0.61      c1.11,0.41,1.92,0.92,2.44,1.54c0.52,0.62,0.88,1.4,1.09,2.34c0.12,0.59,0.18,1.64,0.18,3.17v4.59c0,3.2,0.07,5.22,0.22,6.07      c0.15,0.85,0.45,1.66,0.89,2.44h-3.67C398.56,35.11,398.33,34.27,398.23,33.32z M397.93,25.63c-1.27,0.51-3.19,0.94-5.74,1.3      c-1.44,0.2-2.47,0.43-3.06,0.69c-0.6,0.26-1.06,0.63-1.39,1.12c-0.33,0.49-0.49,1.04-0.49,1.63c0,0.92,0.35,1.68,1.06,2.29      c0.71,0.61,1.75,0.92,3.11,0.92c1.35,0,2.56-0.29,3.61-0.87c1.05-0.58,1.83-1.37,2.32-2.38c0.38-0.78,0.57-1.92,0.57-3.44V25.63      z"/>
			</g>
		</g>
	</g>
	<g>
		<g>
			<path class="st0" d="M299.84,15.47h7.38v3.3c1.1-1.35,2.22-2.31,3.35-2.89c1.13-0.58,2.51-0.87,4.13-0.87     c2.19,0,3.91,0.64,5.15,1.92c1.24,1.28,1.86,3.25,1.86,5.92v12.88h-7.96V24.58c0-1.27-0.24-2.17-0.72-2.7     c-0.48-0.53-1.16-0.79-2.02-0.79c-0.96,0-1.74,0.36-2.34,1.07c-0.6,0.71-0.9,1.99-0.9,3.83v9.73h-7.92V15.47z"/>
			<path class="st0" d="M346.63,27.52h-15.89c0.14,1.25,0.49,2.17,1.03,2.79c0.77,0.88,1.76,1.32,3,1.32c0.78,0,1.52-0.19,2.22-0.57     c0.43-0.24,0.89-0.67,1.38-1.28l7.81,0.71c-1.19,2.03-2.63,3.49-4.32,4.38c-1.69,0.88-4.11,1.33-7.26,1.33     c-2.74,0-4.89-0.38-6.46-1.14c-1.57-0.76-2.87-1.96-3.9-3.61c-1.03-1.65-1.55-3.58-1.55-5.81c0-3.17,1.03-5.73,3.11-7.69     c2.07-1.96,4.93-2.94,8.58-2.94c2.96,0,5.3,0.44,7.01,1.32c1.71,0.88,3.02,2.15,3.91,3.81c0.9,1.67,1.34,3.83,1.34,6.5V27.52z      M338.57,23.8c-0.16-1.5-0.57-2.58-1.24-3.22c-0.67-0.65-1.55-0.97-2.64-0.97c-1.26,0-2.27,0.49-3.02,1.47     c-0.48,0.61-0.79,1.52-0.92,2.73H338.57z"/>
			<path class="st0" d="M345.21,15.47h7.66l3.31,12.75l4.19-12.75h7.16l4.37,12.79l3.33-12.79h7.61l-7.62,20.26h-7.05L364,23.53     l-4.05,12.19h-7.08L345.21,15.47z"/>
		</g>
	</g>
</g>
<g>
	<path class="st0" d="M-229.61,12.32c0-0.38,0-0.65,0-0.93c0-4.4,0-8.79,0-13.19c0-1.06,0.85-1.98,1.85-2.01   c1.02-0.03,1.95,0.87,1.95,1.97c0.01,7.01,0,14.02,0,21.04c0,0.04-0.02,0.08-0.05,0.25c-0.2-0.18-0.37-0.31-0.52-0.46   c-2.49-2.45-5.48-3.68-8.97-3.64c-5.77,0.07-10.84,4.76-11.46,10.45c-0.41,3.83,0.63,7.14,3.27,9.9c1.98,2.06,4.47,3.24,7.33,3.5   c3.14,0.29,6.06-0.4,8.6-2.35c2.55-1.96,4.04-4.56,4.43-7.76c0.11-0.93,0.12-1.88,0.12-2.82c0.01-9.28,0-18.57,0.01-27.85   c0-1.25,0.78-2.07,1.96-2.05c0.93,0.01,1.72,0.72,1.84,1.65c0.01,0.11,0.01,0.21,0.01,0.32c0,9.84,0.04,19.69-0.03,29.53   c-0.03,3.92-1.5,7.34-4.16,10.24c-2.42,2.64-5.4,4.27-8.91,4.82c-4.59,0.73-8.77-0.31-12.44-3.21c-3.41-2.69-5.4-6.23-5.88-10.53   c-0.51-4.62,0.82-8.72,3.9-12.23c2.57-2.93,5.79-4.68,9.63-5.34c2.29-0.39,4.52-0.05,6.74,0.52   C-230.19,12.2-229.98,12.24-229.61,12.32z"/>
	<path class="st0" d="M-186.09,27.21c0.02,4.88-1.83,8.95-5.46,12.19c-5.4,4.82-13.67,5.03-19.42,0.54   c-5.75-4.49-7.8-12.39-4.88-19.08c2.38-5.46,6.56-8.71,12.46-9.49c4.49-0.59,8.51,0.76,11.94,3.76c3.14,2.75,4.87,6.24,5.36,10.35   C-186.03,26.05-186.09,26.63-186.09,27.21z M-201.24,39.29c0.47-0.06,1.29-0.1,2.08-0.28c5-1.11,8.69-5.3,9.2-10.46   c0.45-4.46-1.08-8.14-4.54-10.95c-4.86-3.94-11.95-3.09-16.01,1.75c-4.12,4.92-3.67,12.76,1.34,17.08   C-206.98,38.32-204.46,39.25-201.24,39.29z"/>
	<path class="st0" d="M-244.15,27.41c-0.09-4.88,3.96-9.19,9.15-9.26c4.97-0.08,9.21,4.25,9.2,9.31c-0.01,5.05-4.19,9.27-9.18,9.25   C-240.14,36.68-244.25,32.38-244.15,27.41z M-229.64,27.34c-0.01-3.01-2.34-5.35-5.33-5.35c-3.04,0-5.37,2.33-5.37,5.37   c0,3.03,2.36,5.37,5.38,5.36C-231.98,32.71-229.63,30.34-229.64,27.34z"/>
	<path class="st0" d="M-135.59,23.89c0.16-0.13,0.47-0.34,0.75-0.58c1.63-1.38,4.04-1.33,5.33,0.16c0.31,0.36,0.52,0.82,0.85,1.36   c0.37-0.36,0.69-0.68,1.02-1c1.26-1.19,2.75-1.7,4.48-1.45c1.9,0.28,3.32,2.13,2.91,4.02c-0.55,2.57-1.25,5.11-1.91,7.66   c-0.08,0.3-0.28,0.58-0.49,0.82c-0.44,0.49-1.09,0.58-1.64,0.26c-0.56-0.32-0.62-0.84-0.48-1.39c0.45-1.74,0.94-3.47,1.36-5.22   c0.16-0.68,0.22-1.39,0.2-2.09c-0.02-0.84-0.55-1.37-1.37-1.55c-1.45-0.33-2.98,0.34-3.61,1.81c-0.53,1.23-0.85,2.55-1.22,3.84   c-0.32,1.11-0.55,2.25-0.92,3.34c-0.16,0.47-0.49,0.99-0.9,1.24c-0.32,0.2-0.91,0.12-1.31-0.03c-0.47-0.17-0.55-0.69-0.45-1.16   c0.23-1.02,0.51-2.03,0.76-3.05c0.28-1.12,0.6-2.24,0.81-3.37c0.16-0.85,0.17-1.76-0.68-2.31c-0.93-0.6-1.94-0.52-2.87-0.01   c-0.87,0.48-1.5,1.24-1.78,2.2c-0.59,2.01-1.12,4.05-1.68,6.06c-0.11,0.41-0.27,0.82-0.47,1.19c-0.3,0.57-1.03,0.82-1.6,0.62   c-0.55-0.2-0.87-0.73-0.71-1.41c0.32-1.4,0.7-2.78,1.07-4.17c0.5-1.9,0.99-3.81,1.54-5.71c0.12-0.43,0.37-0.89,0.69-1.19   c0.4-0.39,1.03-0.51,1.49-0.17C-136.09,22.86-135.92,23.37-135.59,23.89z"/>
	<path class="st0" d="M-198.87-2.22c5.64,0.13,10.67,1.92,15.13,5.39c2.69,2.09,4.71,4.7,6.25,7.7c0.38,0.74,0.05,1.73-0.72,2.15   c-0.75,0.41-1.73,0.08-2.18-0.78c-0.91-1.74-2.03-3.3-3.39-4.72c-2.95-3.08-6.52-5.02-10.66-5.92c-3.46-0.75-6.88-0.67-10.26,0.47   c-1.01,0.34-1.85-0.13-2.17-1.12c-0.27-0.84,0.18-1.66,1.13-2.01C-203.52-1.86-201.23-2.22-198.87-2.22z"/>
	<path class="st0" d="M-164.14,35.48c-4.05,0.01-6.62-3.26-5.72-7.27c0.84-3.74,4.33-6.25,8.13-5.84c2.72,0.29,4.78,2.6,4.9,5.33   C-156.64,31.85-160.2,35.49-164.14,35.48z M-159.54,27.9c-0.02-1.01-0.35-2.13-1.51-2.76c-1.28-0.7-2.63-0.66-3.85,0.13   c-1.65,1.07-2.43,2.63-2.39,4.62c0.05,2.13,1.62,3.5,3.74,3.2C-161.32,32.77-159.54,30.57-159.54,27.9z"/>
	<path class="st0" d="M-198.86,4.59c3.85,0.12,7.76,1.61,11.19,4.42c1.74,1.42,3.05,3.16,4,5.18c0.4,0.84,0.17,1.67-0.51,2.09   c-0.76,0.46-1.6,0.2-2.14-0.61c-0.69-1.03-1.36-2.07-2.13-3.03c-1.43-1.76-3.29-2.98-5.38-3.81c-2.88-1.15-5.86-1.34-8.89-0.73   c-0.37,0.07-0.79,0.11-1.13,0.01c-0.59-0.17-0.97-0.62-1.02-1.26c-0.05-0.64,0.23-1.14,0.81-1.41   C-202.62,4.74-201.04,4.61-198.86,4.59z"/>
	<path class="st0" d="M-112.04,35.48c-1.73-0.04-3.26-0.62-4.65-1.64c-0.57-0.42-0.68-1.08-0.31-1.64c0.36-0.55,0.89-0.64,1.56-0.24   c0.42,0.25,0.81,0.55,1.24,0.79c0.99,0.56,2.08,0.64,3.18,0.54c0.68-0.06,1.32-0.6,1.43-1.12c0.16-0.74-0.02-1.16-0.83-1.61   c-0.82-0.45-1.71-0.78-2.54-1.22c-2.18-1.14-2.72-2.93-1.4-5c0.41-0.64,1.12-1.22,1.82-1.53c2.29-1,4.49-0.46,6.55,0.77   c0.58,0.35,0.67,1.07,0.28,1.64c-0.36,0.54-0.97,0.68-1.56,0.26c-0.86-0.61-1.79-1.01-2.85-1.04c-0.42-0.01-0.85,0.05-1.26,0.16   c-0.6,0.16-0.93,0.6-1.01,1.2c-0.08,0.61,0.27,1.03,0.77,1.29c0.78,0.4,1.61,0.72,2.36,1.16c0.64,0.37,1.31,0.78,1.77,1.34   c1.07,1.29,0.61,3.63-0.78,4.71C-109.38,35.16-110.64,35.51-112.04,35.48z"/>
	<path class="st0" d="M-175.31,22.58c0.65,0,1.31-0.03,1.97,0.01c1.01,0.05,1.53,1.01,0.94,1.82c-0.18,0.25-0.59,0.43-0.91,0.46   c-0.68,0.07-1.37,0.06-2.05,0.01c-0.55-0.04-0.74,0.19-0.86,0.68c-0.68,2.65-1.39,5.3-2.11,7.94c-0.11,0.41-0.28,0.81-0.51,1.16   c-0.4,0.62-1.06,0.8-1.67,0.54c-0.54-0.24-0.76-0.7-0.59-1.46c0.25-1.1,0.56-2.2,0.86-3.29c0.44-1.63,0.88-3.27,1.31-4.9   c0.05-0.18,0.06-0.37,0.1-0.59c-0.17-0.03-0.29-0.05-0.41-0.08c-0.61-0.12-1-0.58-0.98-1.16c0.01-0.57,0.46-1.16,1.04-1.11   c0.99,0.1,1.15-0.44,1.34-1.23c0.74-2.92,3.1-4.36,5.91-3.7c0.82,0.19,1.19,0.69,1.05,1.41c-0.15,0.73-0.65,1.02-1.51,0.83   C-174.19,19.54-175.32,20.77-175.31,22.58z"/>
	<path class="st0" d="M-147.95,24.98c0.53-0.58,0.88-1.12,1.36-1.47c0.61-0.44,1.3-0.8,2.01-1.06c0.65-0.23,1.23,0.14,1.44,0.74   c0.21,0.59-0.04,1.31-0.58,1.62c-0.2,0.12-0.42,0.24-0.64,0.3c-2.94,0.68-4.44,2.69-5.16,5.46c-0.28,1.1-0.55,2.2-0.9,3.28   c-0.14,0.43-0.42,0.85-0.75,1.16c-0.42,0.41-0.97,0.42-1.48,0.1c-0.46-0.28-0.59-0.72-0.47-1.22c0.56-2.16,1.12-4.31,1.7-6.46   c0.33-1.24,0.65-2.48,1.02-3.72c0.27-0.9,0.75-1.27,1.48-1.26c0.77,0.01,1.26,0.6,1.14,1.37   C-147.82,24.15-147.87,24.48-147.95,24.98z"/>
	<path class="st0" d="M-192.61,27.23c0.04,4.98-3.99,9.32-9.07,9.33c-4.88,0.01-8.89-4.28-8.89-9.38c0.01-5.15,4.07-9.32,9.07-9.31   C-196.65,17.88-192.6,22.14-192.61,27.23z M-201.57,21.78c-2.76-0.16-5.14,2.32-5.18,5.33c-0.04,2.98,2.33,5.54,5.09,5.55   c2.82,0.01,5.22-2.51,5.24-5.5C-196.4,24.22-198.72,21.79-201.57,21.78z"/>
</g>
<path class="st0" d="M579.25,29.93l8.82-1.8v3.23c-2.54,2.89-6.15,4.53-10.01,4.53c-7.38,0-13.38-6.01-13.38-13.36  c0-7.38,6.01-13.38,13.38-13.38c4.02,0,7.72,1.75,10.28,4.83v2.38h7.59V1.61h-7.59v2.24c-3.14-1.73-6.67-2.65-10.28-2.65  c-11.76,0-21.32,9.56-21.32,21.32s9.56,21.32,21.32,21.32c3.52,0,6.94-0.87,10.01-2.51v2.04h8.17V26.45l3.48-0.7v-8.4l-20.47,4.18  V29.93L579.25,29.93z M613.62,8.12c0.56,0,1.09,0.07,1.54,0.26s0.82,0.41,1.16,0.67c0.34,0.3,0.6,0.6,0.79,0.97  c0.19,0.37,0.34,0.75,0.41,1.16l-2.43,0.75c-0.04-0.11-0.07-0.26-0.11-0.41c-0.04-0.15-0.15-0.3-0.26-0.45  c-0.11-0.11-0.26-0.26-0.45-0.34c-0.19-0.11-0.37-0.15-0.64-0.15c-0.26,0-0.49,0.04-0.67,0.15c-0.19,0.07-0.34,0.19-0.41,0.34  c-0.11,0.15-0.19,0.3-0.22,0.45c-0.04,0.15-0.07,0.3-0.07,0.45v4.61c0,0.45,0.11,0.86,0.3,1.16c0.22,0.34,0.56,0.49,1.05,0.49  c0.56,0,0.94-0.15,1.16-0.41c0.22-0.26,0.34-0.6,0.34-0.97v-0.97h-1.69v-2.14h4.23v2.7c0,0.64-0.07,1.24-0.26,1.76  c-0.15,0.52-0.41,0.97-0.75,1.35c-0.34,0.37-0.75,0.67-1.27,0.9s-1.09,0.3-1.76,0.3c-0.71,0-1.31-0.11-1.84-0.34  c-0.52-0.22-0.9-0.52-1.24-0.94c-0.3-0.37-0.56-0.82-0.71-1.35c-0.15-0.52-0.22-1.05-0.22-1.61v-4.42c0-0.45,0.07-0.94,0.22-1.39  c0.15-0.49,0.37-0.9,0.67-1.27c0.3-0.37,0.71-0.71,1.24-0.94C612.27,8.27,612.87,8.12,613.62,8.12 M626.43,20.63l-1.69-4.91h-1.09  v4.91h-2.58V8.2h4.12c0.52,0,1.01,0.07,1.5,0.22c0.49,0.15,0.9,0.37,1.24,0.67c0.34,0.3,0.64,0.67,0.82,1.12  c0.19,0.45,0.3,1.01,0.3,1.65c0,0.79-0.15,1.5-0.45,2.06s-0.75,1.01-1.35,1.35l2.02,5.39h-2.85V20.63z M626.55,11.91  c0-0.49-0.15-0.82-0.41-1.01c-0.26-0.19-0.6-0.3-1.01-0.3h-1.46v2.81h1.39c0.41,0,0.79-0.11,1.05-0.34  C626.43,12.84,626.55,12.43,626.55,11.91 M632.58,20.63V8.23h7.23v2.4h-4.61v2.55h3.97v2.4h-3.97v2.62h4.61v2.43 M649.43,20.63  l-2.32-4.12l-1.35-2.62h-0.04v6.74h-2.58V8.23h2.29l2.02,3.71l1.61,3l0.07-0.04V8.23h2.55v12.4 M663.11,17.67  c-0.19,0.97-0.64,1.72-1.31,2.29c-0.71,0.56-1.57,0.82-2.58,0.82c-0.71,0-1.31-0.11-1.84-0.34c-0.52-0.22-0.9-0.52-1.24-0.94  c-0.3-0.37-0.56-0.82-0.71-1.35c-0.15-0.52-0.22-1.05-0.22-1.61v-4.42c0-0.45,0.07-0.94,0.22-1.39c0.15-0.49,0.37-0.9,0.67-1.27  c0.3-0.37,0.71-0.71,1.24-0.94c0.52-0.26,1.12-0.37,1.84-0.37c0.56,0,1.09,0.07,1.54,0.26c0.45,0.19,0.82,0.41,1.16,0.67  c0.34,0.3,0.6,0.6,0.79,0.97c0.19,0.37,0.34,0.75,0.41,1.16l-2.43,0.75c-0.04-0.11-0.07-0.26-0.11-0.41  c-0.04-0.15-0.15-0.3-0.26-0.45c-0.11-0.11-0.26-0.22-0.45-0.34c-0.19-0.11-0.41-0.15-0.64-0.15c-0.26,0-0.49,0.04-0.67,0.15  c-0.19,0.07-0.34,0.19-0.41,0.34c-0.11,0.15-0.19,0.3-0.22,0.45c-0.04,0.15-0.07,0.3-0.07,0.45v4.61c0,0.49,0.11,0.86,0.3,1.16  c0.22,0.3,0.56,0.45,1.09,0.45c0.37,0,0.67-0.11,0.94-0.34c0.26-0.22,0.45-0.56,0.49-0.94L663.11,17.67L663.11,17.67z M674.23,16.74  c0,0.64-0.11,1.16-0.3,1.69c-0.19,0.49-0.49,0.9-0.82,1.27c-0.34,0.34-0.75,0.64-1.24,0.79c-0.49,0.19-1.01,0.26-1.61,0.26  c-0.71,0-1.31-0.11-1.84-0.34c-0.52-0.22-0.94-0.52-1.24-0.94c-0.34-0.37-0.56-0.82-0.71-1.35c-0.15-0.52-0.22-1.05-0.22-1.61v-4.42  c0-0.45,0.07-0.94,0.22-1.39c0.15-0.49,0.37-0.9,0.71-1.27c0.34-0.37,0.75-0.71,1.24-0.94c0.52-0.26,1.12-0.37,1.84-0.37  c0.67,0,1.27,0.11,1.76,0.34s0.9,0.52,1.24,0.9c0.34,0.37,0.56,0.79,0.71,1.27c0.15,0.49,0.22,0.97,0.22,1.46v4.65H674.23z   M671.61,12.02c0-0.11-0.04-0.26-0.07-0.41s-0.11-0.3-0.22-0.45c-0.11-0.15-0.26-0.26-0.41-0.37c-0.19-0.11-0.37-0.15-0.64-0.15  c-0.26,0-0.49,0.04-0.67,0.15c-0.19,0.07-0.34,0.19-0.45,0.34c-0.11,0.15-0.19,0.3-0.26,0.45c-0.04,0.15-0.07,0.3-0.07,0.45v4.61  c0,0.49,0.11,0.86,0.34,1.16c0.22,0.3,0.6,0.45,1.09,0.45c0.37,0,0.67-0.11,0.94-0.37c0.26-0.22,0.41-0.56,0.41-0.97v-4.87H671.61z   M617.3,33.21c0,1.06-0.31,1.94-1,2.51c-0.69,0.63-1.63,0.88-2.82,0.88c-0.5,0-0.94-0.06-1.32-0.13c-0.38-0.13-0.75-0.25-1.06-0.38  c-0.31-0.19-0.56-0.38-0.81-0.63c-0.25-0.25-0.5-0.5-0.69-0.75l1.88-1.5c0.31,0.44,0.63,0.69,0.94,0.94  c0.31,0.19,0.69,0.31,1.13,0.31c0.5,0,0.81-0.13,1-0.31c0.19-0.19,0.31-0.5,0.31-0.81c0-0.19-0.06-0.38-0.13-0.56  c-0.13-0.19-0.25-0.31-0.44-0.44c-0.19-0.13-0.38-0.25-0.63-0.31c-0.25-0.06-0.5-0.19-0.75-0.25c-0.5-0.19-0.94-0.38-1.32-0.56  c-0.38-0.19-0.69-0.44-0.88-0.69c-0.25-0.25-0.38-0.56-0.5-0.88s-0.19-0.69-0.19-1.13c0-0.5,0.06-0.94,0.25-1.32  c0.19-0.44,0.44-0.75,0.75-1.06s0.69-0.5,1.13-0.69c0.44-0.19,0.94-0.25,1.44-0.25c0.88,0,1.57,0.13,2.13,0.38  c0.56,0.25,1,0.69,1.38,1.19l-1.69,1.57c-0.56-0.63-1.13-0.94-1.82-0.94c-0.38,0-0.63,0.06-0.88,0.25  c-0.25,0.19-0.31,0.44-0.31,0.75c0,0.19,0.06,0.31,0.19,0.44s0.25,0.25,0.44,0.38c0.19,0.13,0.38,0.19,0.63,0.31  c0.25,0.13,0.5,0.19,0.81,0.25c0.56,0.19,1.06,0.38,1.44,0.56c0.38,0.25,0.69,0.5,0.94,0.75c0.25,0.31,0.38,0.63,0.5,0.94  C617.24,32.4,617.3,32.84,617.3,33.21 M627.45,33.84c-0.19,0.88-0.56,1.57-1.19,2.07c-0.63,0.5-1.44,0.75-2.32,0.75  c-0.63,0-1.19-0.13-1.69-0.31c-0.44-0.19-0.81-0.5-1.13-0.81c-0.31-0.38-0.5-0.75-0.63-1.25c-0.13-0.44-0.19-0.94-0.19-1.44v-4.07  c0-0.44,0.06-0.88,0.19-1.25c0.13-0.44,0.31-0.81,0.63-1.19s0.69-0.63,1.13-0.88c0.44-0.25,1-0.31,1.69-0.31c0.5,0,1,0.06,1.38,0.25  c0.44,0.19,0.75,0.38,1.06,0.63s0.5,0.56,0.69,0.88c0.19,0.31,0.31,0.69,0.38,1.06l-2.25,0.69c0-0.13-0.06-0.25-0.13-0.38  s-0.13-0.25-0.25-0.38s-0.25-0.25-0.38-0.31c-0.19-0.06-0.38-0.13-0.56-0.13c-0.25,0-0.44,0.06-0.63,0.13  c-0.19,0.06-0.31,0.19-0.38,0.31c-0.13,0.13-0.19,0.25-0.19,0.38c-0.06,0.13-0.06,0.31-0.06,0.44v4.2c0,0.44,0.13,0.81,0.31,1.06  c0.19,0.31,0.5,0.44,1,0.44c0.31,0,0.63-0.13,0.88-0.31c0.25-0.19,0.38-0.5,0.44-0.88L627.45,33.84L627.45,33.84z M630.64,25.26  h2.38V36.6h-2.38V25.26z M636.47,36.6V25.26h6.64v2.19h-4.26v2.32h3.63v2.19h-3.63v2.38h4.26v2.25 M651.94,36.6l-2.07-3.82  l-1.25-2.38h-0.06v6.2h-2.38V25.26h2.13l1.82,3.38l1.5,2.69h0.06v-6.08H654V36.6 M664.53,33.84c-0.19,0.88-0.56,1.57-1.19,2.07  c-0.63,0.5-1.44,0.75-2.32,0.75c-0.63,0-1.19-0.13-1.69-0.31c-0.44-0.19-0.81-0.5-1.13-0.81c-0.31-0.38-0.5-0.75-0.63-1.25  c-0.13-0.44-0.19-0.94-0.19-1.44v-4.07c0-0.44,0.06-0.88,0.19-1.25c0.13-0.44,0.31-0.81,0.63-1.19s0.69-0.63,1.13-0.88  c0.44-0.25,1-0.31,1.69-0.31c0.5,0,1,0.06,1.38,0.25c0.44,0.19,0.75,0.38,1.06,0.63s0.5,0.56,0.69,0.88  c0.19,0.31,0.31,0.69,0.38,1.06l-2.25,0.69c0-0.13-0.06-0.25-0.13-0.38c-0.06-0.13-0.13-0.25-0.25-0.38s-0.25-0.25-0.38-0.31  c-0.19-0.06-0.38-0.13-0.56-0.13c-0.25,0-0.44,0.06-0.63,0.13c-0.19,0.06-0.31,0.19-0.38,0.31c-0.13,0.13-0.19,0.25-0.19,0.38  c-0.06,0.13-0.06,0.31-0.06,0.44v4.2c0,0.44,0.13,0.81,0.31,1.06c0.19,0.31,0.5,0.44,1,0.44c0.31,0,0.63-0.13,0.88-0.31  c0.25-0.19,0.38-0.5,0.44-0.88L664.53,33.84L664.53,33.84z M667.66,36.6V25.26h6.58v2.19h-4.26v2.32h3.7v2.19h-3.7v2.38h4.26v2.25"/>
</svg>