<svg xmlns:xlink="http://www.w3.org/1999/xlink" xmlns="http://www.w3.org/2000/svg" id="Layer_1" data-name="Layer 1" viewBox="0 0 96.07 21.01" width="110"  height="30" ><defs><style>.cls-1{fill:#575757}</style></defs><path class="cls-1" d="M76 10.5c0 6-4.27 10.5-10.31 10.5S55.4 16.72 55.4 10.5C55.4 4.62 59.52 0 65.73 0 71.77 0 76 4.47 76 10.5zm-5.33 0c0-3.52-1.36-6.65-5-6.65s-5 3.13-5 6.65 1.39 6.66 5 6.66 5.05-3.16 5.05-6.66zM39.76 8.63a9.44 9.44 0 00-2.93-6.41A9.41 9.41 0 0030.37 0a10.36 10.36 0 00-6.3 2.2 10.63 10.63 0 00-3.89 8.42 10.17 10.17 0 003 7.69A11.1 11.1 0 0031 21a16.27 16.27 0 007.2-1.84c.48-.3.63-.42.51-.91l-.86-2.42a.6.6 0 00-.9-.32 16.32 16.32 0 01-1.66.75 10.51 10.51 0 01-3.57.74c-2.45 0-3.85-.67-4.92-1.9a5.21 5.21 0 01-1.2-2.92h13.5a.74.74 0 00.71-.92v-1c.01-.44-.01-1.18-.05-1.63zm-4.86-.08h-9.35a6.42 6.42 0 01.6-1.93 4.8 4.8 0 014.39-2.75c2.71 0 4.36 1.84 4.36 4.56v.12zM44.62 2.91C46.16.93 48.55 0 52.46 0a13.63 13.63 0 012.75.3.68.68 0 01.45.94l-.46 2.29c-.11.47-.2.55-.56.55h-.27c-.37-.08-1.25-.17-1.63-.17-1.94 0-2.87.49-3.56 1.23s-.83 2.14-.83 4.42v10.13a.9.9 0 01-1 1h-3.11a.92.92 0 01-1-1v-10c0-3.57.21-5.27 1.38-6.78zM9.94 7.12A28.78 28.78 0 0014 1a1 1 0 011-.72h3.33c.3 0 .66.14.46.72-1.32 3.92-4.34 7.36-6 9.14A30.48 30.48 0 0119.37 20c.14.36.07.77-.69.77h-4a.91.91 0 01-1-.72 20.17 20.17 0 00-4.28-6.76A25.08 25.08 0 005 20a1 1 0 01-1 .72H.38A.48.48 0 01.05 20a24.62 24.62 0 016.34-9.46C4 7.62 1.62 4 .7 1a.49.49 0 01.44-.69h4.28a.92.92 0 01.94.69 26.58 26.58 0 003.58 6.12zM86.6 7.12A28.8 28.8 0 0090.7 1a1 1 0 011-.72H95c.3 0 .66.14.46.72-1.32 3.92-4.34 7.36-6 9.14A30.55 30.55 0 0196 20c.14.36.07.77-.69.77h-4a.91.91 0 01-1-.72 20.14 20.14 0 00-4.29-6.73A25.07 25.07 0 0081.69 20a1 1 0 01-1 .72H77a.48.48 0 01-.3-.72 24.62 24.62 0 016.3-9.45C80.61 7.62 78.27 4 77.35 1a.49.49 0 01.44-.69h4.28A.92.92 0 0183 1a26.58 26.58 0 003.6 6.12z"/></svg>