<svg version="1.1" id="Layer_1" xmlns="http://www.w3.org/2000/svg" x="0" y="0" viewBox="0 0 260.3 61.3" xml:space="preserve"><style>.st0{fill:#fff}</style><path class="st0" d="M204.4 30.5c0 16.1-11.4 28-27.5 28-16.4 0-27.5-11.4-27.5-28 0-15.7 11-28 27.5-28 16.1 0 27.5 11.9 27.5 28zm-14.2 0c0-9.4-3.6-17.7-13.3-17.7-9.6 0-13.4 8.3-13.4 17.7 0 9.4 3.7 17.7 13.4 17.7s13.3-8.3 13.3-17.7zM107.7 25.5c-.7-7.3-3.3-13.1-7.8-17.1-4.3-3.8-10.1-5.9-17.2-5.9-5.3 0-11.9 1.8-16.8 5.8-5.9 4.9-10.4 12.4-10.4 22.5 0 8.7 2.8 15.7 7.9 20.5 5 4.7 12 7.2 20.8 7.2 7 0 15.5-2.7 19.2-4.9 1.3-.8 1.7-1.1 1.3-2.4l-2.3-6.5c-.3-1.1-1.4-1.3-2.4-.9-1.6.8-2.8 1.4-4.4 2-3.2 1.2-6.4 2-9.5 2-6.5 0-10.3-1.8-13.1-5.1-1.8-2.1-2.9-4.7-3.2-7.8h36.1c1.3 0 1.9-.9 1.9-2.4V30c0-1.3 0-3.3-.1-4.5zm-12.9-.2H69.9c.3-1.8.8-3.5 1.6-5.2 2.2-4.5 6.5-7.3 11.7-7.3 7.2 0 11.6 4.9 11.6 12.2v.3zM120.7 10.3c4.1-5.3 10.4-7.7 20.9-7.7 2.4 0 5.5.3 7.3.7 1.2.3 1.4 1.3 1.2 2.5l-1.2 6.1c-.3 1.1-.6 1.5-1.5 1.5-.1 0-.4 0-.7-.1-.9-.1-3.3-.4-4.3-.4-5.2 0-7.6 1.3-9.5 3.3-2.1 2.3-2.2 5.7-2.2 11.8v27c0 1.8-.8 2.8-2.7 2.8h-8.2c-1.8 0-2.5-.9-2.7-2.8V28.5c-.1-9.7.4-14.2 3.6-18.2zM28.2 21.5c1.9-1.9 6.2-7.2 10.9-16.2.8-1.5 1.5-1.9 2.6-1.9h8.9c.8 0 1.8.4 1.2 1.9-3.5 10.5-11.6 19.6-16 24.3 4.8 4.6 13.4 15.5 17.5 26.1.4 1 .2 2.1-1.8 2.1H40.9c-1.1 0-2-.1-2.7-1.9-2.6-6.5-6.7-13.4-11.4-17.9-5.1 5.4-9 12.1-11.6 17.9-.6 1.4-1.3 1.9-2.7 1.9H2.8c-.6 0-1.3-.8-.9-1.9 2.9-7.9 8.6-17.8 16.9-25.2C12.3 22.8 6.1 13.3 3.6 5.3c-.4-1.2.3-1.9 1.2-1.9h11.4c1.2 0 1.9.5 2.5 1.9 2.8 6.5 6.6 12.8 9.5 16.2zM232.5 21.5c1.9-1.9 6.2-7.2 10.9-16.2.8-1.5 1.5-1.9 2.6-1.9h8.9c.8 0 1.8.4 1.2 1.9-3.5 10.5-11.6 19.6-16 24.3 4.8 4.6 13.4 15.5 17.5 26.1.4 1 .2 2.1-1.8 2.1h-10.6c-1.1 0-1.9-.1-2.7-1.9-2.6-6.5-6.7-13.4-11.4-17.9-5.1 5.4-9 12.1-11.6 17.9-.6 1.4-1.3 1.9-2.7 1.9H207c-.6 0-1.3-.8-.9-1.9 2.9-7.9 8.6-17.8 16.9-25.2-6.5-7.8-12.7-17.4-15.2-25.4-.4-1.2.3-1.9 1.2-1.9h11.4c1.2 0 1.9.5 2.5 1.9 2.8 6.5 6.7 12.8 9.6 16.2z"/></svg>